STARTFONT 2.1
COMMENT
COMMENT Converted from OpenType font "MultiTypeGamerChess-Regular.otf" by "otf2bdf 3.0".
COMMENT
FONT -FreeType-MultiType Gamer Chess-Medium-R-Normal--39-280-100-100-P-230-ISO10646-1
SIZE 28 100 100
FONTBOUNDINGBOX 101 68 -34 -12
STARTPROPERTIES 19
FOUNDRY "FreeType"
FAMILY_NAME "MultiType Gamer Chess"
WEIGHT_NAME "Medium"
SLANT "R"
SETWIDTH_NAME "Normal"
ADD_STYLE_NAME ""
PIXEL_SIZE 39
POINT_SIZE 280
RESOLUTION_X 100
RESOLUTION_Y 100
SPACING "P"
AVERAGE_WIDTH 230
CHARSET_REGISTRY "ISO10646"
CHARSET_ENCODING "1"
FONT_ASCENT 42
FONT_DESCENT 3
COPYRIGHT "-FreeType-MultiType Gamer Chess-Medium-R-Normal--39-280-100-100-P-230-ISO10646-1"
_OTF_FONTFILE "MultiTypeGamerChess-Regular.otf"
_OTF_PSNAME "MultiTypeGamer-Chess"
ENDPROPERTIES
CHARS 758
STARTCHAR 0020
ENCODING 32
SWIDTH 282 0
DWIDTH 11 0
BBX 0 0 0 0
BITMAP
ENDCHAR
STARTCHAR 0021
ENCODING 33
SWIDTH 282 0
DWIDTH 11 0
BBX 6 29 3 0
BITMAP
CC
CC
30
30
CC
CC
30
30
CC
CC
30
FC
CC
30
30
CC
CC
30
30
00
00
00
00
CC
CC
30
30
CC
CC
ENDCHAR
STARTCHAR 0022
ENCODING 34
SWIDTH 437 0
DWIDTH 17 0
BBX 16 10 1 23
BITMAP
CC33
CC33
300C
300C
CC33
CC33
300C
300C
CC33
CC33
ENDCHAR
STARTCHAR 0023
ENCODING 35
SWIDTH 900 0
DWIDTH 35 0
BBX 29 37 3 -4
BITMAP
03306600
03306600
00C01800
00C01800
03306600
03306600
00C01800
00C01800
03306600
03306600
CCCD9998
CCCD9998
33326660
33326660
CCCD9998
CFFDFF98
03306600
00C01800
00C01800
03306600
03306600
CCCD9998
CCCD9998
33326660
33326660
CCCD9998
CCCD9998
03306600
03306600
00C01800
00C01800
03306600
03306600
00C01800
00C01800
03306600
03306600
ENDCHAR
STARTCHAR 0024
ENCODING 36
SWIDTH 694 0
DWIDTH 27 0
BBX 21 37 3 -4
BITMAP
00CC00
00CC00
003000
003000
0CCD98
0CCD98
333260
333260
CCCD98
CCCD98
300000
300000
CC0000
CC0000
300000
FCCD80
CCCD80
333260
333260
0CCD98
0CCD98
000060
000060
000198
000198
000060
000060
CCCD98
CCCD98
333260
333260
CCCD80
CCCD80
003000
003000
00CC00
00CC00
ENDCHAR
STARTCHAR 0025
ENCODING 37
SWIDTH 1285 0
DWIDTH 50 0
BBX 45 29 3 0
BITMAP
0CCC01980000
0CCC01980000
333200600000
333200600000
CCCD81980000
CCCD81980000
300206600000
300206600000
CC0D81800000
CC0D81800000
300206600000
FCCF9FE19980
CCCD99819980
333206066660
333206066660
0CCC19999998
0CCC19999998
000066060060
000066060060
000018198198
000018198198
000066060060
000066060060
000198199998
000198199998
000060066660
000060066660
000198019980
000198019980
ENDCHAR
STARTCHAR 0026
ENCODING 38
SWIDTH 797 0
DWIDTH 31 0
BBX 25 29 3 0
BITMAP
0CCD8000
0CCD8000
33320000
33320000
CCCD8000
CCCD8000
30000000
30000000
CC019800
CC019800
33006000
3FCDF980
0CCD9980
03326600
03326600
0CCD9980
0CCD9980
33006000
33006000
CC019800
CC019800
30006000
30006000
CCCD9980
CCCD9980
33326600
33326600
0CCD9980
0CCD9980
ENDCHAR
STARTCHAR 0027
ENCODING 39
SWIDTH 180 0
DWIDTH 7 0
BBX 6 10 1 23
BITMAP
CC
CC
30
30
CC
CC
30
30
CC
CC
ENDCHAR
STARTCHAR 0028
ENCODING 40
SWIDTH 282 0
DWIDTH 11 0
BBX 10 45 3 -8
BITMAP
0CC0
0CC0
3300
3300
CC00
CC00
3000
3000
CC00
CC00
3000
3000
CC00
CC00
3000
3000
CC00
CC00
3000
FC00
CC00
3000
3000
CC00
CC00
3000
3000
CC00
CC00
3000
3000
CC00
CC00
3000
3000
CC00
CC00
3000
3000
CC00
CC00
3300
3300
0CC0
0CC0
ENDCHAR
STARTCHAR 0029
ENCODING 41
SWIDTH 282 0
DWIDTH 11 0
BBX 10 45 -1 -8
BITMAP
CC00
CC00
3300
3300
0CC0
0CC0
0300
0300
0CC0
0CC0
0300
0300
0CC0
0CC0
0300
0300
0CC0
0CC0
0300
0FC0
0CC0
0300
0300
0CC0
0CC0
0300
0300
0CC0
0CC0
0300
0300
0CC0
0CC0
0300
0300
0CC0
0CC0
0300
0300
0CC0
0CC0
3300
3300
CC00
CC00
ENDCHAR
STARTCHAR 002A
ENCODING 42
SWIDTH 900 0
DWIDTH 35 0
BBX 29 25 3 8
BITMAP
CC0D8198
CC0D8198
30020060
30020060
CC0D8198
CC0D8198
33020660
33020660
0CCD9980
0CCD9980
03326600
03326600
00CD9800
00CD9800
03326600
0FFFFF80
0CCD9980
33020660
33020660
CC0D8198
CC0D8198
30020060
30020060
CC0D8198
CC0D8198
ENDCHAR
STARTCHAR 002B
ENCODING 43
SWIDTH 694 0
DWIDTH 27 0
BBX 21 21 3 4
BITMAP
00CC00
00CC00
003000
003000
00CC00
00CC00
003000
CCFD98
CCCD98
333260
333260
CCCD98
CCCD98
003000
003000
00CC00
00CC00
003000
003000
00CC00
00CC00
ENDCHAR
STARTCHAR 002C
ENCODING 44
SWIDTH 180 0
DWIDTH 7 0
BBX 6 10 1 -4
BITMAP
CC
CC
30
30
CC
CC
30
30
C0
C0
ENDCHAR
STARTCHAR 002D
ENCODING 45
SWIDTH 488 0
DWIDTH 19 0
BBX 17 6 1 12
BITMAP
CCCC80
CCCC80
333300
333300
CCCC80
CCCC80
ENDCHAR
STARTCHAR 002E
ENCODING 46
SWIDTH 180 0
DWIDTH 7 0
BBX 6 6 1 0
BITMAP
CC
CC
30
30
CC
CC
ENDCHAR
STARTCHAR 002F
ENCODING 47
SWIDTH 385 0
DWIDTH 15 0
BBX 14 29 1 0
BITMAP
00CC
00CC
0030
0030
00CC
00CC
0330
0330
00C0
00C0
0330
0FF0
0CC0
0300
0300
0CC0
0CC0
3300
3300
0C00
0C00
3300
3300
CC00
CC00
3000
3000
CC00
CC00
ENDCHAR
STARTCHAR 0030
ENCODING 48
SWIDTH 694 0
DWIDTH 27 0
BBX 21 29 3 0
BITMAP
00CC00
00CC00
033200
033200
0CCD80
0CCD80
330260
330260
CC0198
CC0198
300060
FC01F8
CC0198
300060
300060
CC0198
CC0198
300060
300060
CC0198
CC0198
330260
330260
0CCD80
0CCD80
033200
033200
00CC00
00CC00
ENDCHAR
STARTCHAR 0031
ENCODING 49
SWIDTH 385 0
DWIDTH 15 0
BBX 10 29 3 0
BITMAP
CCC0
CCC0
3300
3300
CCC0
CCC0
0300
0300
0CC0
0CC0
0300
0FC0
0CC0
0300
0300
0CC0
0CC0
0300
0300
0CC0
0CC0
0300
0300
0CC0
0CC0
0300
0300
0CC0
0CC0
ENDCHAR
STARTCHAR 0032
ENCODING 50
SWIDTH 694 0
DWIDTH 27 0
BBX 21 29 3 0
BITMAP
0CCD80
0CCD80
333260
333260
CCCD98
CCCD98
300060
300060
CC0198
CC0198
000260
000FE0
000D80
003200
003200
00CC00
00CC00
033000
033000
0CC000
0CC000
330000
330000
CCCD98
CCCD98
333260
333260
CCCD98
CCCD98
ENDCHAR
STARTCHAR 0033
ENCODING 51
SWIDTH 694 0
DWIDTH 27 0
BBX 21 29 3 0
BITMAP
0CCD80
0CCD80
333260
333260
CCCD98
CCCD98
300060
300060
CC0198
CC0198
000260
00CFE0
00CD80
003260
003260
00CD98
00CD98
000060
000060
CC0198
CC0198
300060
300060
CCCD98
CCCD98
333260
333260
0CCD80
0CCD80
ENDCHAR
STARTCHAR 0034
ENCODING 52
SWIDTH 694 0
DWIDTH 27 0
BBX 21 29 3 0
BITMAP
000D80
000D80
003200
003200
00CD80
00CD80
033200
033200
0CCD80
0CCD80
330200
FF0F80
CC0D80
300200
300200
CCCD98
CCCD98
333260
333260
CCCD98
CCCD98
000200
000200
000D80
000D80
000200
000200
000D80
000D80
ENDCHAR
STARTCHAR 0035
ENCODING 53
SWIDTH 694 0
DWIDTH 27 0
BBX 21 29 3 0
BITMAP
CCCD98
CCCD98
333260
333260
CCCD98
CCCD98
300000
300000
CC0000
CC0000
300000
FCCD80
CCCD80
333260
333260
CCCD98
CCCD98
000060
000060
000198
000198
000060
000060
CCCD98
CCCD98
333260
333260
CCCD80
CCCD80
ENDCHAR
STARTCHAR 0036
ENCODING 54
SWIDTH 694 0
DWIDTH 27 0
BBX 21 29 3 0
BITMAP
00CD98
00CD98
033260
033260
0CCD98
0CCD98
330000
330000
CC0000
CC0000
300000
FCCD80
CCCD80
333260
333260
CCCD98
CCCD98
300060
300060
CC0198
CC0198
300060
300060
CCCD98
CCCD98
333260
333260
0CCD80
0CCD80
ENDCHAR
STARTCHAR 0037
ENCODING 55
SWIDTH 694 0
DWIDTH 27 0
BBX 21 29 3 0
BITMAP
CCCD98
CCCD98
333260
333260
CCCD98
CCCD98
000060
000060
000198
000198
000260
000FE0
000D80
003200
003200
00CC00
00CC00
033000
033000
0CC000
0CC000
030000
030000
0CC000
0CC000
030000
030000
0CC000
0CC000
ENDCHAR
STARTCHAR 0038
ENCODING 56
SWIDTH 694 0
DWIDTH 27 0
BBX 21 29 3 0
BITMAP
0CCD80
0CCD80
333260
333260
CCCD98
CCCD98
300060
300060
CC0198
CC0198
330260
3FCFE0
0CCD80
033200
033200
0CCD80
0CCD80
330260
330260
CC0198
CC0198
300060
300060
CCCD98
CCCD98
333260
333260
0CCD80
0CCD80
ENDCHAR
STARTCHAR 0039
ENCODING 57
SWIDTH 694 0
DWIDTH 27 0
BBX 21 29 3 0
BITMAP
0CCD80
0CCD80
333260
333260
CCCD98
CCCD98
300060
300060
CC0198
CC0198
300060
FCCDF8
CCCD98
333260
333260
0CCD98
0CCD98
000060
000060
000198
000198
000260
000260
CCCD80
CCCD80
333200
333200
CCCC00
CCCC00
ENDCHAR
STARTCHAR 003A
ENCODING 58
SWIDTH 180 0
DWIDTH 7 0
BBX 6 17 1 6
BITMAP
CC
CC
30
30
CC
CC
00
00
00
00
00
CC
CC
30
30
CC
CC
ENDCHAR
STARTCHAR 003B
ENCODING 59
SWIDTH 180 0
DWIDTH 7 0
BBX 6 22 1 -4
BITMAP
CC
CC
30
30
CC
CC
00
00
00
00
00
00
CC
CC
30
30
CC
CC
30
30
C0
C0
ENDCHAR
STARTCHAR 003C
ENCODING 60
SWIDTH 642 0
DWIDTH 25 0
BBX 19 29 1 0
BITMAP
000360
000360
000C80
000C80
003300
003300
00CC00
00CC00
033000
033000
0CC000
3FC000
330000
CC0000
CC0000
330000
330000
0CC000
0CC000
033000
033000
00CC00
00CC00
003300
003300
000C80
000C80
000360
000360
ENDCHAR
STARTCHAR 003D
ENCODING 61
SWIDTH 694 0
DWIDTH 27 0
BBX 21 17 3 4
BITMAP
CCCD98
CCCD98
333260
FFFFF8
CCCD98
000000
000000
000000
000000
000000
000000
CCCD98
CCCD98
333260
333260
CCCD98
CCCD98
ENDCHAR
STARTCHAR 003E
ENCODING 62
SWIDTH 642 0
DWIDTH 25 0
BBX 19 29 5 0
BITMAP
CC0000
CC0000
330000
330000
0CC000
0CC000
033000
033000
00C800
00C800
003600
003F80
000980
000660
000660
000980
000980
003600
003600
00C800
00C800
033000
033000
0CC000
0CC000
330000
330000
CC0000
CC0000
ENDCHAR
STARTCHAR 003F
ENCODING 63
SWIDTH 694 0
DWIDTH 27 0
BBX 21 29 3 0
BITMAP
0CCD80
0CCD80
333260
333260
CCCD98
CCCD98
300060
300060
CC0198
CC0198
000060
000DF8
000D98
003260
003260
00CD80
00CD80
003000
003000
00CC00
00CC00
000000
000000
00CC00
00CC00
003000
003000
00CC00
00CC00
ENDCHAR
STARTCHAR 0040
ENCODING 64
SWIDTH 1182 0
DWIDTH 46 0
BBX 41 41 3 -4
BITMAP
00CD99998000
00CD99998000
033266666000
033266666000
0CCD99999800
0CCD99999800
330000006600
330000006600
CC0000001980
CC0000001980
300000000600
300000000600
CC0199981980
CC0199981980
300266600600
300266600600
CC0D99981980
CC0D99981980
300200600600
FC0F81F81F80
CC0D81981980
300200600600
300200600600
CC0D99999980
CC0D99999980
300266666600
300266666600
CC0199999800
CC0199999800
300000000000
300000000000
CC0000000000
CC0000000000
330000000000
330000000000
0CCD99999980
0CCD99999980
033266666600
033266666600
00CD99999980
00CD99999980
ENDCHAR
STARTCHAR 0041
ENCODING 65
SWIDTH 694 0
DWIDTH 27 0
BBX 21 29 3 0
BITMAP
00CC00
00CC00
033200
033200
0CCD80
0CCD80
330260
330260
CC0198
CC0198
300060
FC01F8
CC0198
300060
300060
CCCD98
CCCD98
333260
333260
CCCD98
CCCD98
300060
300060
CC0198
CC0198
300060
300060
CC0198
CC0198
ENDCHAR
STARTCHAR 0042
ENCODING 66
SWIDTH 694 0
DWIDTH 27 0
BBX 21 29 3 0
BITMAP
CCCD80
CCCD80
333260
333260
CCCD98
CCCD98
300060
300060
CC0198
CC0198
300260
FCCFE0
CCCD80
333260
333260
CCCD98
CCCD98
300060
300060
CC0198
CC0198
300060
300060
CCCD98
CCCD98
333260
333260
CCCD80
CCCD80
ENDCHAR
STARTCHAR 0043
ENCODING 67
SWIDTH 797 0
DWIDTH 31 0
BBX 25 29 3 0
BITMAP
00CD8000
00CD8000
03326000
03326000
0CCD9800
0CCD9800
33006600
33006600
CC001980
CC001980
30000600
FC001F80
CC001980
30000000
30000000
CC000000
CC000000
30000000
30000000
CC001980
CC001980
33006600
33006600
0CCD9800
0CCD9800
03326000
03326000
00CD8000
00CD8000
ENDCHAR
STARTCHAR 0044
ENCODING 68
SWIDTH 797 0
DWIDTH 31 0
BBX 25 29 3 0
BITMAP
CCCD8000
CCCD8000
33326000
33326000
CCCD9800
CCCD9800
30006600
30006600
CC001980
CC001980
30000600
FC001F80
CC001980
30000600
30000600
CC001980
CC001980
30000600
30000600
CC001980
CC001980
30006600
30006600
CCCD9800
CCCD9800
33326000
33326000
CCCD8000
CCCD8000
ENDCHAR
STARTCHAR 0045
ENCODING 69
SWIDTH 694 0
DWIDTH 27 0
BBX 21 29 3 0
BITMAP
00CD98
00CD98
033260
033260
0CCD98
0CCD98
330000
330000
CC0000
CC0000
300000
FCCD80
CCCD80
333200
333200
CCCD80
CCCD80
300000
300000
CC0000
CC0000
330000
330000
0CCD98
0CCD98
033260
033260
00CD98
00CD98
ENDCHAR
STARTCHAR 0046
ENCODING 70
SWIDTH 694 0
DWIDTH 27 0
BBX 21 29 3 0
BITMAP
00CD98
00CD98
033260
033260
0CCD98
0CCD98
330000
330000
CC0000
CC0000
300000
FCCD80
CCCD80
333200
333200
CCCD80
CCCD80
300000
300000
CC0000
CC0000
300000
300000
CC0000
CC0000
300000
300000
CC0000
CC0000
ENDCHAR
STARTCHAR 0047
ENCODING 71
SWIDTH 797 0
DWIDTH 31 0
BBX 25 29 3 0
BITMAP
00CD9980
00CD9980
03326600
03326600
0CCD9980
0CCD9980
33000000
33000000
CC000000
CC000000
30000000
FC0D9980
CC0D9980
30026600
30026600
CC0D9980
CC0D9980
30000600
30000600
CC001980
CC001980
33000600
33000600
0CCD9980
0CCD9980
03326600
03326600
00CD9980
00CD9980
ENDCHAR
STARTCHAR 0048
ENCODING 72
SWIDTH 797 0
DWIDTH 31 0
BBX 25 29 3 0
BITMAP
CC001980
CC001980
30000600
30000600
CC001980
CC001980
30000600
30000600
CC001980
CC001980
30000600
FCCD9F80
CCCD9980
33326600
33326600
CCCD9980
CCCD9980
30000600
30000600
CC001980
CC001980
30000600
30000600
CC001980
CC001980
30000600
30000600
CC001980
CC001980
ENDCHAR
STARTCHAR 0049
ENCODING 73
SWIDTH 488 0
DWIDTH 19 0
BBX 14 29 3 0
BITMAP
CCCC
CCCC
3330
3330
CCCC
CCCC
0300
0300
0CC0
0CC0
0300
0FC0
0CC0
0300
0300
0CC0
0CC0
0300
0300
0CC0
0CC0
0300
0300
CCCC
CCCC
3330
3330
CCCC
CCCC
ENDCHAR
STARTCHAR 004A
ENCODING 74
SWIDTH 591 0
DWIDTH 23 0
BBX 17 29 3 0
BITMAP
CCCD80
CCCD80
333200
333200
CCCD80
CCCD80
000200
000200
000D80
000D80
000200
000F80
000D80
000200
000200
000D80
000D80
000200
000200
000D80
000D80
003200
003200
CCCC00
CCCC00
333000
333000
CCC000
CCC000
ENDCHAR
STARTCHAR 004B
ENCODING 75
SWIDTH 694 0
DWIDTH 27 0
BBX 21 29 3 0
BITMAP
CC0198
CC0198
300060
300060
CC0198
CC0198
300260
300260
CC0D80
CC0D80
303200
FCFE00
CCCC00
333000
333000
CCCC00
CCCC00
303200
303200
CC0D80
CC0D80
300260
300260
CC0198
CC0198
300060
300060
CC0198
CC0198
ENDCHAR
STARTCHAR 004C
ENCODING 76
SWIDTH 694 0
DWIDTH 27 0
BBX 21 29 3 0
BITMAP
CC0000
CC0000
300000
300000
CC0000
CC0000
300000
300000
CC0000
CC0000
300000
FC0000
CC0000
300000
300000
CC0000
CC0000
300000
300000
CC0000
CC0000
300000
300000
CCCD98
CCCD98
333260
333260
0CCD98
0CCD98
ENDCHAR
STARTCHAR 004D
ENCODING 77
SWIDTH 977 0
DWIDTH 38 0
BBX 33 29 3 0
BITMAP
CC00001980
CC00001980
3300006600
3300006600
CCC0019980
CCC0019980
3330066600
3330066600
CCCC199980
CCCC199980
3032660600
FC3FFE1F80
CC0D981980
3002600600
3002600600
CC01801980
CC01801980
3000000600
3000000600
CC00001980
CC00001980
3000000600
3000000600
CC00001980
CC00001980
3000000600
3000000600
CC00001980
CC00001980
ENDCHAR
STARTCHAR 004E
ENCODING 78
SWIDTH 797 0
DWIDTH 31 0
BBX 25 29 3 0
BITMAP
CC001980
CC001980
33000600
33000600
CCC01980
CCC01980
33300600
33300600
CCCC1980
CCCC1980
30320600
FC3F9F80
CC0D9980
30026600
30026600
CC019980
CC019980
30006600
30006600
CC001980
CC001980
30000600
30000600
CC001980
CC001980
30000600
30000600
CC001980
CC001980
ENDCHAR
STARTCHAR 004F
ENCODING 79
SWIDTH 797 0
DWIDTH 31 0
BBX 25 29 3 0
BITMAP
00CD8000
00CD8000
03326000
03326000
0CCD9800
0CCD9800
33006600
33006600
CC001980
CC001980
30000600
FC001F80
CC001980
30000600
30000600
CC001980
CC001980
30000600
30000600
CC001980
CC001980
33006600
33006600
0CCD9800
0CCD9800
03326000
03326000
00CD8000
00CD8000
ENDCHAR
STARTCHAR 0050
ENCODING 80
SWIDTH 694 0
DWIDTH 27 0
BBX 21 29 3 0
BITMAP
CCCC00
CCCC00
333200
333200
CCCD80
CCCD80
300260
300260
CC0198
CC0198
300060
FC01F8
CC0198
300060
300060
CC0198
CC0198
300260
300260
CCCD80
CCCD80
333200
333200
CCCC00
CCCC00
300000
300000
CC0000
CC0000
ENDCHAR
STARTCHAR 0051
ENCODING 81
SWIDTH 797 0
DWIDTH 31 0
BBX 25 33 3 -4
BITMAP
00CD8000
00CD8000
03326000
03326000
0CCD9800
0CCD9800
33006600
33006600
CC001980
CC001980
30000600
FC001F80
CC001980
30000600
30000600
CC001980
CC001980
30000600
30000600
CC001980
CC001980
33006600
33006600
0CCD9800
0CCD9800
03326000
03326000
00CD8000
00CD8000
00026000
00026000
00019800
00019800
ENDCHAR
STARTCHAR 0052
ENCODING 82
SWIDTH 694 0
DWIDTH 27 0
BBX 21 29 3 0
BITMAP
CCCC00
CCCC00
333200
333200
CCCD80
CCCD80
300260
300260
CC0198
CC0198
300060
FC01F8
CC0198
300060
300060
CC0198
CC0198
300260
300260
CCCD80
CCCD80
333200
333200
CCCD80
CCCD80
300260
300260
CC0198
CC0198
ENDCHAR
STARTCHAR 0053
ENCODING 83
SWIDTH 694 0
DWIDTH 27 0
BBX 21 29 3 0
BITMAP
0CCD80
0CCD80
333260
333260
CCCD98
CCCD98
300060
300060
CC0198
CC0198
300000
FCCD80
CCCD80
333260
333260
0CCD98
0CCD98
000060
000060
CC0198
CC0198
300060
300060
CCCD98
CCCD98
333260
333260
0CCD80
0CCD80
ENDCHAR
STARTCHAR 0054
ENCODING 84
SWIDTH 694 0
DWIDTH 27 0
BBX 21 29 3 0
BITMAP
CCCD98
CCCD98
333260
333260
CCCD98
CCCD98
003000
003000
00CC00
00CC00
003000
00FC00
00CC00
003000
003000
00CC00
00CC00
003000
003000
00CC00
00CC00
003000
003000
00CC00
00CC00
003000
003000
00CC00
00CC00
ENDCHAR
STARTCHAR 0055
ENCODING 85
SWIDTH 797 0
DWIDTH 31 0
BBX 25 29 3 0
BITMAP
CC001980
CC001980
30000600
30000600
CC001980
CC001980
30000600
30000600
CC001980
CC001980
30000600
FC001F80
CC001980
30000600
30000600
CC001980
CC001980
30000600
30000600
CC001980
CC001980
33006600
33006600
0CCD9800
0CCD9800
03326000
03326000
00CD8000
00CD8000
ENDCHAR
STARTCHAR 0056
ENCODING 86
SWIDTH 694 0
DWIDTH 27 0
BBX 21 29 3 0
BITMAP
CC0198
CC0198
300060
300060
CC0198
CC0198
300060
300060
CC0198
CC0198
300060
FC01F8
CC0198
300060
300060
CC0198
CC0198
300060
300060
CC0198
CC0198
330260
330260
0CCD80
0CCD80
033200
033200
00CC00
00CC00
ENDCHAR
STARTCHAR 0057
ENCODING 87
SWIDTH 1080 0
DWIDTH 42 0
BBX 37 29 3 0
BITMAP
CC01980198
CC01980198
3000600060
3000600060
CC01980198
CC01980198
3000600060
3000600060
CC01980198
CC01980198
3000600060
FC01F801F8
CC01980198
3000600060
3000600060
CC01980198
CC01980198
3000600060
3000600060
CC01980198
CC01980198
3302660660
3302660660
0CCD999980
0CCD999980
0332066600
0332066600
00CC019800
00CC019800
ENDCHAR
STARTCHAR 0058
ENCODING 88
SWIDTH 797 0
DWIDTH 31 0
BBX 25 29 3 0
BITMAP
CC001980
CC001980
30000600
30000600
CC001980
CC001980
30000600
30000600
CC001980
CC001980
33006600
3FCDFE00
0CCD9800
03326000
03326000
0CCD9800
0CCD9800
33006600
33006600
CC001980
CC001980
30000600
30000600
CC001980
CC001980
30000600
30000600
CC001980
CC001980
ENDCHAR
STARTCHAR 0059
ENCODING 89
SWIDTH 694 0
DWIDTH 27 0
BBX 21 29 3 0
BITMAP
CC0198
CC0198
300060
300060
CC0198
CC0198
300060
300060
CC0198
CC0198
300060
FC01F8
CC0198
330260
330260
0CCD80
0CCD80
033200
033200
00CC00
00CC00
003000
003000
00CC00
00CC00
003000
003000
00CC00
00CC00
ENDCHAR
STARTCHAR 005A
ENCODING 90
SWIDTH 694 0
DWIDTH 27 0
BBX 21 29 3 0
BITMAP
CCCD98
CCCD98
333260
333260
CCCD98
CCCD98
000260
000260
000D80
000D80
003200
00FE00
00CC00
033000
033000
0CC000
0CC000
330000
330000
CC0000
CC0000
300000
300000
CCCD98
CCCD98
333260
333260
CCCD98
CCCD98
ENDCHAR
STARTCHAR 005B
ENCODING 91
SWIDTH 334 0
DWIDTH 13 0
BBX 10 45 3 -8
BITMAP
CCC0
CCC0
3300
3300
CCC0
CCC0
3000
3000
CC00
CC00
3000
3000
CC00
CC00
3000
3000
CC00
CC00
3000
FC00
CC00
3000
3000
CC00
CC00
3000
3000
CC00
CC00
3000
3000
CC00
CC00
3000
3000
CC00
CC00
3000
3000
CCC0
CCC0
3300
3300
CCC0
CCC0
ENDCHAR
STARTCHAR 005C
ENCODING 92
SWIDTH 385 0
DWIDTH 15 0
BBX 14 29 1 0
BITMAP
CC00
CC00
3000
3000
CC00
CC00
3300
3300
0C00
0C00
3300
3FC0
0CC0
0300
0300
0CC0
0CC0
0330
0330
00C0
00C0
0330
0330
00CC
00CC
0030
0030
00CC
00CC
ENDCHAR
STARTCHAR 005D
ENCODING 93
SWIDTH 334 0
DWIDTH 13 0
BBX 10 45 1 -8
BITMAP
CCC0
CCC0
3300
3300
CCC0
CCC0
0300
0300
0CC0
0CC0
0300
0300
0CC0
0CC0
0300
0300
0CC0
0CC0
0300
0FC0
0CC0
0300
0300
0CC0
0CC0
0300
0300
0CC0
0CC0
0300
0300
0CC0
0CC0
0300
0300
0CC0
0CC0
0300
0300
CCC0
CCC0
3300
3300
CCC0
CCC0
ENDCHAR
STARTCHAR 005F
ENCODING 95
SWIDTH 797 0
DWIDTH 31 0
BBX 29 6 1 -4
BITMAP
CCCC9998
CCCC9998
33336660
33336660
CCCC9998
CCCC9998
ENDCHAR
STARTCHAR 0060
ENCODING 96
SWIDTH 334 0
DWIDTH 13 0
BBX 14 10 -3 31
BITMAP
CC00
CC00
3300
3300
0CC0
0CC0
0330
0330
00CC
00CC
ENDCHAR
STARTCHAR 0061
ENCODING 97
SWIDTH 694 0
DWIDTH 27 0
BBX 21 29 3 0
BITMAP
0CCD80
0CCD80
333260
333260
CCCD98
CCCD98
300060
300060
CC0198
CC0198
300060
FC01F8
CC0198
300060
300060
CCCD98
CCCD98
333260
333260
CCCD98
CCCD98
300060
300060
CC0198
CC0198
300060
300060
CC0198
CC0198
ENDCHAR
STARTCHAR 0062
ENCODING 98
SWIDTH 694 0
DWIDTH 27 0
BBX 21 29 3 0
BITMAP
CCCD80
CCCD80
333260
333260
CCCD98
CCCD98
300060
300060
CC0198
CC0198
300260
FCCFE0
CCCD80
333200
333200
CCCD80
CCCD80
300260
300260
CC0198
CC0198
300060
300060
CCCD98
CCCD98
333260
333260
CCCD80
CCCD80
ENDCHAR
STARTCHAR 0063
ENCODING 99
SWIDTH 694 0
DWIDTH 27 0
BBX 21 29 3 0
BITMAP
0CCD80
0CCD80
333260
333260
CCCD98
CCCD98
300060
300060
CC0198
CC0198
300060
FC01F8
CC0198
300000
300000
CC0000
CC0000
300000
300000
CC0198
CC0198
300060
300060
CCCD98
CCCD98
333260
333260
0CCD80
0CCD80
ENDCHAR
STARTCHAR 0064
ENCODING 100
SWIDTH 694 0
DWIDTH 27 0
BBX 21 29 3 0
BITMAP
CCCD80
CCCD80
333260
333260
CCCD98
CCCD98
300060
300060
CC0198
CC0198
300060
FC01F8
CC0198
300060
300060
CC0198
CC0198
300060
300060
CC0198
CC0198
300060
300060
CCCD98
CCCD98
333260
333260
CCCD80
CCCD80
ENDCHAR
STARTCHAR 0065
ENCODING 101
SWIDTH 694 0
DWIDTH 27 0
BBX 21 29 3 0
BITMAP
0CCD98
0CCD98
333260
333260
CCCD98
CCCD98
300000
300000
CC0000
CC0000
300000
FCCD80
CCCD80
333200
333200
CCCD80
CCCD80
300000
300000
CC0000
CC0000
300000
300000
CCCD98
CCCD98
333260
333260
0CCD98
0CCD98
ENDCHAR
STARTCHAR 0066
ENCODING 102
SWIDTH 694 0
DWIDTH 27 0
BBX 21 29 3 0
BITMAP
0CCD98
0CCD98
333260
333260
CCCD98
CCCD98
300000
300000
CC0000
CC0000
300000
FCCD80
CCCD80
333200
333200
CCCD80
CCCD80
300000
300000
CC0000
CC0000
300000
300000
CC0000
CC0000
300000
300000
CC0000
CC0000
ENDCHAR
STARTCHAR 0067
ENCODING 103
SWIDTH 694 0
DWIDTH 27 0
BBX 21 29 3 0
BITMAP
0CCD98
0CCD98
333260
333260
CCCD98
CCCD98
300000
300000
CC0000
CC0000
300000
FC0D98
CC0D98
300260
300260
CC0D98
CC0D98
300060
300060
CC0198
CC0198
300060
300060
CCCD98
CCCD98
333260
333260
0CCD80
0CCD80
ENDCHAR
STARTCHAR 0068
ENCODING 104
SWIDTH 694 0
DWIDTH 27 0
BBX 21 29 3 0
BITMAP
CC0198
CC0198
300060
300060
CC0198
CC0198
300060
300060
CC0198
CC0198
300060
FCCDF8
CCCD98
333260
333260
CCCD98
CCCD98
300060
300060
CC0198
CC0198
300060
300060
CC0198
CC0198
300060
300060
CC0198
CC0198
ENDCHAR
STARTCHAR 0069
ENCODING 105
SWIDTH 282 0
DWIDTH 11 0
BBX 6 29 3 0
BITMAP
CC
CC
30
30
CC
CC
30
30
CC
CC
30
FC
CC
30
30
CC
CC
30
30
CC
CC
30
30
CC
CC
30
30
CC
CC
ENDCHAR
STARTCHAR 006A
ENCODING 106
SWIDTH 488 0
DWIDTH 19 0
BBX 14 29 3 0
BITMAP
00CC
00CC
0030
0030
00CC
00CC
0030
0030
00CC
00CC
0030
00FC
00CC
0030
0030
00CC
00CC
0030
0030
00CC
00CC
0030
0030
CCCC
CCCC
3330
3330
CCC0
CCC0
ENDCHAR
STARTCHAR 006B
ENCODING 107
SWIDTH 694 0
DWIDTH 27 0
BBX 21 29 3 0
BITMAP
CC0198
CC0198
300060
300060
CC0198
CC0198
300060
300060
CC0198
CC0198
300260
FCCFE0
CCCD80
333200
333200
CCCD80
CCCD80
300260
300260
CC0198
CC0198
300060
300060
CC0198
CC0198
300060
300060
CC0198
CC0198
ENDCHAR
STARTCHAR 006C
ENCODING 108
SWIDTH 591 0
DWIDTH 23 0
BBX 17 29 3 0
BITMAP
CC0000
CC0000
300000
300000
CC0000
CC0000
300000
300000
CC0000
CC0000
300000
FC0000
CC0000
300000
300000
CC0000
CC0000
300000
300000
CC0000
CC0000
300000
300000
CCCD80
CCCD80
333200
333200
0CCD80
0CCD80
ENDCHAR
STARTCHAR 006D
ENCODING 109
SWIDTH 900 0
DWIDTH 35 0
BBX 29 29 3 0
BITMAP
CC000198
CC000198
33000660
33000660
CCC01998
CCC01998
33306660
33306660
CCCD9998
CCCD9998
30326060
FC3FE1F8
CC0D8198
30020060
30020060
CC000198
CC000198
30000060
30000060
CC000198
CC000198
30000060
30000060
CC000198
CC000198
30000060
30000060
CC000198
CC000198
ENDCHAR
STARTCHAR 006E
ENCODING 110
SWIDTH 694 0
DWIDTH 27 0
BBX 21 29 3 0
BITMAP
CC0198
CC0198
330060
330060
CCC198
CCC198
333060
333060
CCCD98
CCCD98
303260
FC3FF8
CC0D98
300260
300260
CC0198
CC0198
300060
300060
CC0198
CC0198
300060
300060
CC0198
CC0198
300060
300060
CC0198
CC0198
ENDCHAR
STARTCHAR 006F
ENCODING 111
SWIDTH 694 0
DWIDTH 27 0
BBX 21 29 3 0
BITMAP
0CCD80
0CCD80
333260
333260
CCCD98
CCCD98
300060
300060
CC0198
CC0198
300060
FC01F8
CC0198
300060
300060
CC0198
CC0198
300060
300060
CC0198
CC0198
300060
300060
CCCD98
CCCD98
333260
333260
0CCD80
0CCD80
ENDCHAR
STARTCHAR 0070
ENCODING 112
SWIDTH 694 0
DWIDTH 27 0
BBX 21 29 3 0
BITMAP
CCCD80
CCCD80
333260
333260
CCCD98
CCCD98
300060
300060
CC0198
CC0198
300060
FC01F8
CC0198
300060
300060
CCCD98
CCCD98
333260
333260
CCCD80
CCCD80
300000
300000
CC0000
CC0000
300000
300000
CC0000
CC0000
ENDCHAR
STARTCHAR 0071
ENCODING 113
SWIDTH 694 0
DWIDTH 27 0
BBX 21 33 3 -4
BITMAP
0CCD80
0CCD80
333260
333260
CCCD98
CCCD98
300060
300060
CC0198
CC0198
300060
FC01F8
CC0198
300060
300060
CC0198
CC0198
300060
300060
CC0198
CC0198
300060
300060
CCCD98
CCCD98
333260
333260
0CCD80
0CCD80
000260
000260
000198
000198
ENDCHAR
STARTCHAR 0072
ENCODING 114
SWIDTH 694 0
DWIDTH 27 0
BBX 21 29 3 0
BITMAP
CCCD80
CCCD80
333260
333260
CCCD98
CCCD98
300060
300060
CC0198
CC0198
300060
FC01F8
CC0198
300060
300060
CCCD98
CCCD98
333260
333260
CCCD80
CCCD80
300260
300260
CC0198
CC0198
300060
300060
CC0198
CC0198
ENDCHAR
STARTCHAR 0073
ENCODING 115
SWIDTH 694 0
DWIDTH 27 0
BBX 21 29 3 0
BITMAP
0CCD80
0CCD80
333260
333260
CCCD98
CCCD98
300060
300060
CC0198
CC0198
300000
FCCD80
CCCD80
333260
333260
0CCD98
0CCD98
000060
000060
CC0198
CC0198
300060
300060
CCCD98
CCCD98
333260
333260
0CCD80
0CCD80
ENDCHAR
STARTCHAR 0074
ENCODING 116
SWIDTH 694 0
DWIDTH 27 0
BBX 21 29 3 0
BITMAP
CCCD98
CCCD98
333260
333260
CCCD98
CCCD98
003000
003000
00CC00
00CC00
003000
00FC00
00CC00
003000
003000
00CC00
00CC00
003000
003000
00CC00
00CC00
003000
003000
00CC00
00CC00
003000
003000
00CC00
00CC00
ENDCHAR
STARTCHAR 0075
ENCODING 117
SWIDTH 694 0
DWIDTH 27 0
BBX 21 29 3 0
BITMAP
CC0198
CC0198
300060
300060
CC0198
CC0198
300060
300060
CC0198
CC0198
300060
FC01F8
CC0198
300060
300060
CC0198
CC0198
300060
300060
CC0198
CC0198
300060
300060
CCCD98
CCCD98
333260
333260
0CCD80
0CCD80
ENDCHAR
STARTCHAR 0076
ENCODING 118
SWIDTH 694 0
DWIDTH 27 0
BBX 21 29 3 0
BITMAP
CC0198
CC0198
300060
300060
CC0198
CC0198
300060
300060
CC0198
CC0198
300060
FC01F8
CC0198
300060
300060
CC0198
CC0198
300060
300060
CC0198
CC0198
330260
330260
0CCD80
0CCD80
033200
033200
00CC00
00CC00
ENDCHAR
STARTCHAR 0077
ENCODING 119
SWIDTH 1080 0
DWIDTH 42 0
BBX 37 29 3 0
BITMAP
CC01980198
CC01980198
3000600060
3000600060
CC01980198
CC01980198
3000600060
3000600060
CC01980198
CC01980198
3000600060
FC01F801F8
CC01980198
3000600060
3000600060
CC01980198
CC01980198
3000600060
3000600060
CC01980198
CC01980198
3002660060
3002660060
CCCD999998
CCCD999998
3332066660
3332066660
0CCC019980
0CCC019980
ENDCHAR
STARTCHAR 0078
ENCODING 120
SWIDTH 694 0
DWIDTH 27 0
BBX 21 29 3 0
BITMAP
CC0198
CC0198
300060
300060
CC0198
CC0198
300060
300060
CC0198
CC0198
330260
3FCFE0
0CCD80
033200
033200
0CCD80
0CCD80
330260
330260
CC0198
CC0198
300060
300060
CC0198
CC0198
300060
300060
CC0198
CC0198
ENDCHAR
STARTCHAR 0079
ENCODING 121
SWIDTH 694 0
DWIDTH 27 0
BBX 21 29 3 0
BITMAP
CC0198
CC0198
300060
300060
CC0198
CC0198
300060
300060
CC0198
CC0198
300060
FC01F8
CC0198
300060
300060
CCCD98
CCCD98
333260
333260
0CCD80
0CCD80
003000
003000
00CC00
00CC00
003000
003000
00CC00
00CC00
ENDCHAR
STARTCHAR 007A
ENCODING 122
SWIDTH 694 0
DWIDTH 27 0
BBX 21 29 3 0
BITMAP
CCCD98
CCCD98
333260
333260
CCCD98
CCCD98
000060
000060
000198
000198
000060
0CCDF8
0CCD98
333260
333260
CCCD80
CCCD80
300000
300000
CC0000
CC0000
300000
300000
CCCD98
CCCD98
333260
333260
CCCD98
CCCD98
ENDCHAR
STARTCHAR 007B
ENCODING 123
SWIDTH 385 0
DWIDTH 15 0
BBX 16 45 1 -8
BITMAP
0033
0033
00CC
00CC
0330
0330
00C0
00C0
0330
0330
00C0
00C0
0330
0330
00C0
00C0
0330
0330
0CC0
3FC0
3300
CC00
CC00
3300
3300
0CC0
0CC0
0330
0330
00C0
00C0
0330
0330
00C0
00C0
0330
0330
00C0
00C0
0330
0330
00CC
00CC
0033
0033
ENDCHAR
STARTCHAR 007C
ENCODING 124
SWIDTH 282 0
DWIDTH 11 0
BBX 6 37 3 -4
BITMAP
CC
CC
30
30
CC
CC
30
30
CC
CC
30
30
CC
CC
30
FC
CC
30
30
CC
CC
30
30
CC
CC
30
30
CC
CC
30
30
CC
CC
30
30
CC
CC
ENDCHAR
STARTCHAR 007D
ENCODING 125
SWIDTH 385 0
DWIDTH 15 0
BBX 16 45 -1 -8
BITMAP
CC00
CC00
3300
3300
0CC0
0CC0
0300
0300
0CC0
0CC0
0300
0300
0CC0
0CC0
0300
0300
0CC0
0CC0
0330
03FC
00CC
0033
0033
00CC
00CC
0330
0330
0CC0
0CC0
0300
0300
0CC0
0CC0
0300
0300
0CC0
0CC0
0300
0300
0CC0
0CC0
3300
3300
CC00
CC00
ENDCHAR
STARTCHAR 00A1
ENCODING 161
SWIDTH 282 0
DWIDTH 11 0
BBX 6 29 3 0
BITMAP
CC
CC
30
30
CC
CC
00
00
00
00
30
FC
CC
30
30
CC
CC
30
30
CC
CC
30
30
CC
CC
30
30
CC
CC
ENDCHAR
STARTCHAR 00A2
ENCODING 162
SWIDTH 694 0
DWIDTH 27 0
BBX 21 37 3 -4
BITMAP
00CC00
00CC00
003000
003000
0CCD80
0CCD80
333260
333260
CCCD98
CCCD98
300060
300060
CC0198
CC0198
300060
FC01F8
CC0198
300000
300000
CC0000
CC0000
300000
300000
CC0198
CC0198
300060
300060
CCCD98
CCCD98
333260
333260
0CCD80
0CCD80
003000
003000
00CC00
00CC00
ENDCHAR
STARTCHAR 00A3
ENCODING 163
SWIDTH 694 0
DWIDTH 27 0
BBX 21 33 3 0
BITMAP
00CD80
00CD80
033260
033260
0CCD98
0CCD98
030060
030060
0CC198
0CC198
030000
030000
0CC000
0CC000
030000
CFCD80
CCCD80
333200
333200
CCCD80
CCCD80
030000
030000
0CC000
0CC000
030000
030000
CCCD98
CCCD98
333260
333260
CCCD98
CCCD98
ENDCHAR
STARTCHAR 00A4
ENCODING 164
SWIDTH 797 0
DWIDTH 31 0
BBX 25 25 3 8
BITMAP
0CC00000
0CC00000
03000000
03000000
0CCD9980
0CCD9980
03326600
03326600
0CCD9980
0CCD9980
03006000
03006000
0CC19800
0CC19800
03006000
CFCDF800
CCCD9800
33326000
33326000
CCCD9800
CCCD9800
00006000
00006000
00019800
00019800
ENDCHAR
STARTCHAR 00A5
ENCODING 165
SWIDTH 694 0
DWIDTH 27 0
BBX 21 41 3 -4
BITMAP
CC0198
CC0198
300060
300060
CC0198
CC0198
300060
300060
CC0198
CC0198
330260
330260
0CCD80
0CCD80
033200
033200
00CC00
00CC00
003000
CCFD98
CCCD98
333260
333260
CCCD98
CCCD98
003000
003000
00CC00
00CC00
003000
003000
CCCD98
CCCD98
333260
333260
CCCD98
CCCD98
003000
003000
00CC00
00CC00
ENDCHAR
STARTCHAR 00A6
ENCODING 166
SWIDTH 282 0
DWIDTH 11 0
BBX 6 37 3 -4
BITMAP
CC
CC
30
30
CC
CC
30
30
CC
CC
30
30
CC
CC
00
00
00
00
00
00
00
00
00
CC
CC
30
30
CC
CC
30
30
CC
CC
30
30
CC
CC
ENDCHAR
STARTCHAR 00A7
ENCODING 167
SWIDTH 694 0
DWIDTH 27 0
BBX 21 45 3 -8
BITMAP
00CD98
00CD98
033260
033260
0CCD98
0CCD98
330000
330000
CC0000
CC0000
300000
300000
CCCC00
CCCC00
333200
333200
CCCD80
CCCD80
300260
FC03F8
CC0198
300060
300060
CC0198
CC0198
330060
330060
0CCD98
0CCD98
033260
033260
00CD98
00CD98
000060
000060
000198
000198
000260
000260
CCCD80
CCCD80
333200
333200
CCCC00
CCCC00
ENDCHAR
STARTCHAR 00A8
ENCODING 168
SWIDTH 385 0
DWIDTH 15 0
BBX 14 6 1 31
BITMAP
CCCC
CCCC
3030
3030
CCCC
CCCC
ENDCHAR
STARTCHAR 00AB
ENCODING 171
SWIDTH 848 0
DWIDTH 33 0
BBX 27 21 1 4
BITMAP
00330660
00330660
00CC1980
00CC1980
03306600
03306600
0CC09800
3FC3F800
33036000
CC0C8000
CC0C8000
33036000
33036000
0CC09800
0CC09800
03306600
03306600
00CC1980
00CC1980
00330660
00330660
ENDCHAR
STARTCHAR 00AD
ENCODING 173
SWIDTH 488 0
DWIDTH 19 0
BBX 17 6 1 12
BITMAP
CCCC80
CCCC80
333300
333300
CCCC80
CCCC80
ENDCHAR
STARTCHAR 00AF
ENCODING 175
SWIDTH 385 0
DWIDTH 15 0
BBX 14 6 1 31
BITMAP
CCCC
CCCC
3330
3330
CCCC
CCCC
ENDCHAR
STARTCHAR 00B0
ENCODING 176
SWIDTH 488 0
DWIDTH 19 0
BBX 17 17 1 16
BITMAP
0CCC00
0CCC00
333300
333300
CCCC80
CCCC80
300300
300300
CC0C80
CC0C80
300300
300300
CCCC80
CCCC80
333300
3FFF00
0CCC00
ENDCHAR
STARTCHAR 00B4
ENCODING 180
SWIDTH 334 0
DWIDTH 13 0
BBX 14 10 1 31
BITMAP
00CC
00CC
0330
0330
0CC0
0CC0
3300
3300
CC00
CC00
ENDCHAR
STARTCHAR 00B6
ENCODING 182
SWIDTH 694 0
DWIDTH 27 0
BBX 21 29 3 0
BITMAP
0CCD98
0CCD98
333060
333060
CCCD98
CCCD98
333060
333060
CCCD98
CCCD98
333060
FFFDF8
CCCD98
333060
333060
0CCD98
0CCD98
003060
003060
00CD98
00CD98
003060
003060
00CD98
00CD98
003060
003060
00CD98
00CD98
ENDCHAR
STARTCHAR 00B7
ENCODING 183
SWIDTH 180 0
DWIDTH 7 0
BBX 6 6 1 12
BITMAP
CC
CC
30
30
CC
CC
ENDCHAR
STARTCHAR 00B8
ENCODING 184
SWIDTH 231 0
DWIDTH 9 0
BBX 10 8 -1 -8
BITMAP
0300
0300
CCC0
CCC0
3300
3300
CC00
CC00
ENDCHAR
STARTCHAR 00BB
ENCODING 187
SWIDTH 848 0
DWIDTH 33 0
BBX 27 21 5 4
BITMAP
CC098000
CC098000
33066000
33066000
0CC19800
0CC19800
03306600
03F87F80
00C81980
00360660
00360660
00C81980
00C81980
03306600
03306600
0CC19800
0CC19800
33066000
33066000
CC098000
CC098000
ENDCHAR
STARTCHAR 00BF
ENCODING 191
SWIDTH 694 0
DWIDTH 27 0
BBX 21 29 3 0
BITMAP
00CC00
00CC00
003000
003000
00CC00
00CC00
000000
000000
00CC00
00CC00
003000
0CFC00
0CCC00
333000
333000
CCC000
CCC000
300000
300000
CC0198
CC0198
300060
300060
CCCD98
CCCD98
333260
333260
0CCD80
0CCD80
ENDCHAR
STARTCHAR 00C0
ENCODING 192
SWIDTH 694 0
DWIDTH 27 0
BBX 21 41 3 0
BITMAP
CC0000
CC0000
330000
330000
0CC000
0CC000
033000
033000
00CC00
00CC00
000000
000000
00CC00
00CC00
033200
033200
0CCD80
0CCD80
330260
330260
CC0198
CC0198
300060
FC01F8
CC0198
300060
300060
CCCD98
CCCD98
333260
333260
CCCD98
CCCD98
300060
300060
CC0198
CC0198
300060
300060
CC0198
CC0198
ENDCHAR
STARTCHAR 00C1
ENCODING 193
SWIDTH 694 0
DWIDTH 27 0
BBX 21 41 3 0
BITMAP
000260
000260
000D80
000D80
003200
003200
00CC00
00CC00
033000
033000
000000
000000
00CC00
00CC00
033200
033200
0CCD80
0CCD80
330260
330260
CC0198
CC0198
300060
FC01F8
CC0198
300060
300060
CCCD98
CCCD98
333260
333260
CCCD98
CCCD98
300060
300060
CC0198
CC0198
300060
300060
CC0198
CC0198
ENDCHAR
STARTCHAR 00C2
ENCODING 194
SWIDTH 694 0
DWIDTH 27 0
BBX 21 41 3 0
BITMAP
00CC00
00CC00
033200
033200
0CCD80
0CCD80
030200
030200
0CCD80
0CCD80
000000
000000
00CC00
00CC00
033200
033200
0CCD80
0CCD80
330260
330260
CC0198
CC0198
300060
FC01F8
CC0198
300060
300060
CCCD98
CCCD98
333260
333260
CCCD98
CCCD98
300060
300060
CC0198
CC0198
300060
300060
CC0198
CC0198
ENDCHAR
STARTCHAR 00C3
ENCODING 195
SWIDTH 694 0
DWIDTH 27 0
BBX 21 41 3 0
BITMAP
0CC198
0CC198
333060
333060
CCCD98
CCCD98
303260
303260
CC0D80
CC0D80
000000
000000
00CC00
00CC00
033200
033200
0CCD80
0CCD80
330260
330260
CC0198
CC0198
300060
FC01F8
CC0198
300060
300060
CCCD98
CCCD98
333260
333260
CCCD98
CCCD98
300060
300060
CC0198
CC0198
300060
300060
CC0198
CC0198
ENDCHAR
STARTCHAR 00C4
ENCODING 196
SWIDTH 694 0
DWIDTH 27 0
BBX 21 37 3 0
BITMAP
0CCD80
0CCD80
030200
030200
0CCD80
0CCD80
000000
000000
00CC00
00CC00
033200
033200
0CCD80
0CCD80
330260
330260
CC0198
CC0198
300060
FC01F8
CC0198
300060
300060
CCCD98
CCCD98
333260
333260
CCCD98
CCCD98
300060
300060
CC0198
CC0198
300060
300060
CC0198
CC0198
ENDCHAR
STARTCHAR 00C5
ENCODING 197
SWIDTH 694 0
DWIDTH 27 0
BBX 21 49 3 0
BITMAP
033200
033200
0CCD80
0CCD80
333260
333260
0C0180
0C0180
330260
330260
0C0180
0C0180
333260
333260
0CCD80
0CCD80
033200
033200
000000
000000
00CC00
00CC00
033200
033200
0CCD80
0CCD80
330260
330260
CC0198
CC0198
300060
FC01F8
CC0198
300060
300060
CCCD98
CCCD98
333260
333260
CCCD98
CCCD98
300060
300060
CC0198
CC0198
300060
300060
CC0198
CC0198
ENDCHAR
STARTCHAR 00C6
ENCODING 198
SWIDTH 1080 0
DWIDTH 42 0
BBX 37 29 3 0
BITMAP
00CD999998
00CD999998
0332666660
0332666660
0CCD999998
0CCD999998
3300600000
3300600000
CC01980000
CC01980000
3000600000
FC01F99980
CC01999980
3000666600
3000666600
CCCD999980
CCCD999980
3332600000
3332600000
CCCD980000
CCCD980000
3000600000
3000600000
CC01999998
CC01999998
3000666660
3000666660
CC00199998
CC00199998
ENDCHAR
STARTCHAR 00C7
ENCODING 199
SWIDTH 797 0
DWIDTH 31 0
BBX 25 37 3 -8
BITMAP
00CD8000
00CD8000
03326000
03326000
0CCD9800
0CCD9800
33006600
33006600
CC001980
CC001980
30000600
FC001F80
CC001980
30000000
30000000
CC000000
CC000000
30000000
30000000
CC001980
CC001980
33006600
33006600
0CCD9800
0CCD9800
03326000
03326000
00CD8000
00CD8000
00020000
00020000
00CD8000
00CD8000
00320000
00320000
00CC0000
00CC0000
ENDCHAR
STARTCHAR 00C8
ENCODING 200
SWIDTH 694 0
DWIDTH 27 0
BBX 21 41 3 0
BITMAP
CC0000
CC0000
330000
330000
0CC000
0CC000
033000
033000
00CC00
00CC00
000000
000000
00CD98
00CD98
033260
033260
0CCD98
0CCD98
330000
330000
CC0000
CC0000
300000
FCCD80
CCCD80
333200
333200
CCCD80
CCCD80
300000
300000
CC0000
CC0000
330000
330000
0CCD98
0CCD98
033260
033260
00CD98
00CD98
ENDCHAR
STARTCHAR 00C9
ENCODING 201
SWIDTH 694 0
DWIDTH 27 0
BBX 21 41 3 0
BITMAP
000260
000260
000D80
000D80
003200
003200
00CC00
00CC00
033000
033000
000000
000000
00CD98
00CD98
033260
033260
0CCD98
0CCD98
330000
330000
CC0000
CC0000
300000
FCCD80
CCCD80
333200
333200
CCCD80
CCCD80
300000
300000
CC0000
CC0000
330000
330000
0CCD98
0CCD98
033260
033260
00CD98
00CD98
ENDCHAR
STARTCHAR 00CA
ENCODING 202
SWIDTH 694 0
DWIDTH 27 0
BBX 21 41 3 0
BITMAP
00CC00
00CC00
033200
033200
0CCD80
0CCD80
030200
030200
0CCD80
0CCD80
000000
000000
00CD98
00CD98
033260
033260
0CCD98
0CCD98
330000
330000
CC0000
CC0000
300000
FCCD80
CCCD80
333200
333200
CCCD80
CCCD80
300000
300000
CC0000
CC0000
330000
330000
0CCD98
0CCD98
033260
033260
00CD98
00CD98
ENDCHAR
STARTCHAR 00CB
ENCODING 203
SWIDTH 694 0
DWIDTH 27 0
BBX 21 37 3 0
BITMAP
0CCD80
0CCD80
030200
030200
0CCD80
0CCD80
000000
000000
00CD98
00CD98
033260
033260
0CCD98
0CCD98
330000
330000
CC0000
CC0000
300000
FCCD80
CCCD80
333200
333200
CCCD80
CCCD80
300000
300000
CC0000
CC0000
330000
330000
0CCD98
0CCD98
033260
033260
00CD98
00CD98
ENDCHAR
STARTCHAR 00CC
ENCODING 204
SWIDTH 488 0
DWIDTH 19 0
BBX 18 41 -1 0
BITMAP
CC0000
CC0000
330000
330000
0CC000
0CC000
033000
033000
00CC00
00CC00
000000
000000
0CCCC0
0CCCC0
033300
033300
0CCCC0
0CCCC0
003000
003000
00CC00
00CC00
003000
00FC00
00CC00
003000
003000
00CC00
00CC00
003000
003000
00CC00
00CC00
003000
003000
0CCCC0
0CCCC0
033300
033300
0CCCC0
0CCCC0
ENDCHAR
STARTCHAR 00CD
ENCODING 205
SWIDTH 488 0
DWIDTH 19 0
BBX 15 41 3 0
BITMAP
0032
0032
00CC
00CC
0330
0330
0CC0
0CC0
3300
3300
0000
0000
CCCC
CCCC
3330
3330
CCCC
CCCC
0300
0300
0CC0
0CC0
0300
0FC0
0CC0
0300
0300
0CC0
0CC0
0300
0300
0CC0
0CC0
0300
0300
CCCC
CCCC
3330
3330
CCCC
CCCC
ENDCHAR
STARTCHAR 00CE
ENCODING 206
SWIDTH 488 0
DWIDTH 19 0
BBX 14 41 3 0
BITMAP
0CC0
0CC0
3330
3330
CCCC
CCCC
3030
3030
CCCC
CCCC
0000
0000
CCCC
CCCC
3330
3330
CCCC
CCCC
0300
0300
0CC0
0CC0
0300
0FC0
0CC0
0300
0300
0CC0
0CC0
0300
0300
0CC0
0CC0
0300
0300
CCCC
CCCC
3330
3330
CCCC
CCCC
ENDCHAR
STARTCHAR 00CF
ENCODING 207
SWIDTH 488 0
DWIDTH 19 0
BBX 14 37 3 0
BITMAP
CCCC
CCCC
3030
3030
CCCC
CCCC
0000
0000
CCCC
CCCC
3330
3330
CCCC
CCCC
0300
0300
0CC0
0CC0
0300
0FC0
0CC0
0300
0300
0CC0
0CC0
0300
0300
0CC0
0CC0
0300
0300
CCCC
CCCC
3330
3330
CCCC
CCCC
ENDCHAR
STARTCHAR 00D0
ENCODING 208
SWIDTH 848 0
DWIDTH 33 0
BBX 29 29 1 0
BITMAP
0CCC9800
0CCC9800
03336600
03336600
0CCC9980
0CCC9980
03000660
03000660
0CC00198
0CC00198
03000060
CFCC01F8
CCCC0198
33300060
33300060
CCCC0198
CCCC0198
03000060
03000060
0CC00198
0CC00198
03000660
03000660
0CCC9980
0CCC9980
03336600
03336600
0CCC9800
0CCC9800
ENDCHAR
STARTCHAR 00D1
ENCODING 209
SWIDTH 797 0
DWIDTH 31 0
BBX 25 41 3 0
BITMAP
03306600
03306600
0CCC1800
0CCC1800
33326600
33326600
0C0D9800
0C0D9800
33026000
33026000
00000000
00000000
CC001980
CC001980
33000600
33000600
CCC01980
CCC01980
33300600
33300600
CCCC1980
CCCC1980
30320600
FC3F9F80
CC0D9980
30026600
30026600
CC019980
CC019980
30006600
30006600
CC001980
CC001980
30000600
30000600
CC001980
CC001980
30000600
30000600
CC001980
CC001980
ENDCHAR
STARTCHAR 00D2
ENCODING 210
SWIDTH 797 0
DWIDTH 31 0
BBX 25 41 3 0
BITMAP
33000000
33000000
0CC00000
0CC00000
03300000
03300000
00CC0000
00CC0000
00320000
00320000
00000000
00000000
00CD8000
00CD8000
03326000
03326000
0CCD9800
0CCD9800
33006600
33006600
CC001980
CC001980
30000600
FC001F80
CC001980
30000600
30000600
CC001980
CC001980
30000600
30000600
CC001980
CC001980
33006600
33006600
0CCD9800
0CCD9800
03326000
03326000
00CD8000
00CD8000
ENDCHAR
STARTCHAR 00D3
ENCODING 211
SWIDTH 797 0
DWIDTH 31 0
BBX 25 41 3 0
BITMAP
00019800
00019800
00026000
00026000
000D8000
000D8000
00320000
00320000
00CC0000
00CC0000
00000000
00000000
00CD8000
00CD8000
03326000
03326000
0CCD9800
0CCD9800
33006600
33006600
CC001980
CC001980
30000600
FC001F80
CC001980
30000600
30000600
CC001980
CC001980
30000600
30000600
CC001980
CC001980
33006600
33006600
0CCD9800
0CCD9800
03326000
03326000
00CD8000
00CD8000
ENDCHAR
STARTCHAR 00D4
ENCODING 212
SWIDTH 797 0
DWIDTH 31 0
BBX 25 41 3 0
BITMAP
00320000
00320000
00CD8000
00CD8000
03326000
03326000
00C18000
00C18000
03326000
03326000
00000000
00000000
00CD8000
00CD8000
03326000
03326000
0CCD9800
0CCD9800
33006600
33006600
CC001980
CC001980
30000600
FC001F80
CC001980
30000600
30000600
CC001980
CC001980
30000600
30000600
CC001980
CC001980
33006600
33006600
0CCD9800
0CCD9800
03326000
03326000
00CD8000
00CD8000
ENDCHAR
STARTCHAR 00D5
ENCODING 213
SWIDTH 797 0
DWIDTH 31 0
BBX 25 41 3 0
BITMAP
03306600
03306600
0CCC1800
0CCC1800
33326600
33326600
0C0D9800
0C0D9800
33026000
33026000
00000000
00000000
00CD8000
00CD8000
03326000
03326000
0CCD9800
0CCD9800
33006600
33006600
CC001980
CC001980
30000600
FC001F80
CC001980
30000600
30000600
CC001980
CC001980
30000600
30000600
CC001980
CC001980
33006600
33006600
0CCD9800
0CCD9800
03326000
03326000
00CD8000
00CD8000
ENDCHAR
STARTCHAR 00D6
ENCODING 214
SWIDTH 797 0
DWIDTH 31 0
BBX 25 37 3 0
BITMAP
03326000
03326000
00C18000
00C18000
03326000
03326000
00000000
00000000
00CD8000
00CD8000
03326000
03326000
0CCD9800
0CCD9800
33006600
33006600
CC001980
CC001980
30000600
FC001F80
CC001980
30000600
30000600
CC001980
CC001980
30000600
30000600
CC001980
CC001980
33006600
33006600
0CCD9800
0CCD9800
03326000
03326000
00CD8000
00CD8000
ENDCHAR
STARTCHAR 00D7
ENCODING 215
SWIDTH 694 0
DWIDTH 27 0
BBX 21 23 3 4
BITMAP
300060
300060
CC0198
CC0198
330260
330260
0CCD80
0CCD80
033200
03FE00
00CC00
033200
033200
0CCD80
0CCD80
330260
330260
CC0198
CC0198
300060
300060
CC0198
CC0198
ENDCHAR
STARTCHAR 00D8
ENCODING 216
SWIDTH 900 0
DWIDTH 35 0
BBX 33 29 1 0
BITMAP
000C980000
000C980000
0033660000
0033660000
00CC998000
00CC998000
0330066000
0330066000
0CC0019800
0CC0019800
0300006000
CFCC99F980
CCCC999980
3333666600
3333666600
CCCC999980
CCCC999980
0300006000
0300006000
0CC0019800
0CC0019800
0330066000
0330066000
00CC998000
00CC998000
0033660000
0033660000
000C980000
000C980000
ENDCHAR
STARTCHAR 00D9
ENCODING 217
SWIDTH 797 0
DWIDTH 31 0
BBX 25 41 3 0
BITMAP
33000000
33000000
0CC00000
0CC00000
03300000
03300000
00CC0000
00CC0000
00320000
00320000
00000000
00000000
CC001980
CC001980
30000600
30000600
CC001980
CC001980
30000600
30000600
CC001980
CC001980
30000600
FC001F80
CC001980
30000600
30000600
CC001980
CC001980
30000600
30000600
CC001980
CC001980
33006600
33006600
0CCD9800
0CCD9800
03326000
03326000
00CD8000
00CD8000
ENDCHAR
STARTCHAR 00DA
ENCODING 218
SWIDTH 797 0
DWIDTH 31 0
BBX 25 41 3 0
BITMAP
00019800
00019800
00026000
00026000
000D8000
000D8000
00320000
00320000
00CC0000
00CC0000
00000000
00000000
CC001980
CC001980
30000600
30000600
CC001980
CC001980
30000600
30000600
CC001980
CC001980
30000600
FC001F80
CC001980
30000600
30000600
CC001980
CC001980
30000600
30000600
CC001980
CC001980
33006600
33006600
0CCD9800
0CCD9800
03326000
03326000
00CD8000
00CD8000
ENDCHAR
STARTCHAR 00DB
ENCODING 219
SWIDTH 797 0
DWIDTH 31 0
BBX 25 41 3 0
BITMAP
00320000
00320000
00CD8000
00CD8000
03326000
03326000
00C18000
00C18000
03326000
03326000
00000000
00000000
CC001980
CC001980
30000600
30000600
CC001980
CC001980
30000600
30000600
CC001980
CC001980
30000600
FC001F80
CC001980
30000600
30000600
CC001980
CC001980
30000600
30000600
CC001980
CC001980
33006600
33006600
0CCD9800
0CCD9800
03326000
03326000
00CD8000
00CD8000
ENDCHAR
STARTCHAR 00DC
ENCODING 220
SWIDTH 797 0
DWIDTH 31 0
BBX 25 37 3 0
BITMAP
03326000
03326000
00C18000
00C18000
03326000
03326000
00000000
00000000
CC001980
CC001980
30000600
30000600
CC001980
CC001980
30000600
30000600
CC001980
CC001980
30000600
FC001F80
CC001980
30000600
30000600
CC001980
CC001980
30000600
30000600
CC001980
CC001980
33006600
33006600
0CCD9800
0CCD9800
03326000
03326000
00CD8000
00CD8000
ENDCHAR
STARTCHAR 00DD
ENCODING 221
SWIDTH 694 0
DWIDTH 27 0
BBX 21 41 3 0
BITMAP
000260
000260
000D80
000D80
003200
003200
00CC00
00CC00
033000
033000
000000
000000
CC0198
CC0198
300060
300060
CC0198
CC0198
300060
300060
CC0198
CC0198
300060
FC01F8
CC0198
330260
330260
0CCD80
0CCD80
033200
033200
00CC00
00CC00
003000
003000
00CC00
00CC00
003000
003000
00CC00
00CC00
ENDCHAR
STARTCHAR 00DE
ENCODING 222
SWIDTH 694 0
DWIDTH 27 0
BBX 21 29 3 0
BITMAP
CC0000
CC0000
300000
300000
CCCD80
CCCD80
333260
333260
CCCD98
CCCD98
300060
FC01F8
CC0198
300060
300060
CC0198
CC0198
300060
300060
CCCD98
CCCD98
333260
333260
CCCD80
CCCD80
300000
300000
CC0000
CC0000
ENDCHAR
STARTCHAR 00DF
ENCODING 223
SWIDTH 694 0
DWIDTH 27 0
BBX 21 29 3 0
BITMAP
0CCD80
0CCD80
333260
333260
CCCD98
CCCD98
300060
300060
CC0198
CC0198
300260
FCCFE0
CCCD80
303260
303260
CCCD98
CCCD98
300060
300060
CC0198
CC0198
300060
300060
CCCD98
CCCD98
303260
303260
CCCD80
CCCD80
ENDCHAR
STARTCHAR 00E0
ENCODING 224
SWIDTH 694 0
DWIDTH 27 0
BBX 21 41 3 0
BITMAP
CC0000
CC0000
330000
330000
0CC000
0CC000
033000
033000
00CC00
00CC00
000000
000000
0CCD80
0CCD80
333260
333260
CCCD98
CCCD98
300060
300060
CC0198
CC0198
300060
FC01F8
CC0198
300060
300060
CCCD98
CCCD98
333260
333260
CCCD98
CCCD98
300060
300060
CC0198
CC0198
300060
300060
CC0198
CC0198
ENDCHAR
STARTCHAR 00E1
ENCODING 225
SWIDTH 694 0
DWIDTH 27 0
BBX 21 41 3 0
BITMAP
000260
000260
000D80
000D80
003200
003200
00CC00
00CC00
033000
033000
000000
000000
0CCD80
0CCD80
333260
333260
CCCD98
CCCD98
300060
300060
CC0198
CC0198
300060
FC01F8
CC0198
300060
300060
CCCD98
CCCD98
333260
333260
CCCD98
CCCD98
300060
300060
CC0198
CC0198
300060
300060
CC0198
CC0198
ENDCHAR
STARTCHAR 00E2
ENCODING 226
SWIDTH 694 0
DWIDTH 27 0
BBX 21 41 3 0
BITMAP
00CC00
00CC00
033200
033200
0CCD80
0CCD80
030200
030200
0CCD80
0CCD80
000000
000000
0CCD80
0CCD80
333260
333260
CCCD98
CCCD98
300060
300060
CC0198
CC0198
300060
FC01F8
CC0198
300060
300060
CCCD98
CCCD98
333260
333260
CCCD98
CCCD98
300060
300060
CC0198
CC0198
300060
300060
CC0198
CC0198
ENDCHAR
STARTCHAR 00E3
ENCODING 227
SWIDTH 694 0
DWIDTH 27 0
BBX 21 41 3 0
BITMAP
0CC198
0CC198
333060
333060
CCCD98
CCCD98
303260
303260
CC0D80
CC0D80
000000
000000
0CCD80
0CCD80
333260
333260
CCCD98
CCCD98
300060
300060
CC0198
CC0198
300060
FC01F8
CC0198
300060
300060
CCCD98
CCCD98
333260
333260
CCCD98
CCCD98
300060
300060
CC0198
CC0198
300060
300060
CC0198
CC0198
ENDCHAR
STARTCHAR 00E4
ENCODING 228
SWIDTH 694 0
DWIDTH 27 0
BBX 21 37 3 0
BITMAP
0CCD80
0CCD80
030200
030200
0CCD80
0CCD80
000000
000000
0CCD80
0CCD80
333260
333260
CCCD98
CCCD98
300060
300060
CC0198
CC0198
300060
FC01F8
CC0198
300060
300060
CCCD98
CCCD98
333260
333260
CCCD98
CCCD98
300060
300060
CC0198
CC0198
300060
300060
CC0198
CC0198
ENDCHAR
STARTCHAR 00E5
ENCODING 229
SWIDTH 694 0
DWIDTH 27 0
BBX 21 49 3 0
BITMAP
033200
033200
0CCD80
0CCD80
333260
333260
0C0180
0C0180
330260
330260
0C0180
0C0180
333260
333260
0CCD80
0CCD80
033200
033200
000000
000000
0CCD80
0CCD80
333260
333260
CCCD98
CCCD98
300060
300060
CC0198
CC0198
300060
FC01F8
CC0198
300060
300060
CCCD98
CCCD98
333260
333260
CCCD98
CCCD98
300060
300060
CC0198
CC0198
300060
300060
CC0198
CC0198
ENDCHAR
STARTCHAR 00E6
ENCODING 230
SWIDTH 1080 0
DWIDTH 42 0
BBX 37 29 3 0
BITMAP
0CCD999998
0CCD999998
3332666660
3332666660
CCCD999998
CCCD999998
3000600000
3000600000
CC01980000
CC01980000
3000600000
FC01F99980
CC01999980
3000666600
3000666600
CCCD999980
CCCD999980
3332600000
3332600000
CCCD980000
CCCD980000
3000600000
3000600000
CC01999998
CC01999998
3000666660
3000666660
CC00199998
CC00199998
ENDCHAR
STARTCHAR 00E7
ENCODING 231
SWIDTH 694 0
DWIDTH 27 0
BBX 21 37 3 -8
BITMAP
0CCD80
0CCD80
333260
333260
CCCD98
CCCD98
300060
300060
CC0198
CC0198
300060
FC01F8
CC0198
300000
300000
CC0000
CC0000
300000
300000
CC0198
CC0198
300060
300060
CCCD98
CCCD98
333260
333260
0CCD80
0CCD80
003000
003000
0CCC00
0CCC00
033000
033000
0CC000
0CC000
ENDCHAR
STARTCHAR 00E8
ENCODING 232
SWIDTH 694 0
DWIDTH 27 0
BBX 21 41 3 0
BITMAP
CC0000
CC0000
330000
330000
0CC000
0CC000
033000
033000
00CC00
00CC00
000000
000000
0CCD98
0CCD98
333260
333260
CCCD98
CCCD98
300000
300000
CC0000
CC0000
300000
FCCD80
CCCD80
333200
333200
CCCD80
CCCD80
300000
300000
CC0000
CC0000
300000
300000
CCCD98
CCCD98
333260
333260
0CCD98
0CCD98
ENDCHAR
STARTCHAR 00E9
ENCODING 233
SWIDTH 694 0
DWIDTH 27 0
BBX 21 41 3 0
BITMAP
000260
000260
000D80
000D80
003200
003200
00CC00
00CC00
033000
033000
000000
000000
0CCD98
0CCD98
333260
333260
CCCD98
CCCD98
300000
300000
CC0000
CC0000
300000
FCCD80
CCCD80
333200
333200
CCCD80
CCCD80
300000
300000
CC0000
CC0000
300000
300000
CCCD98
CCCD98
333260
333260
0CCD98
0CCD98
ENDCHAR
STARTCHAR 00EA
ENCODING 234
SWIDTH 694 0
DWIDTH 27 0
BBX 21 41 3 0
BITMAP
00CC00
00CC00
033200
033200
0CCD80
0CCD80
030200
030200
0CCD80
0CCD80
000000
000000
0CCD98
0CCD98
333260
333260
CCCD98
CCCD98
300000
300000
CC0000
CC0000
300000
FCCD80
CCCD80
333200
333200
CCCD80
CCCD80
300000
300000
CC0000
CC0000
300000
300000
CCCD98
CCCD98
333260
333260
0CCD98
0CCD98
ENDCHAR
STARTCHAR 00EB
ENCODING 235
SWIDTH 694 0
DWIDTH 27 0
BBX 21 37 3 0
BITMAP
0CCD80
0CCD80
030200
030200
0CCD80
0CCD80
000000
000000
0CCD98
0CCD98
333260
333260
CCCD98
CCCD98
300000
300000
CC0000
CC0000
300000
FCCD80
CCCD80
333200
333200
CCCD80
CCCD80
300000
300000
CC0000
CC0000
300000
300000
CCCD98
CCCD98
333260
333260
0CCD98
0CCD98
ENDCHAR
STARTCHAR 00EC
ENCODING 236
SWIDTH 282 0
DWIDTH 11 0
BBX 14 41 -5 0
BITMAP
CC00
CC00
3300
3300
0CC0
0CC0
0330
0330
00CC
00CC
0000
0000
00CC
00CC
0030
0030
00CC
00CC
0030
0030
00CC
00CC
0030
00FC
00CC
0030
0030
00CC
00CC
0030
0030
00CC
00CC
0030
0030
00CC
00CC
0030
0030
00CC
00CC
ENDCHAR
STARTCHAR 00ED
ENCODING 237
SWIDTH 282 0
DWIDTH 11 0
BBX 14 41 1 0
BITMAP
00CC
00CC
0330
0330
0CC0
0CC0
3300
3300
CC00
CC00
0000
0000
3300
3300
0C00
0C00
3300
3300
0C00
0C00
3300
3300
0C00
3F00
3300
0C00
0C00
3300
3300
0C00
0C00
3300
3300
0C00
0C00
3300
3300
0C00
0C00
3300
3300
ENDCHAR
STARTCHAR 00EE
ENCODING 238
SWIDTH 282 0
DWIDTH 11 0
BBX 14 41 -1 0
BITMAP
0CC0
0CC0
3330
3330
CCCC
CCCC
3030
3030
CCCC
CCCC
0000
0000
0CC0
0CC0
0300
0300
0CC0
0CC0
0300
0300
0CC0
0CC0
0300
0FC0
0CC0
0300
0300
0CC0
0CC0
0300
0300
0CC0
0CC0
0300
0300
0CC0
0CC0
0300
0300
0CC0
0CC0
ENDCHAR
STARTCHAR 00EF
ENCODING 239
SWIDTH 282 0
DWIDTH 11 0
BBX 14 37 -1 0
BITMAP
CCCC
CCCC
3030
3030
CCCC
CCCC
0000
0000
0CC0
0CC0
0300
0300
0CC0
0CC0
0300
0300
0CC0
0CC0
0300
0FC0
0CC0
0300
0300
0CC0
0CC0
0300
0300
0CC0
0CC0
0300
0300
0CC0
0CC0
0300
0300
0CC0
0CC0
ENDCHAR
STARTCHAR 00F0
ENCODING 240
SWIDTH 745 0
DWIDTH 29 0
BBX 25 29 1 0
BITMAP
0CCC9800
0CCC9800
03336600
03336600
0CCC9980
0CCC9980
03000600
03000600
0CC01980
0CC01980
03000600
CFCC1F80
CCCC1980
33300600
33300600
CCCC1980
CCCC1980
03000600
03000600
0CC01980
0CC01980
03000600
03000600
0CCC9980
0CCC9980
03336600
03336600
0CCC9800
0CCC9800
ENDCHAR
STARTCHAR 00F1
ENCODING 241
SWIDTH 694 0
DWIDTH 27 0
BBX 21 41 3 0
BITMAP
0CC198
0CC198
333060
333060
CCCD98
CCCD98
303260
303260
CC0D80
CC0D80
000000
000000
CC0198
CC0198
330060
330060
CCC198
CCC198
333060
333060
CCCD98
CCCD98
303260
FC3FF8
CC0D98
300260
300260
CC0198
CC0198
300060
300060
CC0198
CC0198
300060
300060
CC0198
CC0198
300060
300060
CC0198
CC0198
ENDCHAR
STARTCHAR 00F2
ENCODING 242
SWIDTH 694 0
DWIDTH 27 0
BBX 21 41 3 0
BITMAP
CC0000
CC0000
330000
330000
0CC000
0CC000
033000
033000
00CC00
00CC00
000000
000000
0CCD80
0CCD80
333260
333260
CCCD98
CCCD98
300060
300060
CC0198
CC0198
300060
FC01F8
CC0198
300060
300060
CC0198
CC0198
300060
300060
CC0198
CC0198
300060
300060
CCCD98
CCCD98
333260
333260
0CCD80
0CCD80
ENDCHAR
STARTCHAR 00F3
ENCODING 243
SWIDTH 694 0
DWIDTH 27 0
BBX 21 41 3 0
BITMAP
000260
000260
000D80
000D80
003200
003200
00CC00
00CC00
033000
033000
000000
000000
0CCD80
0CCD80
333260
333260
CCCD98
CCCD98
300060
300060
CC0198
CC0198
300060
FC01F8
CC0198
300060
300060
CC0198
CC0198
300060
300060
CC0198
CC0198
300060
300060
CCCD98
CCCD98
333260
333260
0CCD80
0CCD80
ENDCHAR
STARTCHAR 00F4
ENCODING 244
SWIDTH 694 0
DWIDTH 27 0
BBX 21 41 3 0
BITMAP
00CC00
00CC00
033200
033200
0CCD80
0CCD80
030200
030200
0CCD80
0CCD80
000000
000000
0CCD80
0CCD80
333260
333260
CCCD98
CCCD98
300060
300060
CC0198
CC0198
300060
FC01F8
CC0198
300060
300060
CC0198
CC0198
300060
300060
CC0198
CC0198
300060
300060
CCCD98
CCCD98
333260
333260
0CCD80
0CCD80
ENDCHAR
STARTCHAR 00F5
ENCODING 245
SWIDTH 694 0
DWIDTH 27 0
BBX 21 41 3 0
BITMAP
0CC198
0CC198
333060
333060
CCCD98
CCCD98
303260
303260
CC0D80
CC0D80
000000
000000
0CCD80
0CCD80
333260
333260
CCCD98
CCCD98
300060
300060
CC0198
CC0198
300060
FC01F8
CC0198
300060
300060
CC0198
CC0198
300060
300060
CC0198
CC0198
300060
300060
CCCD98
CCCD98
333260
333260
0CCD80
0CCD80
ENDCHAR
STARTCHAR 00F6
ENCODING 246
SWIDTH 694 0
DWIDTH 27 0
BBX 21 37 3 0
BITMAP
0CCD80
0CCD80
030200
030200
0CCD80
0CCD80
000000
000000
0CCD80
0CCD80
333260
333260
CCCD98
CCCD98
300060
300060
CC0198
CC0198
300060
FC01F8
CC0198
300060
300060
CC0198
CC0198
300060
300060
CC0198
CC0198
300060
300060
CCCD98
CCCD98
333260
333260
0CCD80
0CCD80
ENDCHAR
STARTCHAR 00F7
ENCODING 247
SWIDTH 694 0
DWIDTH 27 0
BBX 21 21 3 4
BITMAP
00CC00
00CC00
003000
003000
00CC00
00CC00
000000
CCCD98
CCCD98
333260
333260
CCCD98
CCCD98
000000
000000
00CC00
00CC00
003000
003000
00CC00
00CC00
ENDCHAR
STARTCHAR 00F8
ENCODING 248
SWIDTH 797 0
DWIDTH 31 0
BBX 29 29 1 0
BITMAP
00CC9800
00CC9800
03336600
03336600
0CCC9980
0CCC9980
03000600
03000600
0CC01980
0CC01980
03000600
CFCC9F98
CCCC9998
33336660
33336660
CCCC9998
CCCC9998
03000600
03000600
0CC01980
0CC01980
03000600
03000600
0CCC9980
0CCC9980
03336600
03336600
00CC9800
00CC9800
ENDCHAR
STARTCHAR 00F9
ENCODING 249
SWIDTH 694 0
DWIDTH 27 0
BBX 21 41 3 0
BITMAP
CC0000
CC0000
330000
330000
0CC000
0CC000
033000
033000
00CC00
00CC00
000000
000000
CC0198
CC0198
300060
300060
CC0198
CC0198
300060
300060
CC0198
CC0198
300060
FC01F8
CC0198
300060
300060
CC0198
CC0198
300060
300060
CC0198
CC0198
300060
300060
CCCD98
CCCD98
333260
333260
0CCD80
0CCD80
ENDCHAR
STARTCHAR 00FA
ENCODING 250
SWIDTH 694 0
DWIDTH 27 0
BBX 21 41 3 0
BITMAP
000260
000260
000D80
000D80
003200
003200
00CC00
00CC00
033000
033000
000000
000000
CC0198
CC0198
300060
300060
CC0198
CC0198
300060
300060
CC0198
CC0198
300060
FC01F8
CC0198
300060
300060
CC0198
CC0198
300060
300060
CC0198
CC0198
300060
300060
CCCD98
CCCD98
333260
333260
0CCD80
0CCD80
ENDCHAR
STARTCHAR 00FB
ENCODING 251
SWIDTH 694 0
DWIDTH 27 0
BBX 21 41 3 0
BITMAP
00CC00
00CC00
033200
033200
0CCD80
0CCD80
030200
030200
0CCD80
0CCD80
000000
000000
CC0198
CC0198
300060
300060
CC0198
CC0198
300060
300060
CC0198
CC0198
300060
FC01F8
CC0198
300060
300060
CC0198
CC0198
300060
300060
CC0198
CC0198
300060
300060
CCCD98
CCCD98
333260
333260
0CCD80
0CCD80
ENDCHAR
STARTCHAR 00FC
ENCODING 252
SWIDTH 694 0
DWIDTH 27 0
BBX 21 37 3 0
BITMAP
0CCD80
0CCD80
030200
030200
0CCD80
0CCD80
000000
000000
CC0198
CC0198
300060
300060
CC0198
CC0198
300060
300060
CC0198
CC0198
300060
FC01F8
CC0198
300060
300060
CC0198
CC0198
300060
300060
CC0198
CC0198
300060
300060
CCCD98
CCCD98
333260
333260
0CCD80
0CCD80
ENDCHAR
STARTCHAR 00FD
ENCODING 253
SWIDTH 694 0
DWIDTH 27 0
BBX 21 41 3 0
BITMAP
000260
000260
000D80
000D80
003200
003200
00CC00
00CC00
033000
033000
000000
000000
CC0198
CC0198
300060
300060
CC0198
CC0198
300060
300060
CC0198
CC0198
300060
FC01F8
CC0198
300060
300060
CCCD98
CCCD98
333260
333260
0CCD80
0CCD80
003000
003000
00CC00
00CC00
003000
003000
00CC00
00CC00
ENDCHAR
STARTCHAR 00FE
ENCODING 254
SWIDTH 694 0
DWIDTH 27 0
BBX 21 29 3 0
BITMAP
CC0000
CC0000
300000
300000
CCCD80
CCCD80
333260
333260
CCCD98
CCCD98
300060
FC01F8
CC0198
300060
300060
CC0198
CC0198
300060
300060
CCCD98
CCCD98
333260
333260
CCCD80
CCCD80
300000
300000
CC0000
CC0000
ENDCHAR
STARTCHAR 00FF
ENCODING 255
SWIDTH 694 0
DWIDTH 27 0
BBX 21 37 3 0
BITMAP
0CCD80
0CCD80
030200
030200
0CCD80
0CCD80
000000
000000
CC0198
CC0198
300060
300060
CC0198
CC0198
300060
300060
CC0198
CC0198
300060
FC01F8
CC0198
300060
300060
CCCD98
CCCD98
333260
333260
0CCD80
0CCD80
003000
003000
00CC00
00CC00
003000
003000
00CC00
00CC00
ENDCHAR
STARTCHAR 0100
ENCODING 256
SWIDTH 694 0
DWIDTH 27 0
BBX 21 37 3 0
BITMAP
0CCD80
0CCD80
033200
033200
0CCD80
0CCD80
000000
000000
00CC00
00CC00
033200
033200
0CCD80
0CCD80
330260
330260
CC0198
CC0198
300060
FC01F8
CC0198
300060
300060
CCCD98
CCCD98
333260
333260
CCCD98
CCCD98
300060
300060
CC0198
CC0198
300060
300060
CC0198
CC0198
ENDCHAR
STARTCHAR 0101
ENCODING 257
SWIDTH 694 0
DWIDTH 27 0
BBX 21 37 3 0
BITMAP
0CCD80
0CCD80
033200
033200
0CCD80
0CCD80
000000
000000
0CCD80
0CCD80
333260
333260
CCCD98
CCCD98
300060
300060
CC0198
CC0198
300060
FC01F8
CC0198
300060
300060
CCCD98
CCCD98
333260
333260
CCCD98
CCCD98
300060
300060
CC0198
CC0198
300060
300060
CC0198
CC0198
ENDCHAR
STARTCHAR 0102
ENCODING 258
SWIDTH 694 0
DWIDTH 27 0
BBX 21 41 3 0
BITMAP
330260
330260
0C0180
0C0180
333260
333260
0CCD80
0CCD80
033200
033200
000000
000000
00CC00
00CC00
033200
033200
0CCD80
0CCD80
330260
330260
CC0198
CC0198
300060
FC01F8
CC0198
300060
300060
CCCD98
CCCD98
333260
333260
CCCD98
CCCD98
300060
300060
CC0198
CC0198
300060
300060
CC0198
CC0198
ENDCHAR
STARTCHAR 0103
ENCODING 259
SWIDTH 694 0
DWIDTH 27 0
BBX 21 41 3 0
BITMAP
330260
330260
0C0180
0C0180
333260
333260
0CCD80
0CCD80
033200
033200
000000
000000
0CCD80
0CCD80
333260
333260
CCCD98
CCCD98
300060
300060
CC0198
CC0198
300060
FC01F8
CC0198
300060
300060
CCCD98
CCCD98
333260
333260
CCCD98
CCCD98
300060
300060
CC0198
CC0198
300060
300060
CC0198
CC0198
ENDCHAR
STARTCHAR 0104
ENCODING 260
SWIDTH 694 0
DWIDTH 27 0
BBX 25 37 3 -8
BITMAP
00CC0000
00CC0000
03320000
03320000
0CCD8000
0CCD8000
33026000
33026000
CC019800
CC019800
30006000
FC01F800
CC019800
30006000
30006000
CCCD9800
CCCD9800
33326000
33326000
CCCD9800
CCCD9800
30006000
30006000
CC019800
CC019800
30006000
30006000
CC019800
CC019800
00006000
00006000
00019980
00019980
00006600
00006600
00001980
00001980
ENDCHAR
STARTCHAR 0105
ENCODING 261
SWIDTH 694 0
DWIDTH 27 0
BBX 25 37 3 -8
BITMAP
0CCD8000
0CCD8000
33326000
33326000
CCCD9800
CCCD9800
30006000
30006000
CC019800
CC019800
30006000
FC01F800
CC019800
30006000
30006000
CCCD9800
CCCD9800
33326000
33326000
CCCD9800
CCCD9800
30006000
30006000
CC019800
CC019800
30006000
30006000
CC019800
CC019800
00006000
00006000
00019980
00019980
00006600
00006600
00001980
00001980
ENDCHAR
STARTCHAR 0106
ENCODING 262
SWIDTH 797 0
DWIDTH 31 0
BBX 25 41 3 0
BITMAP
00019800
00019800
00026000
00026000
000D8000
000D8000
00320000
00320000
00CC0000
00CC0000
00000000
00000000
00CD8000
00CD8000
03326000
03326000
0CCD9800
0CCD9800
33006600
33006600
CC001980
CC001980
30000600
FC001F80
CC001980
30000000
30000000
CC000000
CC000000
30000000
30000000
CC001980
CC001980
33006600
33006600
0CCD9800
0CCD9800
03326000
03326000
00CD8000
00CD8000
ENDCHAR
STARTCHAR 0107
ENCODING 263
SWIDTH 694 0
DWIDTH 27 0
BBX 21 41 3 0
BITMAP
000260
000260
000D80
000D80
003200
003200
00CC00
00CC00
033000
033000
000000
000000
0CCD80
0CCD80
333260
333260
CCCD98
CCCD98
300060
300060
CC0198
CC0198
300060
FC01F8
CC0198
300000
300000
CC0000
CC0000
300000
300000
CC0198
CC0198
300060
300060
CCCD98
CCCD98
333260
333260
0CCD80
0CCD80
ENDCHAR
STARTCHAR 010A
ENCODING 266
SWIDTH 797 0
DWIDTH 31 0
BBX 25 37 3 0
BITMAP
00320000
00320000
000C0000
000C0000
00320000
00320000
00000000
00000000
00CD8000
00CD8000
03326000
03326000
0CCD9800
0CCD9800
33006600
33006600
CC001980
CC001980
30000600
FC001F80
CC001980
30000000
30000000
CC000000
CC000000
30000000
30000000
CC001980
CC001980
33006600
33006600
0CCD9800
0CCD9800
03326000
03326000
00CD8000
00CD8000
ENDCHAR
STARTCHAR 010B
ENCODING 267
SWIDTH 694 0
DWIDTH 27 0
BBX 21 37 3 0
BITMAP
00CC00
00CC00
003000
003000
00CC00
00CC00
000000
000000
0CCD80
0CCD80
333260
333260
CCCD98
CCCD98
300060
300060
CC0198
CC0198
300060
FC01F8
CC0198
300000
300000
CC0000
CC0000
300000
300000
CC0198
CC0198
300060
300060
CCCD98
CCCD98
333260
333260
0CCD80
0CCD80
ENDCHAR
STARTCHAR 010C
ENCODING 268
SWIDTH 797 0
DWIDTH 31 0
BBX 25 41 3 0
BITMAP
03326000
03326000
00C18000
00C18000
03326000
03326000
00CD8000
00CD8000
00320000
00320000
00000000
00000000
00CD8000
00CD8000
03326000
03326000
0CCD9800
0CCD9800
33006600
33006600
CC001980
CC001980
30000600
FC001F80
CC001980
30000000
30000000
CC000000
CC000000
30000000
30000000
CC001980
CC001980
33006600
33006600
0CCD9800
0CCD9800
03326000
03326000
00CD8000
00CD8000
ENDCHAR
STARTCHAR 010D
ENCODING 269
SWIDTH 694 0
DWIDTH 27 0
BBX 21 41 3 0
BITMAP
0CCD80
0CCD80
030200
030200
0CCD80
0CCD80
033200
033200
00CC00
00CC00
000000
000000
0CCD80
0CCD80
333260
333260
CCCD98
CCCD98
300060
300060
CC0198
CC0198
300060
FC01F8
CC0198
300000
300000
CC0000
CC0000
300000
300000
CC0198
CC0198
300060
300060
CCCD98
CCCD98
333260
333260
0CCD80
0CCD80
ENDCHAR
STARTCHAR 010E
ENCODING 270
SWIDTH 797 0
DWIDTH 31 0
BBX 25 41 3 0
BITMAP
03326000
03326000
00C18000
00C18000
03326000
03326000
00CD8000
00CD8000
00320000
00320000
00000000
00000000
CCCD8000
CCCD8000
33326000
33326000
CCCD9800
CCCD9800
30006600
30006600
CC001980
CC001980
30000600
FC001F80
CC001980
30000600
30000600
CC001980
CC001980
30000600
30000600
CC001980
CC001980
30006600
30006600
CCCD9800
CCCD9800
33326000
33326000
CCCD8000
CCCD8000
ENDCHAR
STARTCHAR 010F
ENCODING 271
SWIDTH 694 0
DWIDTH 27 0
BBX 21 41 3 0
BITMAP
0CCD80
0CCD80
030200
030200
0CCD80
0CCD80
033200
033200
00CC00
00CC00
000000
000000
CCCD80
CCCD80
333260
333260
CCCD98
CCCD98
300060
300060
CC0198
CC0198
300060
FC01F8
CC0198
300060
300060
CC0198
CC0198
300060
300060
CC0198
CC0198
300060
300060
CCCD98
CCCD98
333260
333260
CCCD80
CCCD80
ENDCHAR
STARTCHAR 0110
ENCODING 272
SWIDTH 848 0
DWIDTH 33 0
BBX 29 29 1 0
BITMAP
0CCC9800
0CCC9800
03336600
03336600
0CCC9980
0CCC9980
03000660
03000660
0CC00198
0CC00198
03000060
CFCC01F8
CCCC0198
33300060
33300060
CCCC0198
CCCC0198
03000060
03000060
0CC00198
0CC00198
03000660
03000660
0CCC9980
0CCC9980
03336600
03336600
0CCC9800
0CCC9800
ENDCHAR
STARTCHAR 0111
ENCODING 273
SWIDTH 745 0
DWIDTH 29 0
BBX 25 29 1 0
BITMAP
0CCC9800
0CCC9800
03336600
03336600
0CCC9980
0CCC9980
03000600
03000600
0CC01980
0CC01980
03000600
CFCC1F80
CCCC1980
33300600
33300600
CCCC1980
CCCC1980
03000600
03000600
0CC01980
0CC01980
03000600
03000600
0CCC9980
0CCC9980
03336600
03336600
0CCC9800
0CCC9800
ENDCHAR
STARTCHAR 0112
ENCODING 274
SWIDTH 694 0
DWIDTH 27 0
BBX 21 37 3 0
BITMAP
0CCD80
0CCD80
033200
033200
0CCD80
0CCD80
000000
000000
00CD98
00CD98
033260
033260
0CCD98
0CCD98
330000
330000
CC0000
CC0000
300000
FCCD80
CCCD80
333200
333200
CCCD80
CCCD80
300000
300000
CC0000
CC0000
330000
330000
0CCD98
0CCD98
033260
033260
00CD98
00CD98
ENDCHAR
STARTCHAR 0113
ENCODING 275
SWIDTH 694 0
DWIDTH 27 0
BBX 21 37 3 0
BITMAP
0CCD80
0CCD80
033200
033200
0CCD80
0CCD80
000000
000000
0CCD98
0CCD98
333260
333260
CCCD98
CCCD98
300000
300000
CC0000
CC0000
300000
FCCD80
CCCD80
333200
333200
CCCD80
CCCD80
300000
300000
CC0000
CC0000
300000
300000
CCCD98
CCCD98
333260
333260
0CCD98
0CCD98
ENDCHAR
STARTCHAR 0116
ENCODING 278
SWIDTH 694 0
DWIDTH 27 0
BBX 21 37 3 0
BITMAP
00CC00
00CC00
003000
003000
00CC00
00CC00
000000
000000
00CD98
00CD98
033260
033260
0CCD98
0CCD98
330000
330000
CC0000
CC0000
300000
FCCD80
CCCD80
333200
333200
CCCD80
CCCD80
300000
300000
CC0000
CC0000
330000
330000
0CCD98
0CCD98
033260
033260
00CD98
00CD98
ENDCHAR
STARTCHAR 0117
ENCODING 279
SWIDTH 694 0
DWIDTH 27 0
BBX 21 37 3 0
BITMAP
00CC00
00CC00
003000
003000
00CC00
00CC00
000000
000000
0CCD98
0CCD98
333260
333260
CCCD98
CCCD98
300000
300000
CC0000
CC0000
300000
FCCD80
CCCD80
333200
333200
CCCD80
CCCD80
300000
300000
CC0000
CC0000
300000
300000
CCCD98
CCCD98
333260
333260
0CCD98
0CCD98
ENDCHAR
STARTCHAR 0118
ENCODING 280
SWIDTH 694 0
DWIDTH 27 0
BBX 25 37 3 -8
BITMAP
00CD9800
00CD9800
03326000
03326000
0CCD9800
0CCD9800
33000000
33000000
CC000000
CC000000
30000000
FCCD8000
CCCD8000
33320000
33320000
CCCD8000
CCCD8000
30000000
30000000
CC000000
CC000000
33000000
33000000
0CCD9800
0CCD9800
03326000
03326000
00CD9800
00CD9800
00006000
00006000
00019980
00019980
00006600
00006600
00001980
00001980
ENDCHAR
STARTCHAR 0119
ENCODING 281
SWIDTH 694 0
DWIDTH 27 0
BBX 25 37 3 -8
BITMAP
0CCD9800
0CCD9800
33326000
33326000
CCCD9800
CCCD9800
30000000
30000000
CC000000
CC000000
30000000
FCCD8000
CCCD8000
33320000
33320000
CCCD8000
CCCD8000
30000000
30000000
CC000000
CC000000
30000000
30000000
CCCD9800
CCCD9800
33326000
33326000
0CCD9800
0CCD9800
00006000
00006000
00019980
00019980
00006600
00006600
00001980
00001980
ENDCHAR
STARTCHAR 011A
ENCODING 282
SWIDTH 694 0
DWIDTH 27 0
BBX 21 41 3 0
BITMAP
0CCD80
0CCD80
030200
030200
0CCD80
0CCD80
033200
033200
00CC00
00CC00
000000
000000
00CD98
00CD98
033260
033260
0CCD98
0CCD98
330000
330000
CC0000
CC0000
300000
FCCD80
CCCD80
333200
333200
CCCD80
CCCD80
300000
300000
CC0000
CC0000
330000
330000
0CCD98
0CCD98
033260
033260
00CD98
00CD98
ENDCHAR
STARTCHAR 011B
ENCODING 283
SWIDTH 694 0
DWIDTH 27 0
BBX 21 41 3 0
BITMAP
0CCD80
0CCD80
030200
030200
0CCD80
0CCD80
033200
033200
00CC00
00CC00
000000
000000
0CCD98
0CCD98
333260
333260
CCCD98
CCCD98
300000
300000
CC0000
CC0000
300000
FCCD80
CCCD80
333200
333200
CCCD80
CCCD80
300000
300000
CC0000
CC0000
300000
300000
CCCD98
CCCD98
333260
333260
0CCD98
0CCD98
ENDCHAR
STARTCHAR 011E
ENCODING 286
SWIDTH 797 0
DWIDTH 31 0
BBX 25 41 3 0
BITMAP
0CC19800
0CC19800
03006000
03006000
0CCD9800
0CCD9800
03326000
03326000
00CD8000
00CD8000
00000000
00000000
00CD9980
00CD9980
03326600
03326600
0CCD9980
0CCD9980
33000000
33000000
CC000000
CC000000
30000000
FC0D9980
CC0D9980
30026600
30026600
CC0D9980
CC0D9980
30000600
30000600
CC001980
CC001980
33000600
33000600
0CCD9980
0CCD9980
03326600
03326600
00CD9980
00CD9980
ENDCHAR
STARTCHAR 011F
ENCODING 287
SWIDTH 694 0
DWIDTH 27 0
BBX 21 41 3 0
BITMAP
330260
330260
0C0180
0C0180
333260
333260
0CCD80
0CCD80
033200
033200
000000
000000
0CCD98
0CCD98
333260
333260
CCCD98
CCCD98
300000
300000
CC0000
CC0000
300000
FC0D98
CC0D98
300260
300260
CC0D98
CC0D98
300060
300060
CC0198
CC0198
300060
300060
CCCD98
CCCD98
333260
333260
0CCD80
0CCD80
ENDCHAR
STARTCHAR 0120
ENCODING 288
SWIDTH 797 0
DWIDTH 31 0
BBX 25 37 3 0
BITMAP
00320000
00320000
000C0000
000C0000
00320000
00320000
00000000
00000000
00CD9980
00CD9980
03326600
03326600
0CCD9980
0CCD9980
33000000
33000000
CC000000
CC000000
30000000
FC0D9980
CC0D9980
30026600
30026600
CC0D9980
CC0D9980
30000600
30000600
CC001980
CC001980
33000600
33000600
0CCD9980
0CCD9980
03326600
03326600
00CD9980
00CD9980
ENDCHAR
STARTCHAR 0121
ENCODING 289
SWIDTH 694 0
DWIDTH 27 0
BBX 21 37 3 0
BITMAP
00CC00
00CC00
003000
003000
00CC00
00CC00
000000
000000
0CCD98
0CCD98
333260
333260
CCCD98
CCCD98
300000
300000
CC0000
CC0000
300000
FC0D98
CC0D98
300260
300260
CC0D98
CC0D98
300060
300060
CC0198
CC0198
300060
300060
CCCD98
CCCD98
333260
333260
0CCD80
0CCD80
ENDCHAR
STARTCHAR 0122
ENCODING 290
SWIDTH 797 0
DWIDTH 31 0
BBX 25 41 3 -12
BITMAP
00CD9980
00CD9980
03326600
03326600
0CCD9980
0CCD9980
33000000
33000000
CC000000
CC000000
30000000
FC0D9980
CC0D9980
30026600
30026600
CC0D9980
CC0D9980
30000600
30000600
CC001980
CC001980
33000600
33000600
0CCD9980
0CCD9980
03326600
03326600
00CD9980
00CD9980
00000000
00000000
00320000
00320000
000C0000
000C0000
00320000
00320000
000C0000
000C0000
00300000
00300000
ENDCHAR
STARTCHAR 0123
ENCODING 291
SWIDTH 694 0
DWIDTH 27 0
BBX 21 41 3 -12
BITMAP
0CCD98
0CCD98
333260
333260
CCCD98
CCCD98
300000
300000
CC0000
CC0000
300000
FC0D98
CC0D98
300260
300260
CC0D98
CC0D98
300060
300060
CC0198
CC0198
300060
300060
CCCD98
CCCD98
333260
333260
0CCD80
0CCD80
000000
000000
00CC00
00CC00
003000
003000
00CC00
00CC00
003000
003000
00C000
00C000
ENDCHAR
STARTCHAR 0126
ENCODING 294
SWIDTH 900 0
DWIDTH 35 0
BBX 33 29 1 0
BITMAP
0CC0019800
0CC0019800
0300006000
0300006000
CCCC999980
CCCC999980
3333666600
3333666600
CCCC999980
CCCC999980
0300006000
0FCC99F800
0CCC999800
0333666000
0333666000
0CCC999800
0CCC999800
0300006000
0300006000
0CC0019800
0CC0019800
0300006000
0300006000
0CC0019800
0CC0019800
0300006000
0300006000
0CC0019800
0CC0019800
ENDCHAR
STARTCHAR 0127
ENCODING 295
SWIDTH 797 0
DWIDTH 31 0
BBX 29 29 1 0
BITMAP
0CC01980
0CC01980
03000600
03000600
CCCC9998
CCCC9998
33336660
33336660
CCCC9998
CCCC9998
03000600
0FCC9F80
0CCC9980
03336600
03336600
0CCC9980
0CCC9980
03000600
03000600
0CC01980
0CC01980
03000600
03000600
0CC01980
0CC01980
03000600
03000600
0CC01980
0CC01980
ENDCHAR
STARTCHAR 0128
ENCODING 296
SWIDTH 488 0
DWIDTH 19 0
BBX 21 41 -1 0
BITMAP
0CC0D8
0CC0D8
333020
333020
CCCCD8
CCCCD8
303320
303320
CC0CC0
CC0CC0
000000
000000
0CCCC0
0CCCC0
033300
033300
0CCCC0
0CCCC0
003000
003000
00CC00
00CC00
003000
00FC00
00CC00
003000
003000
00CC00
00CC00
003000
003000
00CC00
00CC00
003000
003000
0CCCC0
0CCCC0
033300
033300
0CCCC0
0CCCC0
ENDCHAR
STARTCHAR 0129
ENCODING 297
SWIDTH 282 0
DWIDTH 11 0
BBX 22 41 -5 0
BITMAP
0CC0CC
0CC0CC
333030
333030
CCCCCC
CCCCCC
303330
303330
CC0CC0
CC0CC0
000000
000000
00CC00
00CC00
003000
003000
00CC00
00CC00
003000
003000
00CC00
00CC00
003000
00FC00
00CC00
003000
003000
00CC00
00CC00
003000
003000
00CC00
00CC00
003000
003000
00CC00
00CC00
003000
003000
00CC00
00CC00
ENDCHAR
STARTCHAR 012A
ENCODING 298
SWIDTH 488 0
DWIDTH 19 0
BBX 14 37 3 0
BITMAP
CCCC
CCCC
3330
3330
CCCC
CCCC
0000
0000
CCCC
CCCC
3330
3330
CCCC
CCCC
0300
0300
0CC0
0CC0
0300
0FC0
0CC0
0300
0300
0CC0
0CC0
0300
0300
0CC0
0CC0
0300
0300
CCCC
CCCC
3330
3330
CCCC
CCCC
ENDCHAR
STARTCHAR 012B
ENCODING 299
SWIDTH 282 0
DWIDTH 11 0
BBX 14 37 -1 0
BITMAP
CCCC
CCCC
3330
3330
CCCC
CCCC
0000
0000
0CC0
0CC0
0300
0300
0CC0
0CC0
0300
0300
0CC0
0CC0
0300
0FC0
0CC0
0300
0300
0CC0
0CC0
0300
0300
0CC0
0CC0
0300
0300
0CC0
0CC0
0300
0300
0CC0
0CC0
ENDCHAR
STARTCHAR 012E
ENCODING 302
SWIDTH 488 0
DWIDTH 19 0
BBX 17 37 3 -8
BITMAP
CCCC00
CCCC00
333000
333000
CCCC00
CCCC00
030000
030000
0CC000
0CC000
030000
0FC000
0CC000
030000
030000
0CC000
0CC000
030000
030000
0CC000
0CC000
030000
030000
CCCC00
CCCC00
333000
333000
CCCC00
CCCC00
003000
003000
00CD80
00CD80
003200
003200
000D80
000D80
ENDCHAR
STARTCHAR 012F
ENCODING 303
SWIDTH 282 0
DWIDTH 11 0
BBX 10 37 3 -8
BITMAP
CC00
CC00
3000
3000
CC00
CC00
3000
3000
CC00
CC00
3000
FC00
CC00
3000
3000
CC00
CC00
3000
3000
CC00
CC00
3000
3000
CC00
CC00
3000
3000
CC00
CC00
3000
3000
CCC0
CCC0
3300
3300
0CC0
0CC0
ENDCHAR
STARTCHAR 0130
ENCODING 304
SWIDTH 488 0
DWIDTH 19 0
BBX 14 37 3 0
BITMAP
0CC0
0CC0
0300
0300
0CC0
0CC0
0000
0000
CCCC
CCCC
3330
3330
CCCC
CCCC
0300
0300
0CC0
0CC0
0300
0FC0
0CC0
0300
0300
0CC0
0CC0
0300
0300
0CC0
0CC0
0300
0300
CCCC
CCCC
3330
3330
CCCC
CCCC
ENDCHAR
STARTCHAR 0131
ENCODING 305
SWIDTH 282 0
DWIDTH 11 0
BBX 6 29 3 0
BITMAP
CC
CC
30
30
CC
CC
30
30
CC
CC
30
FC
CC
30
30
CC
CC
30
30
CC
CC
30
30
CC
CC
30
30
CC
CC
ENDCHAR
STARTCHAR 0136
ENCODING 310
SWIDTH 694 0
DWIDTH 27 0
BBX 21 41 3 -12
BITMAP
CC0198
CC0198
300060
300060
CC0198
CC0198
300260
300260
CC0D80
CC0D80
303200
FCFE00
CCCC00
333000
333000
CCCC00
CCCC00
303200
303200
CC0D80
CC0D80
300260
300260
CC0198
CC0198
300060
300060
CC0198
CC0198
000000
000000
00CC00
00CC00
003000
003000
00CC00
00CC00
003000
003000
00C000
00C000
ENDCHAR
STARTCHAR 0137
ENCODING 311
SWIDTH 694 0
DWIDTH 27 0
BBX 21 41 3 -12
BITMAP
CC0198
CC0198
300060
300060
CC0198
CC0198
300060
300060
CC0198
CC0198
300260
FCCFE0
CCCD80
333200
333200
CCCD80
CCCD80
300260
300260
CC0198
CC0198
300060
300060
CC0198
CC0198
300060
300060
CC0198
CC0198
000000
000000
00CC00
00CC00
003000
003000
00CC00
00CC00
003000
003000
00C000
00C000
ENDCHAR
STARTCHAR 0139
ENCODING 313
SWIDTH 694 0
DWIDTH 27 0
BBX 23 41 1 0
BITMAP
00CC00
00CC00
033000
033000
0CC000
0CC000
330000
330000
CC0000
CC0000
000000
000000
330000
330000
0C0000
0C0000
330000
330000
0C0000
0C0000
330000
330000
0C0000
3F0000
330000
0C0000
0C0000
330000
330000
0C0000
0C0000
330000
330000
0C0000
0C0000
333366
333366
0CCC98
0CCC98
033366
033366
ENDCHAR
STARTCHAR 013A
ENCODING 314
SWIDTH 591 0
DWIDTH 23 0
BBX 19 41 1 0
BITMAP
00CC00
00CC00
033000
033000
0CC000
0CC000
330000
330000
CC0000
CC0000
000000
000000
330000
330000
0C0000
0C0000
330000
330000
0C0000
0C0000
330000
330000
0C0000
3F0000
330000
0C0000
0C0000
330000
330000
0C0000
0C0000
330000
330000
0C0000
0C0000
333360
333360
0CCC80
0CCC80
033360
033360
ENDCHAR
STARTCHAR 013B
ENCODING 315
SWIDTH 694 0
DWIDTH 27 0
BBX 21 41 3 -12
BITMAP
CC0000
CC0000
300000
300000
CC0000
CC0000
300000
300000
CC0000
CC0000
300000
FC0000
CC0000
300000
300000
CC0000
CC0000
300000
300000
CC0000
CC0000
300000
300000
CCCD98
CCCD98
333260
333260
0CCD98
0CCD98
000000
000000
00CC00
00CC00
003000
003000
00CC00
00CC00
003000
003000
00C000
00C000
ENDCHAR
STARTCHAR 013C
ENCODING 316
SWIDTH 591 0
DWIDTH 23 0
BBX 17 41 3 -12
BITMAP
CC0000
CC0000
300000
300000
CC0000
CC0000
300000
300000
CC0000
CC0000
300000
FC0000
CC0000
300000
300000
CC0000
CC0000
300000
300000
CC0000
CC0000
300000
300000
CCCD80
CCCD80
333200
333200
0CCD80
0CCD80
000000
000000
033000
033000
00C000
00C000
033000
033000
00C000
00C000
030000
030000
ENDCHAR
STARTCHAR 013D
ENCODING 317
SWIDTH 694 0
DWIDTH 27 0
BBX 21 29 3 0
BITMAP
CC0198
CC0198
300060
300060
CC0198
CC0198
300060
300060
CC0180
CC0180
300000
FC0000
CC0000
300000
300000
CC0000
CC0000
300000
300000
CC0000
CC0000
300000
300000
CCCD98
CCCD98
333260
333260
0CCD98
0CCD98
ENDCHAR
STARTCHAR 013E
ENCODING 318
SWIDTH 591 0
DWIDTH 23 0
BBX 17 29 3 0
BITMAP
CC0D80
CC0D80
300200
300200
CC0D80
CC0D80
300200
300200
CC0C00
CC0C00
300000
FC0000
CC0000
300000
300000
CC0000
CC0000
300000
300000
CC0000
CC0000
300000
300000
CCCD80
CCCD80
333200
333200
0CCD80
0CCD80
ENDCHAR
STARTCHAR 0141
ENCODING 321
SWIDTH 745 0
DWIDTH 29 0
BBX 25 29 1 0
BITMAP
0CC00000
0CC00000
03000000
03000000
0CC00000
0CC00000
03000000
03000000
0CCC0000
0CCC0000
03300000
CFFC0000
CCCC0000
33000000
33000000
CCC00000
CCC00000
03000000
03000000
0CC00000
0CC00000
03000000
03000000
0CCC9980
0CCC9980
03336600
03336600
00CC9980
00CC9980
ENDCHAR
STARTCHAR 0142
ENCODING 322
SWIDTH 642 0
DWIDTH 25 0
BBX 21 29 1 0
BITMAP
0CC000
0CC000
030000
030000
0CC000
0CC000
030000
030000
0CCC00
0CCC00
033000
CFFC00
CCCC00
330000
330000
CCC000
CCC000
030000
030000
0CC000
0CC000
030000
030000
0CCC98
0CCC98
033360
033360
00CC98
00CC98
ENDCHAR
STARTCHAR 0143
ENCODING 323
SWIDTH 797 0
DWIDTH 31 0
BBX 25 41 3 0
BITMAP
00019800
00019800
00026000
00026000
000D8000
000D8000
00320000
00320000
00CC0000
00CC0000
00000000
00000000
CC001980
CC001980
33000600
33000600
CCC01980
CCC01980
33300600
33300600
CCCC1980
CCCC1980
30320600
FC3F9F80
CC0D9980
30026600
30026600
CC019980
CC019980
30006600
30006600
CC001980
CC001980
30000600
30000600
CC001980
CC001980
30000600
30000600
CC001980
CC001980
ENDCHAR
STARTCHAR 0144
ENCODING 324
SWIDTH 694 0
DWIDTH 27 0
BBX 21 41 3 0
BITMAP
000260
000260
000D80
000D80
003200
003200
00CC00
00CC00
033000
033000
000000
000000
CC0198
CC0198
330060
330060
CCC198
CCC198
333060
333060
CCCD98
CCCD98
303260
FC3FF8
CC0D98
300260
300260
CC0198
CC0198
300060
300060
CC0198
CC0198
300060
300060
CC0198
CC0198
300060
300060
CC0198
CC0198
ENDCHAR
STARTCHAR 0145
ENCODING 325
SWIDTH 797 0
DWIDTH 31 0
BBX 25 41 3 -12
BITMAP
CC001980
CC001980
33000600
33000600
CCC01980
CCC01980
33300600
33300600
CCCC1980
CCCC1980
30320600
FC3F9F80
CC0D9980
30026600
30026600
CC019980
CC019980
30006600
30006600
CC001980
CC001980
30000600
30000600
CC001980
CC001980
30000600
30000600
CC001980
CC001980
00000000
00000000
00320000
00320000
000C0000
000C0000
00320000
00320000
000C0000
000C0000
00300000
00300000
ENDCHAR
STARTCHAR 0146
ENCODING 326
SWIDTH 694 0
DWIDTH 27 0
BBX 21 41 3 -12
BITMAP
CC0198
CC0198
330060
330060
CCC198
CCC198
333060
333060
CCCD98
CCCD98
303260
FC3FF8
CC0D98
300260
300260
CC0198
CC0198
300060
300060
CC0198
CC0198
300060
300060
CC0198
CC0198
300060
300060
CC0198
CC0198
000000
000000
00CC00
00CC00
003000
003000
00CC00
00CC00
003000
003000
00C000
00C000
ENDCHAR
STARTCHAR 0147
ENCODING 327
SWIDTH 797 0
DWIDTH 31 0
BBX 25 41 3 0
BITMAP
03326000
03326000
00C18000
00C18000
03326000
03326000
00CD8000
00CD8000
00320000
00320000
00000000
00000000
CC001980
CC001980
33000600
33000600
CCC01980
CCC01980
33300600
33300600
CCCC1980
CCCC1980
30320600
FC3F9F80
CC0D9980
30026600
30026600
CC019980
CC019980
30006600
30006600
CC001980
CC001980
30000600
30000600
CC001980
CC001980
30000600
30000600
CC001980
CC001980
ENDCHAR
STARTCHAR 0148
ENCODING 328
SWIDTH 694 0
DWIDTH 27 0
BBX 21 41 3 0
BITMAP
0CCD80
0CCD80
030200
030200
0CCD80
0CCD80
033200
033200
00CC00
00CC00
000000
000000
CC0198
CC0198
330060
330060
CCC198
CCC198
333060
333060
CCCD98
CCCD98
303260
FC3FF8
CC0D98
300260
300260
CC0198
CC0198
300060
300060
CC0198
CC0198
300060
300060
CC0198
CC0198
300060
300060
CC0198
CC0198
ENDCHAR
STARTCHAR 014A
ENCODING 330
SWIDTH 797 0
DWIDTH 31 0
BBX 25 37 3 -8
BITMAP
CC001980
CC001980
33000600
33000600
CCC01980
CCC01980
33300600
33300600
CCCC1980
CCCC1980
30320600
FC3F9F80
CC0D9980
30026600
30026600
CC019980
CC019980
30006600
30006600
CC001980
CC001980
30000600
30000600
CC001980
CC001980
30000600
30000600
CC001980
CC001980
00000600
00000600
00019980
00019980
00006600
00006600
00019800
00019800
ENDCHAR
STARTCHAR 014B
ENCODING 331
SWIDTH 694 0
DWIDTH 27 0
BBX 21 37 3 -8
BITMAP
CC0198
CC0198
330060
330060
CCC198
CCC198
333060
333060
CCCD98
CCCD98
303260
FC3FF8
CC0D98
300260
300260
CC0198
CC0198
300060
300060
CC0198
CC0198
300060
300060
CC0198
CC0198
300060
300060
CC0198
CC0198
000060
000060
000D98
000D98
000260
000260
000D80
000D80
ENDCHAR
STARTCHAR 014C
ENCODING 332
SWIDTH 797 0
DWIDTH 31 0
BBX 25 37 3 0
BITMAP
03326000
03326000
00CD8000
00CD8000
03326000
03326000
00000000
00000000
00CD8000
00CD8000
03326000
03326000
0CCD9800
0CCD9800
33006600
33006600
CC001980
CC001980
30000600
FC001F80
CC001980
30000600
30000600
CC001980
CC001980
30000600
30000600
CC001980
CC001980
33006600
33006600
0CCD9800
0CCD9800
03326000
03326000
00CD8000
00CD8000
ENDCHAR
STARTCHAR 014D
ENCODING 333
SWIDTH 694 0
DWIDTH 27 0
BBX 21 37 3 0
BITMAP
0CCD80
0CCD80
033200
033200
0CCD80
0CCD80
000000
000000
0CCD80
0CCD80
333260
333260
CCCD98
CCCD98
300060
300060
CC0198
CC0198
300060
FC01F8
CC0198
300060
300060
CC0198
CC0198
300060
300060
CC0198
CC0198
300060
300060
CCCD98
CCCD98
333260
333260
0CCD80
0CCD80
ENDCHAR
STARTCHAR 0150
ENCODING 336
SWIDTH 797 0
DWIDTH 31 0
BBX 27 41 3 0
BITMAP
00320660
00320660
00CC1980
00CC1980
03306600
03306600
0CC19800
0CC19800
33026000
33026000
00000000
00000000
00CD8000
00CD8000
03326000
03326000
0CCD9800
0CCD9800
33006600
33006600
CC001980
CC001980
30000600
FC001F80
CC001980
30000600
30000600
CC001980
CC001980
30000600
30000600
CC001980
CC001980
33006600
33006600
0CCD9800
0CCD9800
03326000
03326000
00CD8000
00CD8000
ENDCHAR
STARTCHAR 0151
ENCODING 337
SWIDTH 694 0
DWIDTH 27 0
BBX 25 41 3 0
BITMAP
00CC1980
00CC1980
03306600
03306600
0CC19800
0CC19800
33026000
33026000
CC0D8000
CC0D8000
00000000
00000000
0CCD8000
0CCD8000
33326000
33326000
CCCD9800
CCCD9800
30006000
30006000
CC019800
CC019800
30006000
FC01F800
CC019800
30006000
30006000
CC019800
CC019800
30006000
30006000
CC019800
CC019800
30006000
30006000
CCCD9800
CCCD9800
33326000
33326000
0CCD8000
0CCD8000
ENDCHAR
STARTCHAR 0152
ENCODING 338
SWIDTH 1182 0
DWIDTH 46 0
BBX 41 29 3 0
BITMAP
00CD80199980
00CD80199980
033260666600
033260666600
0CCD99999980
0CCD99999980
330066600000
330066600000
CC0019800000
CC0019800000
300006000000
FC001F999800
CC0019999800
300006666000
300006666000
CC0019999800
CC0019999800
300006000000
300006000000
CC0019800000
CC0019800000
330066600000
330066600000
0CCD99999980
0CCD99999980
033260666600
033260666600
00CD80199980
00CD80199980
ENDCHAR
STARTCHAR 0153
ENCODING 339
SWIDTH 1080 0
DWIDTH 42 0
BBX 37 29 3 0
BITMAP
0CCD999998
0CCD999998
3332666660
3332666660
CCCD999998
CCCD999998
3000600000
3000600000
CC01980000
CC01980000
3000600000
FC01F99980
CC01999980
3000666600
3000666600
CC01999980
CC01999980
3000600000
3000600000
CC01980000
CC01980000
3000600000
3000600000
CCCD999998
CCCD999998
3332666660
3332666660
0CCD999998
0CCD999998
ENDCHAR
STARTCHAR 0154
ENCODING 340
SWIDTH 694 0
DWIDTH 27 0
BBX 21 41 3 0
BITMAP
000260
000260
000D80
000D80
003200
003200
00CC00
00CC00
033000
033000
000000
000000
CCCC00
CCCC00
333200
333200
CCCD80
CCCD80
300260
300260
CC0198
CC0198
300060
FC01F8
CC0198
300060
300060
CC0198
CC0198
300260
300260
CCCD80
CCCD80
333200
333200
CCCD80
CCCD80
300260
300260
CC0198
CC0198
ENDCHAR
STARTCHAR 0155
ENCODING 341
SWIDTH 694 0
DWIDTH 27 0
BBX 21 41 3 0
BITMAP
000260
000260
000D80
000D80
003200
003200
00CC00
00CC00
033000
033000
000000
000000
CCCD80
CCCD80
333260
333260
CCCD98
CCCD98
300060
300060
CC0198
CC0198
300060
FC01F8
CC0198
300060
300060
CCCD98
CCCD98
333260
333260
CCCD80
CCCD80
300260
300260
CC0198
CC0198
300060
300060
CC0198
CC0198
ENDCHAR
STARTCHAR 0156
ENCODING 342
SWIDTH 694 0
DWIDTH 27 0
BBX 21 41 3 -12
BITMAP
CCCC00
CCCC00
333200
333200
CCCD80
CCCD80
300260
300260
CC0198
CC0198
300060
FC01F8
CC0198
300060
300060
CC0198
CC0198
300260
300260
CCCD80
CCCD80
333200
333200
CCCD80
CCCD80
300260
300260
CC0198
CC0198
000000
000000
00CC00
00CC00
003000
003000
00CC00
00CC00
003000
003000
00C000
00C000
ENDCHAR
STARTCHAR 0157
ENCODING 343
SWIDTH 694 0
DWIDTH 27 0
BBX 21 41 3 -12
BITMAP
CCCD80
CCCD80
333260
333260
CCCD98
CCCD98
300060
300060
CC0198
CC0198
300060
FC01F8
CC0198
300060
300060
CCCD98
CCCD98
333260
333260
CCCD80
CCCD80
300260
300260
CC0198
CC0198
300060
300060
CC0198
CC0198
000000
000000
00CC00
00CC00
003000
003000
00CC00
00CC00
003000
003000
00C000
00C000
ENDCHAR
STARTCHAR 0158
ENCODING 344
SWIDTH 694 0
DWIDTH 27 0
BBX 21 41 3 0
BITMAP
0CCD80
0CCD80
030200
030200
0CCD80
0CCD80
033200
033200
00CC00
00CC00
000000
000000
CCCC00
CCCC00
333200
333200
CCCD80
CCCD80
300260
300260
CC0198
CC0198
300060
FC01F8
CC0198
300060
300060
CC0198
CC0198
300260
300260
CCCD80
CCCD80
333200
333200
CCCD80
CCCD80
300260
300260
CC0198
CC0198
ENDCHAR
STARTCHAR 0159
ENCODING 345
SWIDTH 694 0
DWIDTH 27 0
BBX 21 41 3 0
BITMAP
0CCD80
0CCD80
030200
030200
0CCD80
0CCD80
033200
033200
00CC00
00CC00
000000
000000
CCCD80
CCCD80
333260
333260
CCCD98
CCCD98
300060
300060
CC0198
CC0198
300060
FC01F8
CC0198
300060
300060
CCCD98
CCCD98
333260
333260
CCCD80
CCCD80
300260
300260
CC0198
CC0198
300060
300060
CC0198
CC0198
ENDCHAR
STARTCHAR 015A
ENCODING 346
SWIDTH 694 0
DWIDTH 27 0
BBX 21 41 3 0
BITMAP
000260
000260
000D80
000D80
003200
003200
00CC00
00CC00
033000
033000
000000
000000
0CCD80
0CCD80
333260
333260
CCCD98
CCCD98
300060
300060
CC0198
CC0198
300000
FCCD80
CCCD80
333260
333260
0CCD98
0CCD98
000060
000060
CC0198
CC0198
300060
300060
CCCD98
CCCD98
333260
333260
0CCD80
0CCD80
ENDCHAR
STARTCHAR 015B
ENCODING 347
SWIDTH 694 0
DWIDTH 27 0
BBX 21 41 3 0
BITMAP
000260
000260
000D80
000D80
003200
003200
00CC00
00CC00
033000
033000
000000
000000
0CCD80
0CCD80
333260
333260
CCCD98
CCCD98
300060
300060
CC0198
CC0198
300000
FCCD80
CCCD80
333260
333260
0CCD98
0CCD98
000060
000060
CC0198
CC0198
300060
300060
CCCD98
CCCD98
333260
333260
0CCD80
0CCD80
ENDCHAR
STARTCHAR 015E
ENCODING 350
SWIDTH 694 0
DWIDTH 27 0
BBX 21 37 3 -8
BITMAP
0CCD80
0CCD80
333260
333260
CCCD98
CCCD98
300060
300060
CC0198
CC0198
300000
FCCD80
CCCD80
333260
333260
0CCD98
0CCD98
000060
000060
CC0198
CC0198
300060
300060
CCCD98
CCCD98
333260
333260
0CCD80
0CCD80
003000
003000
0CCC00
0CCC00
033000
033000
0CC000
0CC000
ENDCHAR
STARTCHAR 015F
ENCODING 351
SWIDTH 694 0
DWIDTH 27 0
BBX 21 37 3 -8
BITMAP
0CCD80
0CCD80
333260
333260
CCCD98
CCCD98
300060
300060
CC0198
CC0198
300000
FCCD80
CCCD80
333260
333260
0CCD98
0CCD98
000060
000060
CC0198
CC0198
300060
300060
CCCD98
CCCD98
333260
333260
0CCD80
0CCD80
003000
003000
0CCC00
0CCC00
033000
033000
0CC000
0CC000
ENDCHAR
STARTCHAR 0160
ENCODING 352
SWIDTH 694 0
DWIDTH 27 0
BBX 21 41 3 0
BITMAP
0CCD80
0CCD80
030200
030200
0CCD80
0CCD80
033200
033200
00CC00
00CC00
000000
000000
0CCD80
0CCD80
333260
333260
CCCD98
CCCD98
300060
300060
CC0198
CC0198
300000
FCCD80
CCCD80
333260
333260
0CCD98
0CCD98
000060
000060
CC0198
CC0198
300060
300060
CCCD98
CCCD98
333260
333260
0CCD80
0CCD80
ENDCHAR
STARTCHAR 0161
ENCODING 353
SWIDTH 694 0
DWIDTH 27 0
BBX 21 41 3 0
BITMAP
0CCD80
0CCD80
030200
030200
0CCD80
0CCD80
033200
033200
00CC00
00CC00
000000
000000
0CCD80
0CCD80
333260
333260
CCCD98
CCCD98
300060
300060
CC0198
CC0198
300000
FCCD80
CCCD80
333260
333260
0CCD98
0CCD98
000060
000060
CC0198
CC0198
300060
300060
CCCD98
CCCD98
333260
333260
0CCD80
0CCD80
ENDCHAR
STARTCHAR 0162
ENCODING 354
SWIDTH 694 0
DWIDTH 27 0
BBX 21 37 3 -8
BITMAP
CCCD98
CCCD98
333260
333260
CCCD98
CCCD98
003000
003000
00CC00
00CC00
003000
00FC00
00CC00
003000
003000
00CC00
00CC00
003000
003000
00CC00
00CC00
003000
003000
00CC00
00CC00
003000
003000
00CC00
00CC00
003000
003000
0CCC00
0CCC00
033000
033000
0CC000
0CC000
ENDCHAR
STARTCHAR 0163
ENCODING 355
SWIDTH 694 0
DWIDTH 27 0
BBX 21 37 3 -8
BITMAP
CCCD98
CCCD98
333260
333260
CCCD98
CCCD98
003000
003000
00CC00
00CC00
003000
00FC00
00CC00
003000
003000
00CC00
00CC00
003000
003000
00CC00
00CC00
003000
003000
00CC00
00CC00
003000
003000
00CC00
00CC00
003000
003000
0CCC00
0CCC00
033000
033000
0CC000
0CC000
ENDCHAR
STARTCHAR 0164
ENCODING 356
SWIDTH 694 0
DWIDTH 27 0
BBX 21 41 3 0
BITMAP
0CCD80
0CCD80
030200
030200
0CCD80
0CCD80
033200
033200
00CC00
00CC00
000000
000000
CCCD98
CCCD98
333260
333260
CCCD98
CCCD98
003000
003000
00CC00
00CC00
003000
00FC00
00CC00
003000
003000
00CC00
00CC00
003000
003000
00CC00
00CC00
003000
003000
00CC00
00CC00
003000
003000
00CC00
00CC00
ENDCHAR
STARTCHAR 0165
ENCODING 357
SWIDTH 694 0
DWIDTH 27 0
BBX 21 41 3 0
BITMAP
0CCD80
0CCD80
030200
030200
0CCD80
0CCD80
033200
033200
00CC00
00CC00
000000
000000
CCCD98
CCCD98
333260
333260
CCCD98
CCCD98
003000
003000
00CC00
00CC00
003000
00FC00
00CC00
003000
003000
00CC00
00CC00
003000
003000
00CC00
00CC00
003000
003000
00CC00
00CC00
003000
003000
00CC00
00CC00
ENDCHAR
STARTCHAR 0166
ENCODING 358
SWIDTH 694 0
DWIDTH 27 0
BBX 21 29 3 0
BITMAP
CCCD98
CCCD98
333260
333260
CCCD98
CCCD98
003000
003000
00CC00
00CC00
003000
0CFD80
0CCD80
033200
033200
0CCD80
0CCD80
003000
003000
00CC00
00CC00
003000
003000
00CC00
00CC00
003000
003000
00CC00
00CC00
ENDCHAR
STARTCHAR 0167
ENCODING 359
SWIDTH 694 0
DWIDTH 27 0
BBX 21 29 3 0
BITMAP
CCCD98
CCCD98
333260
333260
CCCD98
CCCD98
003000
003000
00CC00
00CC00
003000
0CFD80
0CCD80
033200
033200
0CCD80
0CCD80
003000
003000
00CC00
00CC00
003000
003000
00CC00
00CC00
003000
003000
00CC00
00CC00
ENDCHAR
STARTCHAR 0168
ENCODING 360
SWIDTH 797 0
DWIDTH 31 0
BBX 25 41 3 0
BITMAP
03306600
03306600
0CCC1800
0CCC1800
33326600
33326600
0C0D9800
0C0D9800
33026000
33026000
00000000
00000000
CC001980
CC001980
30000600
30000600
CC001980
CC001980
30000600
30000600
CC001980
CC001980
30000600
FC001F80
CC001980
30000600
30000600
CC001980
CC001980
30000600
30000600
CC001980
CC001980
33006600
33006600
0CCD9800
0CCD9800
03326000
03326000
00CD8000
00CD8000
ENDCHAR
STARTCHAR 0169
ENCODING 361
SWIDTH 694 0
DWIDTH 27 0
BBX 21 41 3 0
BITMAP
0CC198
0CC198
333060
333060
CCCD98
CCCD98
303260
303260
CC0D80
CC0D80
000000
000000
CC0198
CC0198
300060
300060
CC0198
CC0198
300060
300060
CC0198
CC0198
300060
FC01F8
CC0198
300060
300060
CC0198
CC0198
300060
300060
CC0198
CC0198
300060
300060
CCCD98
CCCD98
333260
333260
0CCD80
0CCD80
ENDCHAR
STARTCHAR 016A
ENCODING 362
SWIDTH 797 0
DWIDTH 31 0
BBX 25 37 3 0
BITMAP
03326000
03326000
00CD8000
00CD8000
03326000
03326000
00000000
00000000
CC001980
CC001980
30000600
30000600
CC001980
CC001980
30000600
30000600
CC001980
CC001980
30000600
FC001F80
CC001980
30000600
30000600
CC001980
CC001980
30000600
30000600
CC001980
CC001980
33006600
33006600
0CCD9800
0CCD9800
03326000
03326000
00CD8000
00CD8000
ENDCHAR
STARTCHAR 016B
ENCODING 363
SWIDTH 694 0
DWIDTH 27 0
BBX 21 37 3 0
BITMAP
0CCD80
0CCD80
033200
033200
0CCD80
0CCD80
000000
000000
CC0198
CC0198
300060
300060
CC0198
CC0198
300060
300060
CC0198
CC0198
300060
FC01F8
CC0198
300060
300060
CC0198
CC0198
300060
300060
CC0198
CC0198
300060
300060
CCCD98
CCCD98
333260
333260
0CCD80
0CCD80
ENDCHAR
STARTCHAR 016E
ENCODING 366
SWIDTH 797 0
DWIDTH 31 0
BBX 25 49 3 0
BITMAP
00CD8000
00CD8000
03326000
03326000
0CCD9800
0CCD9800
03006000
03006000
0CC19800
0CC19800
03006000
03006000
0CCD9800
0CCD9800
03326000
03326000
00CD8000
00CD8000
00000000
00000000
CC001980
CC001980
30000600
30000600
CC001980
CC001980
30000600
30000600
CC001980
CC001980
30000600
FC001F80
CC001980
30000600
30000600
CC001980
CC001980
30000600
30000600
CC001980
CC001980
33006600
33006600
0CCD9800
0CCD9800
03326000
03326000
00CD8000
00CD8000
ENDCHAR
STARTCHAR 016F
ENCODING 367
SWIDTH 694 0
DWIDTH 27 0
BBX 21 49 3 0
BITMAP
033200
033200
0CCD80
0CCD80
333260
333260
0C0180
0C0180
330260
330260
0C0180
0C0180
333260
333260
0CCD80
0CCD80
033200
033200
000000
000000
CC0198
CC0198
300060
300060
CC0198
CC0198
300060
300060
CC0198
CC0198
300060
FC01F8
CC0198
300060
300060
CC0198
CC0198
300060
300060
CC0198
CC0198
300060
300060
CCCD98
CCCD98
333260
333260
0CCD80
0CCD80
ENDCHAR
STARTCHAR 0170
ENCODING 368
SWIDTH 797 0
DWIDTH 31 0
BBX 27 41 3 0
BITMAP
00320660
00320660
00CC1980
00CC1980
03306600
03306600
0CC19800
0CC19800
33026000
33026000
00000000
00000000
CC001980
CC001980
30000600
30000600
CC001980
CC001980
30000600
30000600
CC001980
CC001980
30000600
FC001F80
CC001980
30000600
30000600
CC001980
CC001980
30000600
30000600
CC001980
CC001980
33006600
33006600
0CCD9800
0CCD9800
03326000
03326000
00CD8000
00CD8000
ENDCHAR
STARTCHAR 0171
ENCODING 369
SWIDTH 694 0
DWIDTH 27 0
BBX 25 41 3 0
BITMAP
00CC1980
00CC1980
03306600
03306600
0CC19800
0CC19800
33026000
33026000
CC0D8000
CC0D8000
00000000
00000000
CC019800
CC019800
30006000
30006000
CC019800
CC019800
30006000
30006000
CC019800
CC019800
30006000
FC01F800
CC019800
30006000
30006000
CC019800
CC019800
30006000
30006000
CC019800
CC019800
30006000
30006000
CCCD9800
CCCD9800
33326000
33326000
0CCD8000
0CCD8000
ENDCHAR
STARTCHAR 0172
ENCODING 370
SWIDTH 797 0
DWIDTH 31 0
BBX 25 37 3 -8
BITMAP
CC001980
CC001980
30000600
30000600
CC001980
CC001980
30000600
30000600
CC001980
CC001980
30000600
FC001F80
CC001980
30000600
30000600
CC001980
CC001980
30000600
30000600
CC001980
CC001980
33006600
33006600
0CCD9800
0CCD9800
03326000
03326000
00CD8000
00CD8000
00020000
00020000
000D9800
000D9800
00026000
00026000
00019800
00019800
ENDCHAR
STARTCHAR 0173
ENCODING 371
SWIDTH 694 0
DWIDTH 27 0
BBX 21 37 3 -8
BITMAP
CC0198
CC0198
300060
300060
CC0198
CC0198
300060
300060
CC0198
CC0198
300060
FC01F8
CC0198
300060
300060
CC0198
CC0198
300060
300060
CC0198
CC0198
300060
300060
CCCD98
CCCD98
333260
333260
0CCD80
0CCD80
000200
000200
000D98
000D98
000260
000260
000198
000198
ENDCHAR
STARTCHAR 0174
ENCODING 372
SWIDTH 1080 0
DWIDTH 42 0
BBX 37 41 3 0
BITMAP
0001980000
0001980000
0002660000
0002660000
000D998000
000D998000
0002060000
0002060000
000D998000
000D998000
0000000000
0000000000
CC01980198
CC01980198
3000600060
3000600060
CC01980198
CC01980198
3000600060
3000600060
CC01980198
CC01980198
3000600060
FC01F801F8
CC01980198
3000600060
3000600060
CC01980198
CC01980198
3000600060
3000600060
CC01980198
CC01980198
3302660660
3302660660
0CCD999980
0CCD999980
0332066600
0332066600
00CC019800
00CC019800
ENDCHAR
STARTCHAR 0175
ENCODING 373
SWIDTH 1080 0
DWIDTH 42 0
BBX 37 41 3 0
BITMAP
0001980000
0001980000
0002660000
0002660000
000D998000
000D998000
0002060000
0002060000
000D998000
000D998000
0000000000
0000000000
CC01980198
CC01980198
3000600060
3000600060
CC01980198
CC01980198
3000600060
3000600060
CC01980198
CC01980198
3000600060
FC01F801F8
CC01980198
3000600060
3000600060
CC01980198
CC01980198
3000600060
3000600060
CC01980198
CC01980198
3002660060
3002660060
CCCD999998
CCCD999998
3332066660
3332066660
0CCC019980
0CCC019980
ENDCHAR
STARTCHAR 0176
ENCODING 374
SWIDTH 694 0
DWIDTH 27 0
BBX 21 41 3 0
BITMAP
00CC00
00CC00
033200
033200
0CCD80
0CCD80
030200
030200
0CCD80
0CCD80
000000
000000
CC0198
CC0198
300060
300060
CC0198
CC0198
300060
300060
CC0198
CC0198
300060
FC01F8
CC0198
330260
330260
0CCD80
0CCD80
033200
033200
00CC00
00CC00
003000
003000
00CC00
00CC00
003000
003000
00CC00
00CC00
ENDCHAR
STARTCHAR 0177
ENCODING 375
SWIDTH 694 0
DWIDTH 27 0
BBX 21 41 3 0
BITMAP
00CC00
00CC00
033200
033200
0CCD80
0CCD80
030200
030200
0CCD80
0CCD80
000000
000000
CC0198
CC0198
300060
300060
CC0198
CC0198
300060
300060
CC0198
CC0198
300060
FC01F8
CC0198
300060
300060
CCCD98
CCCD98
333260
333260
0CCD80
0CCD80
003000
003000
00CC00
00CC00
003000
003000
00CC00
00CC00
ENDCHAR
STARTCHAR 0178
ENCODING 376
SWIDTH 694 0
DWIDTH 27 0
BBX 21 37 3 0
BITMAP
0CCD80
0CCD80
030200
030200
0CCD80
0CCD80
000000
000000
CC0198
CC0198
300060
300060
CC0198
CC0198
300060
300060
CC0198
CC0198
300060
FC01F8
CC0198
330260
330260
0CCD80
0CCD80
033200
033200
00CC00
00CC00
003000
003000
00CC00
00CC00
003000
003000
00CC00
00CC00
ENDCHAR
STARTCHAR 0179
ENCODING 377
SWIDTH 694 0
DWIDTH 27 0
BBX 21 41 3 0
BITMAP
000260
000260
000D80
000D80
003200
003200
00CC00
00CC00
033000
033000
000000
000000
CCCD98
CCCD98
333260
333260
CCCD98
CCCD98
000260
000260
000D80
000D80
003200
00FE00
00CC00
033000
033000
0CC000
0CC000
330000
330000
CC0000
CC0000
300000
300000
CCCD98
CCCD98
333260
333260
CCCD98
CCCD98
ENDCHAR
STARTCHAR 017A
ENCODING 378
SWIDTH 694 0
DWIDTH 27 0
BBX 21 41 3 0
BITMAP
000260
000260
000D80
000D80
003200
003200
00CC00
00CC00
033000
033000
000000
000000
CCCD98
CCCD98
333260
333260
CCCD98
CCCD98
000060
000060
000198
000198
000060
0CCDF8
0CCD98
333260
333260
CCCD80
CCCD80
300000
300000
CC0000
CC0000
300000
300000
CCCD98
CCCD98
333260
333260
CCCD98
CCCD98
ENDCHAR
STARTCHAR 017B
ENCODING 379
SWIDTH 694 0
DWIDTH 27 0
BBX 21 37 3 0
BITMAP
00CC00
00CC00
003000
003000
00CC00
00CC00
000000
000000
CCCD98
CCCD98
333260
333260
CCCD98
CCCD98
000260
000260
000D80
000D80
003200
00FE00
00CC00
033000
033000
0CC000
0CC000
330000
330000
CC0000
CC0000
300000
300000
CCCD98
CCCD98
333260
333260
CCCD98
CCCD98
ENDCHAR
STARTCHAR 017C
ENCODING 380
SWIDTH 694 0
DWIDTH 27 0
BBX 21 37 3 0
BITMAP
00CC00
00CC00
003000
003000
00CC00
00CC00
000000
000000
CCCD98
CCCD98
333260
333260
CCCD98
CCCD98
000060
000060
000198
000198
000060
0CCDF8
0CCD98
333260
333260
CCCD80
CCCD80
300000
300000
CC0000
CC0000
300000
300000
CCCD98
CCCD98
333260
333260
CCCD98
CCCD98
ENDCHAR
STARTCHAR 017D
ENCODING 381
SWIDTH 694 0
DWIDTH 27 0
BBX 21 41 3 0
BITMAP
0CCD80
0CCD80
030200
030200
0CCD80
0CCD80
033200
033200
00CC00
00CC00
000000
000000
CCCD98
CCCD98
333260
333260
CCCD98
CCCD98
000260
000260
000D80
000D80
003200
00FE00
00CC00
033000
033000
0CC000
0CC000
330000
330000
CC0000
CC0000
300000
300000
CCCD98
CCCD98
333260
333260
CCCD98
CCCD98
ENDCHAR
STARTCHAR 017E
ENCODING 382
SWIDTH 694 0
DWIDTH 27 0
BBX 21 41 3 0
BITMAP
0CCD80
0CCD80
030200
030200
0CCD80
0CCD80
033200
033200
00CC00
00CC00
000000
000000
CCCD98
CCCD98
333260
333260
CCCD98
CCCD98
000060
000060
000198
000198
000060
0CCDF8
0CCD98
333260
333260
CCCD80
CCCD80
300000
300000
CC0000
CC0000
300000
300000
CCCD98
CCCD98
333260
333260
CCCD98
CCCD98
ENDCHAR
STARTCHAR 0192
ENCODING 402
SWIDTH 694 0
DWIDTH 27 0
BBX 21 37 3 -8
BITMAP
000D98
000D98
003260
003260
00CD98
00CD98
003000
003000
00CC00
00CC00
003000
0CFD80
0CCD80
033200
033200
0CCD80
0CCD80
003000
003000
00CC00
00CC00
003000
003000
00CC00
00CC00
003000
003000
00CC00
00CC00
003000
003000
CCCC00
CCCC00
333000
333000
CCC000
CCC000
ENDCHAR
STARTCHAR 01A0
ENCODING 416
SWIDTH 925 0
DWIDTH 36 0
BBX 33 33 3 0
BITMAP
0000001980
0000001980
0000000600
0000000600
0CCD999980
0CCD999980
3332666600
3332666600
CCCD999800
CCCD999800
3000060000
3000060000
CC00198000
CC00198000
3000060000
FC001F8000
CC00198000
3000060000
3000060000
CC00198000
CC00198000
3000060000
3000060000
CC00198000
CC00198000
3000060000
3000060000
CCCD998000
CCCD998000
3332660000
3332660000
0CCD980000
0CCD980000
ENDCHAR
STARTCHAR 01A1
ENCODING 417
SWIDTH 848 0
DWIDTH 33 0
BBX 29 33 3 0
BITMAP
00000198
00000198
00000060
00000060
0CCD9998
0CCD9998
33326660
33326660
CCCD9980
CCCD9980
30006000
30006000
CC019800
CC019800
30006000
FC01F800
CC019800
30006000
30006000
CC019800
CC019800
30006000
30006000
CC019800
CC019800
30006000
30006000
CCCD9800
CCCD9800
33326000
33326000
0CCD8000
0CCD8000
ENDCHAR
STARTCHAR 01AF
ENCODING 431
SWIDTH 925 0
DWIDTH 36 0
BBX 33 33 3 0
BITMAP
0000001980
0000001980
0000000600
0000000600
CC00199980
CC00199980
3000066600
3000066600
CC00199800
CC00199800
3000060000
3000060000
CC00198000
CC00198000
3000060000
FC001F8000
CC00198000
3000060000
3000060000
CC00198000
CC00198000
3000060000
3000060000
CC00198000
CC00198000
3300660000
3300660000
0CCD980000
0CCD980000
0332600000
0332600000
00CD800000
00CD800000
ENDCHAR
STARTCHAR 01B0
ENCODING 432
SWIDTH 848 0
DWIDTH 33 0
BBX 29 33 3 0
BITMAP
00000198
00000198
00000060
00000060
CC019998
CC019998
30006660
30006660
CC019980
CC019980
30006000
30006000
CC019800
CC019800
30006000
FC01F800
CC019800
30006000
30006000
CC019800
CC019800
30006000
30006000
CC019800
CC019800
30006000
30006000
CCCD9800
CCCD9800
33326000
33326000
0CCD8000
0CCD8000
ENDCHAR
STARTCHAR 01CD
ENCODING 461
SWIDTH 694 0
DWIDTH 27 0
BBX 21 41 3 0
BITMAP
0CCD80
0CCD80
030200
030200
0CCD80
0CCD80
033200
033200
00CC00
00CC00
000000
000000
00CC00
00CC00
033200
033200
0CCD80
0CCD80
330260
330260
CC0198
CC0198
300060
FC01F8
CC0198
300060
300060
CCCD98
CCCD98
333260
333260
CCCD98
CCCD98
300060
300060
CC0198
CC0198
300060
300060
CC0198
CC0198
ENDCHAR
STARTCHAR 01CE
ENCODING 462
SWIDTH 694 0
DWIDTH 27 0
BBX 21 41 3 0
BITMAP
0CCD80
0CCD80
030200
030200
0CCD80
0CCD80
033200
033200
00CC00
00CC00
000000
000000
0CCD80
0CCD80
333260
333260
CCCD98
CCCD98
300060
300060
CC0198
CC0198
300060
FC01F8
CC0198
300060
300060
CCCD98
CCCD98
333260
333260
CCCD98
CCCD98
300060
300060
CC0198
CC0198
300060
300060
CC0198
CC0198
ENDCHAR
STARTCHAR 01CF
ENCODING 463
SWIDTH 488 0
DWIDTH 19 0
BBX 14 41 3 0
BITMAP
CCCC
CCCC
3030
3030
CCCC
CCCC
3330
3330
0CC0
0CC0
0000
0000
CCCC
CCCC
3330
3330
CCCC
CCCC
0300
0300
0CC0
0CC0
0300
0FC0
0CC0
0300
0300
0CC0
0CC0
0300
0300
0CC0
0CC0
0300
0300
CCCC
CCCC
3330
3330
CCCC
CCCC
ENDCHAR
STARTCHAR 01D0
ENCODING 464
SWIDTH 282 0
DWIDTH 11 0
BBX 14 41 -1 0
BITMAP
CCCC
CCCC
3030
3030
CCCC
CCCC
3330
3330
0CC0
0CC0
0000
0000
0CC0
0CC0
0300
0300
0CC0
0CC0
0300
0300
0CC0
0CC0
0300
0FC0
0CC0
0300
0300
0CC0
0CC0
0300
0300
0CC0
0CC0
0300
0300
0CC0
0CC0
0300
0300
0CC0
0CC0
ENDCHAR
STARTCHAR 01D1
ENCODING 465
SWIDTH 797 0
DWIDTH 31 0
BBX 25 41 3 0
BITMAP
03326000
03326000
00C18000
00C18000
03326000
03326000
00CD8000
00CD8000
00320000
00320000
00000000
00000000
00CD8000
00CD8000
03326000
03326000
0CCD9800
0CCD9800
33006600
33006600
CC001980
CC001980
30000600
FC001F80
CC001980
30000600
30000600
CC001980
CC001980
30000600
30000600
CC001980
CC001980
33006600
33006600
0CCD9800
0CCD9800
03326000
03326000
00CD8000
00CD8000
ENDCHAR
STARTCHAR 01D2
ENCODING 466
SWIDTH 694 0
DWIDTH 27 0
BBX 21 41 3 0
BITMAP
0CCD80
0CCD80
030200
030200
0CCD80
0CCD80
033200
033200
00CC00
00CC00
000000
000000
0CCD80
0CCD80
333260
333260
CCCD98
CCCD98
300060
300060
CC0198
CC0198
300060
FC01F8
CC0198
300060
300060
CC0198
CC0198
300060
300060
CC0198
CC0198
300060
300060
CCCD98
CCCD98
333260
333260
0CCD80
0CCD80
ENDCHAR
STARTCHAR 01D3
ENCODING 467
SWIDTH 797 0
DWIDTH 31 0
BBX 25 41 3 0
BITMAP
03326000
03326000
00C18000
00C18000
03326000
03326000
00CD8000
00CD8000
00320000
00320000
00000000
00000000
CC001980
CC001980
30000600
30000600
CC001980
CC001980
30000600
30000600
CC001980
CC001980
30000600
FC001F80
CC001980
30000600
30000600
CC001980
CC001980
30000600
30000600
CC001980
CC001980
33006600
33006600
0CCD9800
0CCD9800
03326000
03326000
00CD8000
00CD8000
ENDCHAR
STARTCHAR 01D4
ENCODING 468
SWIDTH 694 0
DWIDTH 27 0
BBX 21 41 3 0
BITMAP
0CCD80
0CCD80
030200
030200
0CCD80
0CCD80
033200
033200
00CC00
00CC00
000000
000000
CC0198
CC0198
300060
300060
CC0198
CC0198
300060
300060
CC0198
CC0198
300060
FC01F8
CC0198
300060
300060
CC0198
CC0198
300060
300060
CC0198
CC0198
300060
300060
CCCD98
CCCD98
333260
333260
0CCD80
0CCD80
ENDCHAR
STARTCHAR 01D5
ENCODING 469
SWIDTH 797 0
DWIDTH 31 0
BBX 25 45 3 0
BITMAP
03326000
03326000
00CD8000
00CD8000
03326000
03326000
00000000
00000000
03326000
03326000
00C18000
00C18000
03326000
03326000
00000000
00000000
CC001980
CC001980
30000600
30000600
CC001980
CC001980
30000600
30000600
CC001980
CC001980
30000600
FC001F80
CC001980
30000600
30000600
CC001980
CC001980
30000600
30000600
CC001980
CC001980
33006600
33006600
0CCD9800
0CCD9800
03326000
03326000
00CD8000
00CD8000
ENDCHAR
STARTCHAR 01D6
ENCODING 470
SWIDTH 694 0
DWIDTH 27 0
BBX 21 45 3 0
BITMAP
0CCD80
0CCD80
033200
033200
0CCD80
0CCD80
000000
000000
0CCD80
0CCD80
030200
030200
0CCD80
0CCD80
000000
000000
CC0198
CC0198
300060
300060
CC0198
CC0198
300060
300060
CC0198
CC0198
300060
FC01F8
CC0198
300060
300060
CC0198
CC0198
300060
300060
CC0198
CC0198
300060
300060
CCCD98
CCCD98
333260
333260
0CCD80
0CCD80
ENDCHAR
STARTCHAR 01D7
ENCODING 471
SWIDTH 797 0
DWIDTH 31 0
BBX 25 49 3 0
BITMAP
00019800
00019800
00026000
00026000
000D8000
000D8000
00320000
00320000
00CC0000
00CC0000
00000000
00000000
03326000
03326000
00C18000
00C18000
03326000
03326000
00000000
00000000
CC001980
CC001980
30000600
30000600
CC001980
CC001980
30000600
30000600
CC001980
CC001980
30000600
FC001F80
CC001980
30000600
30000600
CC001980
CC001980
30000600
30000600
CC001980
CC001980
33006600
33006600
0CCD9800
0CCD9800
03326000
03326000
00CD8000
00CD8000
ENDCHAR
STARTCHAR 01D8
ENCODING 472
SWIDTH 694 0
DWIDTH 27 0
BBX 21 49 3 0
BITMAP
000260
000260
000D80
000D80
003200
003200
00CC00
00CC00
033000
033000
000000
000000
0CCD80
0CCD80
030200
030200
0CCD80
0CCD80
000000
000000
CC0198
CC0198
300060
300060
CC0198
CC0198
300060
300060
CC0198
CC0198
300060
FC01F8
CC0198
300060
300060
CC0198
CC0198
300060
300060
CC0198
CC0198
300060
300060
CCCD98
CCCD98
333260
333260
0CCD80
0CCD80
ENDCHAR
STARTCHAR 01D9
ENCODING 473
SWIDTH 797 0
DWIDTH 31 0
BBX 25 49 3 0
BITMAP
03326000
03326000
00C18000
00C18000
03326000
03326000
00CD8000
00CD8000
00320000
00320000
00000000
00000000
03326000
03326000
00C18000
00C18000
03326000
03326000
00000000
00000000
CC001980
CC001980
30000600
30000600
CC001980
CC001980
30000600
30000600
CC001980
CC001980
30000600
FC001F80
CC001980
30000600
30000600
CC001980
CC001980
30000600
30000600
CC001980
CC001980
33006600
33006600
0CCD9800
0CCD9800
03326000
03326000
00CD8000
00CD8000
ENDCHAR
STARTCHAR 01DA
ENCODING 474
SWIDTH 694 0
DWIDTH 27 0
BBX 21 49 3 0
BITMAP
0CCD80
0CCD80
030200
030200
0CCD80
0CCD80
033200
033200
00CC00
00CC00
000000
000000
0CCD80
0CCD80
030200
030200
0CCD80
0CCD80
000000
000000
CC0198
CC0198
300060
300060
CC0198
CC0198
300060
300060
CC0198
CC0198
300060
FC01F8
CC0198
300060
300060
CC0198
CC0198
300060
300060
CC0198
CC0198
300060
300060
CCCD98
CCCD98
333260
333260
0CCD80
0CCD80
ENDCHAR
STARTCHAR 01DB
ENCODING 475
SWIDTH 797 0
DWIDTH 31 0
BBX 25 49 3 0
BITMAP
33000000
33000000
0CC00000
0CC00000
03300000
03300000
00CC0000
00CC0000
00320000
00320000
00000000
00000000
03326000
03326000
00C18000
00C18000
03326000
03326000
00000000
00000000
CC001980
CC001980
30000600
30000600
CC001980
CC001980
30000600
30000600
CC001980
CC001980
30000600
FC001F80
CC001980
30000600
30000600
CC001980
CC001980
30000600
30000600
CC001980
CC001980
33006600
33006600
0CCD9800
0CCD9800
03326000
03326000
00CD8000
00CD8000
ENDCHAR
STARTCHAR 01DC
ENCODING 476
SWIDTH 694 0
DWIDTH 27 0
BBX 21 49 3 0
BITMAP
CC0000
CC0000
330000
330000
0CC000
0CC000
033000
033000
00CC00
00CC00
000000
000000
0CCD80
0CCD80
030200
030200
0CCD80
0CCD80
000000
000000
CC0198
CC0198
300060
300060
CC0198
CC0198
300060
300060
CC0198
CC0198
300060
FC01F8
CC0198
300060
300060
CC0198
CC0198
300060
300060
CC0198
CC0198
300060
300060
CCCD98
CCCD98
333260
333260
0CCD80
0CCD80
ENDCHAR
STARTCHAR 0218
ENCODING 536
SWIDTH 694 0
DWIDTH 27 0
BBX 21 41 3 -12
BITMAP
0CCD80
0CCD80
333260
333260
CCCD98
CCCD98
300060
300060
CC0198
CC0198
300000
FCCD80
CCCD80
333260
333260
0CCD98
0CCD98
000060
000060
CC0198
CC0198
300060
300060
CCCD98
CCCD98
333260
333260
0CCD80
0CCD80
000000
000000
00CC00
00CC00
003000
003000
00CC00
00CC00
003000
003000
00C000
00C000
ENDCHAR
STARTCHAR 0219
ENCODING 537
SWIDTH 694 0
DWIDTH 27 0
BBX 21 41 3 -12
BITMAP
0CCD80
0CCD80
333260
333260
CCCD98
CCCD98
300060
300060
CC0198
CC0198
300000
FCCD80
CCCD80
333260
333260
0CCD98
0CCD98
000060
000060
CC0198
CC0198
300060
300060
CCCD98
CCCD98
333260
333260
0CCD80
0CCD80
000000
000000
00CC00
00CC00
003000
003000
00CC00
00CC00
003000
003000
00C000
00C000
ENDCHAR
STARTCHAR 021A
ENCODING 538
SWIDTH 694 0
DWIDTH 27 0
BBX 21 41 3 -12
BITMAP
CCCD98
CCCD98
333260
333260
CCCD98
CCCD98
003000
003000
00CC00
00CC00
003000
00FC00
00CC00
003000
003000
00CC00
00CC00
003000
003000
00CC00
00CC00
003000
003000
00CC00
00CC00
003000
003000
00CC00
00CC00
000000
000000
00CC00
00CC00
003000
003000
00CC00
00CC00
003000
003000
00C000
00C000
ENDCHAR
STARTCHAR 021B
ENCODING 539
SWIDTH 694 0
DWIDTH 27 0
BBX 21 41 3 -12
BITMAP
CCCD98
CCCD98
333260
333260
CCCD98
CCCD98
003000
003000
00CC00
00CC00
003000
00FC00
00CC00
003000
003000
00CC00
00CC00
003000
003000
00CC00
00CC00
003000
003000
00CC00
00CC00
003000
003000
00CC00
00CC00
000000
000000
00CC00
00CC00
003000
003000
00CC00
00CC00
003000
003000
00C000
00C000
ENDCHAR
STARTCHAR 02BC
ENCODING 700
SWIDTH 180 0
DWIDTH 7 0
BBX 6 10 1 19
BITMAP
CC
CC
30
30
CC
CC
30
30
C0
C0
ENDCHAR
STARTCHAR 02C6
ENCODING 710
SWIDTH 385 0
DWIDTH 15 0
BBX 14 10 1 31
BITMAP
0CC0
0CC0
3330
3330
CCCC
CCCC
3030
3030
CCCC
CCCC
ENDCHAR
STARTCHAR 02C7
ENCODING 711
SWIDTH 385 0
DWIDTH 15 0
BBX 14 10 1 31
BITMAP
CCCC
CCCC
3030
3030
CCCC
CCCC
3330
3330
0CC0
0CC0
ENDCHAR
STARTCHAR 02D8
ENCODING 728
SWIDTH 488 0
DWIDTH 19 0
BBX 17 10 1 31
BITMAP
CC0C80
CC0C80
300300
300300
CCCC80
CCCC80
333300
333300
0CCC00
0CCC00
ENDCHAR
STARTCHAR 02D9
ENCODING 729
SWIDTH 180 0
DWIDTH 7 0
BBX 6 6 1 31
BITMAP
CC
CC
30
30
CC
CC
ENDCHAR
STARTCHAR 02DA
ENCODING 730
SWIDTH 488 0
DWIDTH 19 0
BBX 17 18 1 31
BITMAP
0CCC00
0CCC00
333300
333300
CCCC80
CCCC80
300300
300300
CC0C80
CC0C80
300300
300300
CCCC80
CCCC80
333300
333300
0CCC00
0CCC00
ENDCHAR
STARTCHAR 02DB
ENCODING 731
SWIDTH 231 0
DWIDTH 9 0
BBX 10 8 3 -8
BITMAP
3000
3000
CCC0
CCC0
3300
3300
0CC0
0CC0
ENDCHAR
STARTCHAR 02DC
ENCODING 732
SWIDTH 591 0
DWIDTH 23 0
BBX 21 10 1 31
BITMAP
0CC098
0CC098
333060
333060
CCCC98
CCCC98
303360
303360
CC0C80
CC0C80
ENDCHAR
STARTCHAR 02DD
ENCODING 733
SWIDTH 642 0
DWIDTH 25 0
BBX 25 10 1 31
BITMAP
00CC1980
00CC1980
03306600
03306600
0CC09800
0CC09800
33036000
33036000
CC0C8000
CC0C8000
ENDCHAR
STARTCHAR 0300
ENCODING 768
SWIDTH 0 0
DWIDTH 0 0
BBX 14 10 -17 31
BITMAP
CC00
CC00
3300
3300
0CC0
0CC0
0330
0330
00CC
00CC
ENDCHAR
STARTCHAR 0301
ENCODING 769
SWIDTH 0 0
DWIDTH 0 0
BBX 14 10 -13 31
BITMAP
00CC
00CC
0330
0330
0CC0
0CC0
3300
3300
CC00
CC00
ENDCHAR
STARTCHAR 0302
ENCODING 770
SWIDTH 0 0
DWIDTH 0 0
BBX 14 10 -15 31
BITMAP
0CC0
0CC0
3330
3330
CCCC
CCCC
3030
3030
CCCC
CCCC
ENDCHAR
STARTCHAR 0303
ENCODING 771
SWIDTH 0 0
DWIDTH 0 0
BBX 21 10 -22 31
BITMAP
098198
098198
366060
366060
C99998
C99998
306660
306660
C81980
C81980
ENDCHAR
STARTCHAR 0304
ENCODING 772
SWIDTH 0 0
DWIDTH 0 0
BBX 14 6 -15 31
BITMAP
CCCC
CCCC
3330
3330
CCCC
CCCC
ENDCHAR
STARTCHAR 0306
ENCODING 774
SWIDTH 0 0
DWIDTH 0 0
BBX 17 10 -18 31
BITMAP
981980
981980
600600
600600
999980
999980
666600
666600
199800
199800
ENDCHAR
STARTCHAR 0307
ENCODING 775
SWIDTH 0 0
DWIDTH 0 0
BBX 6 6 -7 31
BITMAP
CC
CC
30
30
CC
CC
ENDCHAR
STARTCHAR 0308
ENCODING 776
SWIDTH 0 0
DWIDTH 0 0
BBX 14 6 -15 31
BITMAP
CCCC
CCCC
3030
3030
CCCC
CCCC
ENDCHAR
STARTCHAR 0309
ENCODING 777
SWIDTH 0 0
DWIDTH 0 0
BBX 14 14 -15 31
BITMAP
CCC0
CCC0
3330
3330
CCCC
CCCC
0030
0030
0CCC
0CCC
0330
0330
0CC0
0CC0
ENDCHAR
STARTCHAR 030A
ENCODING 778
SWIDTH 0 0
DWIDTH 0 0
BBX 17 18 -18 31
BITMAP
199800
199800
666600
666600
999980
999980
600600
600600
981980
981980
600600
600600
999980
999980
666600
666600
199800
199800
ENDCHAR
STARTCHAR 030B
ENCODING 779
SWIDTH 0 0
DWIDTH 0 0
BBX 25 10 -24 31
BITMAP
01981980
01981980
02606600
02606600
0D819800
0D819800
32066000
32066000
CC198000
CC198000
ENDCHAR
STARTCHAR 030C
ENCODING 780
SWIDTH 0 0
DWIDTH 0 0
BBX 14 10 -15 31
BITMAP
CCCC
CCCC
3030
3030
CCCC
CCCC
3330
3330
0CC0
0CC0
ENDCHAR
STARTCHAR 031B
ENCODING 795
SWIDTH 0 0
DWIDTH 0 0
BBX 14 10 -15 23
BITMAP
00CC
00CC
0030
0030
CCCC
CCCC
3330
3330
CCC0
CCC0
ENDCHAR
STARTCHAR 0323
ENCODING 803
SWIDTH 0 0
DWIDTH 0 0
BBX 6 6 -7 -8
BITMAP
CC
CC
30
30
CC
CC
ENDCHAR
STARTCHAR 0326
ENCODING 806
SWIDTH 0 0
DWIDTH 0 0
BBX 6 10 -7 -12
BITMAP
CC
CC
30
30
CC
CC
30
30
C0
C0
ENDCHAR
STARTCHAR 0327
ENCODING 807
SWIDTH 0 0
DWIDTH 0 0
BBX 10 8 -11 -8
BITMAP
0300
0300
CCC0
CCC0
3300
3300
CC00
CC00
ENDCHAR
STARTCHAR 0328
ENCODING 808
SWIDTH 0 0
DWIDTH 0 0
BBX 10 8 -7 -8
BITMAP
3000
3000
CCC0
CCC0
3300
3300
0CC0
0CC0
ENDCHAR
STARTCHAR 0335
ENCODING 821
SWIDTH 0 0
DWIDTH 0 0
BBX 14 6 -17 12
BITMAP
CCCC
CCCC
3330
3330
CCCC
CCCC
ENDCHAR
STARTCHAR 0336
ENCODING 822
SWIDTH 0 0
DWIDTH 0 0
BBX 33 6 -34 19
BITMAP
CCCC999980
CCCC999980
3333666600
3333666600
CCCC999980
CCCC999980
ENDCHAR
STARTCHAR 0337
ENCODING 823
SWIDTH 0 0
DWIDTH 0 0
BBX 14 6 -17 12
BITMAP
CCCC
CCCC
3330
3330
CCCC
CCCC
ENDCHAR
STARTCHAR 0338
ENCODING 824
SWIDTH 0 0
DWIDTH 0 0
BBX 14 29 -15 0
BITMAP
00CC
00CC
0030
0030
00CC
00CC
0330
0330
00C0
00C0
0330
0FF0
0CC0
0300
0300
0CC0
0CC0
3300
3300
0C00
0C00
3300
3300
CC00
CC00
3000
3000
CC00
CC00
ENDCHAR
STARTCHAR 0401
ENCODING 1025
SWIDTH 694 0
DWIDTH 27 0
BBX 21 37 3 0
BITMAP
0CCD80
0CCD80
030200
030200
0CCD80
0CCD80
000000
000000
00CD98
00CD98
033260
033260
0CCD98
0CCD98
330000
330000
CC0000
CC0000
300000
FCCD80
CCCD80
333200
333200
CCCD80
CCCD80
300000
300000
CC0000
CC0000
330000
330000
0CCD98
0CCD98
033260
033260
00CD98
00CD98
ENDCHAR
STARTCHAR 0410
ENCODING 1040
SWIDTH 694 0
DWIDTH 27 0
BBX 21 29 3 0
BITMAP
00CC00
00CC00
033200
033200
0CCD80
0CCD80
330260
330260
CC0198
CC0198
300060
FC01F8
CC0198
300060
300060
CCCD98
CCCD98
333260
333260
CCCD98
CCCD98
300060
300060
CC0198
CC0198
300060
300060
CC0198
CC0198
ENDCHAR
STARTCHAR 0411
ENCODING 1041
SWIDTH 694 0
DWIDTH 27 0
BBX 21 29 3 0
BITMAP
CCCD98
CCCD98
333260
333260
CCCD98
CCCD98
300000
300000
CC0000
CC0000
300000
FCCD80
CCCD80
333260
333260
CCCD98
CCCD98
300060
300060
CC0198
CC0198
300060
300060
CCCD98
CCCD98
333260
333260
0CCD80
0CCD80
ENDCHAR
STARTCHAR 0412
ENCODING 1042
SWIDTH 694 0
DWIDTH 27 0
BBX 21 29 3 0
BITMAP
CCCD80
CCCD80
333260
333260
CCCD98
CCCD98
300060
300060
CC0198
CC0198
300260
FCCFE0
CCCD80
333260
333260
CCCD98
CCCD98
300060
300060
CC0198
CC0198
300060
300060
CCCD98
CCCD98
333260
333260
CCCD80
CCCD80
ENDCHAR
STARTCHAR 0413
ENCODING 1043
SWIDTH 694 0
DWIDTH 27 0
BBX 21 29 3 0
BITMAP
0CCD98
0CCD98
333260
333260
CCCD98
CCCD98
300000
300000
CC0000
CC0000
300000
FC0000
CC0000
300000
300000
CC0000
CC0000
300000
300000
CC0000
CC0000
300000
300000
CC0000
CC0000
300000
300000
CC0000
CC0000
ENDCHAR
STARTCHAR 0414
ENCODING 1044
SWIDTH 797 0
DWIDTH 31 0
BBX 29 33 1 -4
BITMAP
00CC9980
00CC9980
03336600
03336600
0CCC9980
0CCC9980
03000600
03000600
0CC01980
0CC01980
03000600
0FC01F80
0CC01980
03000600
03000600
0CC01980
0CC01980
03000600
03000600
0CC01980
0CC01980
03000600
03000600
0CCC9980
0CCC9980
33336660
33336660
CCCC9998
CCCC9998
30000060
30000060
CC000198
CC000198
ENDCHAR
STARTCHAR 0415
ENCODING 1045
SWIDTH 694 0
DWIDTH 27 0
BBX 21 29 3 0
BITMAP
00CD98
00CD98
033260
033260
0CCD98
0CCD98
330000
330000
CC0000
CC0000
300000
FCCD80
CCCD80
333200
333200
CCCD80
CCCD80
300000
300000
CC0000
CC0000
330000
330000
0CCD98
0CCD98
033260
033260
00CD98
00CD98
ENDCHAR
STARTCHAR 0416
ENCODING 1046
SWIDTH 1080 0
DWIDTH 42 0
BBX 37 29 3 0
BITMAP
CC01980198
CC01980198
3000600060
3000600060
CC01980198
CC01980198
3300600660
3300600660
0CC1981980
0CC1981980
0330606600
03FDF9FE00
00CD999800
0032666000
0032666000
00CD999800
00CD999800
0330606600
0330606600
0CC1981980
0CC1981980
3300600660
3300600660
CC01980198
CC01980198
3000600060
3000600060
CC01980198
CC01980198
ENDCHAR
STARTCHAR 0417
ENCODING 1047
SWIDTH 797 0
DWIDTH 31 0
BBX 25 29 3 0
BITMAP
00CD8000
00CD8000
03326000
03326000
0CCD9800
0CCD9800
33006600
33006600
CC001980
CC001980
00006600
00CDFE00
00CD9800
00326000
00326000
00CD9800
00CD9800
00006600
00006600
CC001980
CC001980
33006600
33006600
0CCD9800
0CCD9800
03326000
03326000
00CD8000
00CD8000
ENDCHAR
STARTCHAR 0418
ENCODING 1048
SWIDTH 797 0
DWIDTH 31 0
BBX 25 29 3 0
BITMAP
CC001980
CC001980
30000600
30000600
CC001980
CC001980
30000600
30000600
CC001980
CC001980
30006600
FC01FF80
CC019980
30026600
30026600
CC0D9980
CC0D9980
30320600
30320600
CCCC1980
CCCC1980
33300600
33300600
CCC01980
CCC01980
33000600
33000600
CC001980
CC001980
ENDCHAR
STARTCHAR 0419
ENCODING 1049
SWIDTH 797 0
DWIDTH 31 0
BBX 25 41 3 0
BITMAP
0CC19800
0CC19800
03006000
03006000
0CCD9800
0CCD9800
03326000
03326000
00CD8000
00CD8000
00000000
00000000
CC001980
CC001980
30000600
30000600
CC001980
CC001980
30000600
30000600
CC001980
CC001980
30006600
FC01FF80
CC019980
30026600
30026600
CC0D9980
CC0D9980
30320600
30320600
CCCC1980
CCCC1980
33300600
33300600
CCC01980
CCC01980
33000600
33000600
CC001980
CC001980
ENDCHAR
STARTCHAR 041A
ENCODING 1050
SWIDTH 694 0
DWIDTH 27 0
BBX 21 29 3 0
BITMAP
CC0198
CC0198
300060
300060
CC0198
CC0198
300260
300260
CC0D80
CC0D80
303200
FCFE00
CCCC00
333000
333000
CCCC00
CCCC00
303200
303200
CC0D80
CC0D80
300260
300260
CC0198
CC0198
300060
300060
CC0198
CC0198
ENDCHAR
STARTCHAR 041B
ENCODING 1051
SWIDTH 797 0
DWIDTH 31 0
BBX 25 29 3 0
BITMAP
00CD9800
00CD9800
03326600
03326600
0CCD9980
0CCD9980
03000600
03000600
0CC01980
0CC01980
03000600
0FC01F80
0CC01980
03000600
03000600
0CC01980
0CC01980
03000600
03000600
0CC01980
0CC01980
03000600
03000600
CCC01980
CCC01980
33000600
33000600
CC001980
CC001980
ENDCHAR
STARTCHAR 041C
ENCODING 1052
SWIDTH 977 0
DWIDTH 38 0
BBX 33 29 3 0
BITMAP
CC00001980
CC00001980
3300006600
3300006600
CCC0019980
CCC0019980
3330066600
3330066600
CCCC199980
CCCC199980
3032660600
FC3FFE1F80
CC0D981980
3002600600
3002600600
CC01801980
CC01801980
3000000600
3000000600
CC00001980
CC00001980
3000000600
3000000600
CC00001980
CC00001980
3000000600
3000000600
CC00001980
CC00001980
ENDCHAR
STARTCHAR 041D
ENCODING 1053
SWIDTH 797 0
DWIDTH 31 0
BBX 25 29 3 0
BITMAP
CC001980
CC001980
30000600
30000600
CC001980
CC001980
30000600
30000600
CC001980
CC001980
30000600
FCCD9F80
CCCD9980
33326600
33326600
CCCD9980
CCCD9980
30000600
30000600
CC001980
CC001980
30000600
30000600
CC001980
CC001980
30000600
30000600
CC001980
CC001980
ENDCHAR
STARTCHAR 041E
ENCODING 1054
SWIDTH 797 0
DWIDTH 31 0
BBX 25 29 3 0
BITMAP
00CD8000
00CD8000
03326000
03326000
0CCD9800
0CCD9800
33006600
33006600
CC001980
CC001980
30000600
FC001F80
CC001980
30000600
30000600
CC001980
CC001980
30000600
30000600
CC001980
CC001980
33006600
33006600
0CCD9800
0CCD9800
03326000
03326000
00CD8000
00CD8000
ENDCHAR
STARTCHAR 041F
ENCODING 1055
SWIDTH 797 0
DWIDTH 31 0
BBX 25 29 3 0
BITMAP
0CCD9800
0CCD9800
33326600
33326600
CCCD9980
CCCD9980
30000600
30000600
CC001980
CC001980
30000600
FC001F80
CC001980
30000600
30000600
CC001980
CC001980
30000600
30000600
CC001980
CC001980
30000600
30000600
CC001980
CC001980
30000600
30000600
CC001980
CC001980
ENDCHAR
STARTCHAR 0420
ENCODING 1056
SWIDTH 694 0
DWIDTH 27 0
BBX 21 29 3 0
BITMAP
CCCC00
CCCC00
333200
333200
CCCD80
CCCD80
300260
300260
CC0198
CC0198
300060
FC01F8
CC0198
300060
300060
CC0198
CC0198
300260
300260
CCCD80
CCCD80
333200
333200
CCCC00
CCCC00
300000
300000
CC0000
CC0000
ENDCHAR
STARTCHAR 0421
ENCODING 1057
SWIDTH 797 0
DWIDTH 31 0
BBX 25 29 3 0
BITMAP
00CD8000
00CD8000
03326000
03326000
0CCD9800
0CCD9800
33006600
33006600
CC001980
CC001980
30000600
FC001F80
CC001980
30000000
30000000
CC000000
CC000000
30000000
30000000
CC001980
CC001980
33006600
33006600
0CCD9800
0CCD9800
03326000
03326000
00CD8000
00CD8000
ENDCHAR
STARTCHAR 0422
ENCODING 1058
SWIDTH 694 0
DWIDTH 27 0
BBX 21 29 3 0
BITMAP
CCCD98
CCCD98
333260
333260
CCCD98
CCCD98
003000
003000
00CC00
00CC00
003000
00FC00
00CC00
003000
003000
00CC00
00CC00
003000
003000
00CC00
00CC00
003000
003000
00CC00
00CC00
003000
003000
00CC00
00CC00
ENDCHAR
STARTCHAR 0423
ENCODING 1059
SWIDTH 694 0
DWIDTH 27 0
BBX 21 29 3 0
BITMAP
CC0198
CC0198
300060
300060
CC0198
CC0198
300060
300060
CC0198
CC0198
330060
3FCDF8
0CCD98
033260
033260
00CD98
00CD98
000060
000060
000198
000198
000060
000060
CCCD98
CCCD98
333260
333260
CCCD80
CCCD80
ENDCHAR
STARTCHAR 0424
ENCODING 1060
SWIDTH 900 0
DWIDTH 35 0
BBX 29 37 3 -4
BITMAP
000D8000
000D8000
00020000
00020000
00CD9800
00CD9800
03326600
03326600
0CCD9980
0CCD9980
33020660
33020660
CC0D8198
CC0D8198
30020060
FC0F81F8
CC0D8198
30020060
30020060
CC0D8198
CC0D8198
30020060
30020060
CC0D8198
CC0D8198
33020660
33020660
0CCD9980
0CCD9980
03326600
03326600
00CD9800
00CD9800
00020000
00020000
000D8000
000D8000
ENDCHAR
STARTCHAR 0425
ENCODING 1061
SWIDTH 797 0
DWIDTH 31 0
BBX 25 29 3 0
BITMAP
CC001980
CC001980
30000600
30000600
CC001980
CC001980
30000600
30000600
CC001980
CC001980
33006600
3FCDFE00
0CCD9800
03326000
03326000
0CCD9800
0CCD9800
33006600
33006600
CC001980
CC001980
30000600
30000600
CC001980
CC001980
30000600
30000600
CC001980
CC001980
ENDCHAR
STARTCHAR 0426
ENCODING 1062
SWIDTH 848 0
DWIDTH 33 0
BBX 29 33 3 -4
BITMAP
CC001980
CC001980
30000600
30000600
CC001980
CC001980
30000600
30000600
CC001980
CC001980
30000600
FC001F80
CC001980
30000600
30000600
CC001980
CC001980
30000600
30000600
CC001980
CC001980
30000600
30000600
CCCD9980
CCCD9980
33326660
33326660
0CCD9998
0CCD9998
00000060
00000060
00000198
00000198
ENDCHAR
STARTCHAR 0427
ENCODING 1063
SWIDTH 694 0
DWIDTH 27 0
BBX 21 29 3 0
BITMAP
CC0198
CC0198
300060
300060
CC0198
CC0198
300060
300060
CC0198
CC0198
330060
3FCDF8
0CCD98
033260
033260
00CD98
00CD98
000060
000060
000198
000198
000060
000060
000198
000198
000060
000060
000198
000198
ENDCHAR
STARTCHAR 0428
ENCODING 1064
SWIDTH 1080 0
DWIDTH 42 0
BBX 37 29 3 0
BITMAP
CC01980198
CC01980198
3000600060
3000600060
CC01980198
CC01980198
3000600060
3000600060
CC01980198
CC01980198
3000600060
FC01F801F8
CC01980198
3000600060
3000600060
CC01980198
CC01980198
3000600060
3000600060
CC01980198
CC01980198
3000600060
3000600060
CCCD999998
CCCD999998
3332666660
3332666660
0CCD999980
0CCD999980
ENDCHAR
STARTCHAR 0429
ENCODING 1065
SWIDTH 1131 0
DWIDTH 44 0
BBX 41 33 3 -4
BITMAP
CC0198019800
CC0198019800
300060006000
300060006000
CC0198019800
CC0198019800
300060006000
300060006000
CC0198019800
CC0198019800
300060006000
FC01F801F800
CC0198019800
300060006000
300060006000
CC0198019800
CC0198019800
300060006000
300060006000
CC0198019800
CC0198019800
300060006000
300060006000
CCCD99999800
CCCD99999800
333266666600
333266666600
0CCD99999980
0CCD99999980
000000000600
000000000600
000000001980
000000001980
ENDCHAR
STARTCHAR 042A
ENCODING 1066
SWIDTH 797 0
DWIDTH 31 0
BBX 25 29 3 0
BITMAP
CCC00000
CCC00000
33000000
33000000
CCC00000
CCC00000
03000000
03000000
0CC00000
0CC00000
03000000
0FCD9800
0CCD9800
03326600
03326600
0CCD9980
0CCD9980
03000600
03000600
0CC01980
0CC01980
03000600
03000600
0CCD9980
0CCD9980
03326600
03326600
00CD9800
00CD9800
ENDCHAR
STARTCHAR 042B
ENCODING 1067
SWIDTH 925 0
DWIDTH 36 0
BBX 31 29 3 0
BITMAP
CC000066
CC000066
30000018
30000018
CC000066
CC000066
30000018
30000018
CC000066
CC000066
30000018
FCCD807E
CCCD8066
33326018
33326018
CCCD9866
CCCD9866
30006018
30006018
CC019866
CC019866
30006018
30006018
CCCD9866
CCCD9866
33326018
33326018
0CCD8066
0CCD8066
ENDCHAR
STARTCHAR 042C
ENCODING 1068
SWIDTH 694 0
DWIDTH 27 0
BBX 21 29 3 0
BITMAP
CC0000
CC0000
300000
300000
CC0000
CC0000
300000
300000
CC0000
CC0000
300000
FCCD80
CCCD80
333260
333260
CCCD98
CCCD98
300060
300060
CC0198
CC0198
300060
300060
CCCD98
CCCD98
333260
333260
0CCD80
0CCD80
ENDCHAR
STARTCHAR 042D
ENCODING 1069
SWIDTH 797 0
DWIDTH 31 0
BBX 25 29 3 0
BITMAP
00CD8000
00CD8000
03326000
03326000
0CCD9800
0CCD9800
33006600
33006600
CC001980
CC001980
00000600
00CD9F80
00CD9980
00326600
00326600
00CD9980
00CD9980
00000600
00000600
CC001980
CC001980
33006600
33006600
0CCD9800
0CCD9800
03326000
03326000
00CD8000
00CD8000
ENDCHAR
STARTCHAR 042E
ENCODING 1070
SWIDTH 1080 0
DWIDTH 42 0
BBX 37 29 3 0
BITMAP
CC00199800
CC00199800
3000666600
3000666600
CC01999980
CC01999980
3002600660
3002600660
CC0D800198
CC0D800198
3002000060
FCCF8001F8
CCCD800198
3332000060
3332000060
CCCD800198
CCCD800198
3002000060
3002000060
CC0D800198
CC0D800198
3002600660
3002600660
CC01999980
CC01999980
3000666600
3000666600
CC00199800
CC00199800
ENDCHAR
STARTCHAR 042F
ENCODING 1071
SWIDTH 694 0
DWIDTH 27 0
BBX 21 29 3 0
BITMAP
00CD98
00CD98
033260
033260
0CCD98
0CCD98
330060
330060
CC0198
CC0198
300060
FC01F8
CC0198
300060
300060
CC0198
CC0198
330060
330060
0CCD98
0CCD98
033260
033260
0CCD98
0CCD98
330060
330060
CC0198
CC0198
ENDCHAR
STARTCHAR 0430
ENCODING 1072
SWIDTH 694 0
DWIDTH 27 0
BBX 21 29 3 0
BITMAP
0CCD80
0CCD80
333260
333260
CCCD98
CCCD98
300060
300060
CC0198
CC0198
300060
FC01F8
CC0198
300060
300060
CCCD98
CCCD98
333260
333260
CCCD98
CCCD98
300060
300060
CC0198
CC0198
300060
300060
CC0198
CC0198
ENDCHAR
STARTCHAR 0431
ENCODING 1073
SWIDTH 694 0
DWIDTH 27 0
BBX 21 29 3 0
BITMAP
CCCD98
CCCD98
333260
333260
CCCD98
CCCD98
300000
300000
CC0000
CC0000
300000
FCCD80
CCCD80
333260
333260
CCCD98
CCCD98
300060
300060
CC0198
CC0198
300060
300060
CCCD98
CCCD98
333260
333260
0CCD80
0CCD80
ENDCHAR
STARTCHAR 0432
ENCODING 1074
SWIDTH 694 0
DWIDTH 27 0
BBX 21 29 3 0
BITMAP
CCCD80
CCCD80
333260
333260
CCCD98
CCCD98
300060
300060
CC0198
CC0198
300260
FCCFE0
CCCD80
333200
333200
CCCD80
CCCD80
300260
300260
CC0198
CC0198
300060
300060
CCCD98
CCCD98
333260
333260
CCCD80
CCCD80
ENDCHAR
STARTCHAR 0433
ENCODING 1075
SWIDTH 591 0
DWIDTH 23 0
BBX 17 29 3 0
BITMAP
0CCD80
0CCD80
333200
333200
CCCD80
CCCD80
300000
300000
CC0000
CC0000
300000
FC0000
CC0000
300000
300000
CC0000
CC0000
300000
300000
CC0000
CC0000
300000
300000
CC0000
CC0000
300000
300000
CC0000
CC0000
ENDCHAR
STARTCHAR 0434
ENCODING 1076
SWIDTH 797 0
DWIDTH 31 0
BBX 29 33 1 -4
BITMAP
00CC9980
00CC9980
03336600
03336600
0CCC9980
0CCC9980
03000600
03000600
0CC01980
0CC01980
03000600
0FC01F80
0CC01980
03000600
03000600
0CC01980
0CC01980
03000600
03000600
0CC01980
0CC01980
03000600
03000600
0CCC9980
0CCC9980
33336660
33336660
CCCC9998
CCCC9998
30000060
30000060
CC000198
CC000198
ENDCHAR
STARTCHAR 0435
ENCODING 1077
SWIDTH 694 0
DWIDTH 27 0
BBX 21 29 3 0
BITMAP
0CCD98
0CCD98
333260
333260
CCCD98
CCCD98
300000
300000
CC0000
CC0000
300000
FCCD80
CCCD80
333200
333200
CCCD80
CCCD80
300000
300000
CC0000
CC0000
300000
300000
CCCD98
CCCD98
333260
333260
0CCD98
0CCD98
ENDCHAR
STARTCHAR 0436
ENCODING 1078
SWIDTH 1080 0
DWIDTH 42 0
BBX 37 29 3 0
BITMAP
CC01980198
CC01980198
3000600060
3000600060
CC01980198
CC01980198
3000600060
3000600060
CC01980198
CC01980198
3300600660
3FCDF99FE0
0CCD999980
0332666600
0332666600
0CCD999980
0CCD999980
3300600660
3300600660
CC01980198
CC01980198
3000600060
3000600060
CC01980198
CC01980198
3000600060
3000600060
CC01980198
CC01980198
ENDCHAR
STARTCHAR 0437
ENCODING 1079
SWIDTH 694 0
DWIDTH 27 0
BBX 21 29 3 0
BITMAP
0CCD80
0CCD80
333260
333260
CCCD98
CCCD98
300060
300060
CC0198
CC0198
000260
00CFE0
00CD80
003200
003200
00CD80
00CD80
000260
000260
CC0198
CC0198
300060
300060
CCCD98
CCCD98
333260
333260
0CCD80
0CCD80
ENDCHAR
STARTCHAR 0438
ENCODING 1080
SWIDTH 694 0
DWIDTH 27 0
BBX 21 29 3 0
BITMAP
CC0198
CC0198
300060
300060
CC0198
CC0198
300060
300060
CC0198
CC0198
300060
FC01F8
CC0198
300260
300260
CC0D98
CC0D98
303260
303260
CCCD98
CCCD98
333060
333060
CCC198
CCC198
330060
330060
CC0198
CC0198
ENDCHAR
STARTCHAR 0439
ENCODING 1081
SWIDTH 694 0
DWIDTH 27 0
BBX 21 41 3 0
BITMAP
330260
330260
0C0180
0C0180
333260
333260
0CCD80
0CCD80
033200
033200
000000
000000
CC0198
CC0198
300060
300060
CC0198
CC0198
300060
300060
CC0198
CC0198
300060
FC01F8
CC0198
300260
300260
CC0D98
CC0D98
303260
303260
CCCD98
CCCD98
333060
333060
CCC198
CCC198
330060
330060
CC0198
CC0198
ENDCHAR
STARTCHAR 043A
ENCODING 1082
SWIDTH 694 0
DWIDTH 27 0
BBX 21 29 3 0
BITMAP
CC0198
CC0198
300060
300060
CC0198
CC0198
300060
300060
CC0198
CC0198
300260
FCCFE0
CCCD80
333200
333200
CCCD80
CCCD80
300260
300260
CC0198
CC0198
300060
300060
CC0198
CC0198
300060
300060
CC0198
CC0198
ENDCHAR
STARTCHAR 043B
ENCODING 1083
SWIDTH 797 0
DWIDTH 31 0
BBX 25 29 3 0
BITMAP
00CD9800
00CD9800
03326600
03326600
0CCD9980
0CCD9980
03000600
03000600
0CC01980
0CC01980
03000600
0FC01F80
0CC01980
03000600
03000600
0CC01980
0CC01980
03000600
03000600
0CC01980
0CC01980
03000600
03000600
CCC01980
CCC01980
33000600
33000600
CC001980
CC001980
ENDCHAR
STARTCHAR 043C
ENCODING 1084
SWIDTH 900 0
DWIDTH 35 0
BBX 29 29 3 0
BITMAP
CC000198
CC000198
33000660
33000660
CCC01998
CCC01998
33306660
33306660
CCCD9998
CCCD9998
30326060
FC3FE1F8
CC0D8198
30020060
30020060
CC000198
CC000198
30000060
30000060
CC000198
CC000198
30000060
30000060
CC000198
CC000198
30000060
30000060
CC000198
CC000198
ENDCHAR
STARTCHAR 043D
ENCODING 1085
SWIDTH 694 0
DWIDTH 27 0
BBX 21 29 3 0
BITMAP
CC0198
CC0198
300060
300060
CC0198
CC0198
300060
300060
CC0198
CC0198
300060
FCCDF8
CCCD98
333260
333260
CCCD98
CCCD98
300060
300060
CC0198
CC0198
300060
300060
CC0198
CC0198
300060
300060
CC0198
CC0198
ENDCHAR
STARTCHAR 043E
ENCODING 1086
SWIDTH 694 0
DWIDTH 27 0
BBX 21 29 3 0
BITMAP
0CCD80
0CCD80
333260
333260
CCCD98
CCCD98
300060
300060
CC0198
CC0198
300060
FC01F8
CC0198
300060
300060
CC0198
CC0198
300060
300060
CC0198
CC0198
300060
300060
CCCD98
CCCD98
333260
333260
0CCD80
0CCD80
ENDCHAR
STARTCHAR 043F
ENCODING 1087
SWIDTH 694 0
DWIDTH 27 0
BBX 21 29 3 0
BITMAP
0CCD80
0CCD80
333260
333260
CCCD98
CCCD98
300060
300060
CC0198
CC0198
300060
FC01F8
CC0198
300060
300060
CC0198
CC0198
300060
300060
CC0198
CC0198
300060
300060
CC0198
CC0198
300060
300060
CC0198
CC0198
ENDCHAR
STARTCHAR 0440
ENCODING 1088
SWIDTH 694 0
DWIDTH 27 0
BBX 21 29 3 0
BITMAP
CCCD80
CCCD80
333260
333260
CCCD98
CCCD98
300060
300060
CC0198
CC0198
300060
FC01F8
CC0198
300060
300060
CCCD98
CCCD98
333260
333260
CCCD80
CCCD80
300000
300000
CC0000
CC0000
300000
300000
CC0000
CC0000
ENDCHAR
STARTCHAR 0441
ENCODING 1089
SWIDTH 694 0
DWIDTH 27 0
BBX 21 29 3 0
BITMAP
0CCD80
0CCD80
333260
333260
CCCD98
CCCD98
300060
300060
CC0198
CC0198
300060
FC01F8
CC0198
300000
300000
CC0000
CC0000
300000
300000
CC0198
CC0198
300060
300060
CCCD98
CCCD98
333260
333260
0CCD80
0CCD80
ENDCHAR
STARTCHAR 0442
ENCODING 1090
SWIDTH 694 0
DWIDTH 27 0
BBX 21 29 3 0
BITMAP
CCCD98
CCCD98
333260
333260
CCCD98
CCCD98
003000
003000
00CC00
00CC00
003000
00FC00
00CC00
003000
003000
00CC00
00CC00
003000
003000
00CC00
00CC00
003000
003000
00CC00
00CC00
003000
003000
00CC00
00CC00
ENDCHAR
STARTCHAR 0443
ENCODING 1091
SWIDTH 694 0
DWIDTH 27 0
BBX 21 29 3 0
BITMAP
CC0198
CC0198
300060
300060
CC0198
CC0198
300060
300060
CC0198
CC0198
300060
FCCDF8
CCCD98
333260
333260
0CCD98
0CCD98
000060
000060
000198
000198
000060
000060
CCCD98
CCCD98
333260
333260
CCCD80
CCCD80
ENDCHAR
STARTCHAR 0444
ENCODING 1092
SWIDTH 900 0
DWIDTH 35 0
BBX 29 37 3 -4
BITMAP
000D8000
000D8000
00020000
00020000
0CCD9980
0CCD9980
33326660
33326660
CCCD9998
CCCD9998
30020060
30020060
CC0D8198
CC0D8198
30020060
FC0F81F8
CC0D8198
30020060
30020060
CC0D8198
CC0D8198
30020060
30020060
CC0D8198
CC0D8198
30020060
30020060
CCCD9998
CCCD9998
33326660
33326660
0CCD9980
0CCD9980
00020000
00020000
000D8000
000D8000
ENDCHAR
STARTCHAR 0445
ENCODING 1093
SWIDTH 694 0
DWIDTH 27 0
BBX 21 29 3 0
BITMAP
CC0198
CC0198
300060
300060
CC0198
CC0198
300060
300060
CC0198
CC0198
330260
3FCFE0
0CCD80
033200
033200
0CCD80
0CCD80
330260
330260
CC0198
CC0198
300060
300060
CC0198
CC0198
300060
300060
CC0198
CC0198
ENDCHAR
STARTCHAR 0446
ENCODING 1094
SWIDTH 745 0
DWIDTH 29 0
BBX 25 33 3 -4
BITMAP
CC019800
CC019800
30006000
30006000
CC019800
CC019800
30006000
30006000
CC019800
CC019800
30006000
FC01F800
CC019800
30006000
30006000
CC019800
CC019800
30006000
30006000
CC019800
CC019800
30006000
30006000
CCCD9800
CCCD9800
33326600
33326600
0CCD9980
0CCD9980
00000600
00000600
00001980
00001980
ENDCHAR
STARTCHAR 0447
ENCODING 1095
SWIDTH 694 0
DWIDTH 27 0
BBX 21 29 3 0
BITMAP
CC0198
CC0198
300060
300060
CC0198
CC0198
300060
300060
CC0198
CC0198
300060
FCCDF8
CCCD98
333260
333260
0CCD98
0CCD98
000060
000060
000198
000198
000060
000060
000198
000198
000060
000060
000198
000198
ENDCHAR
STARTCHAR 0448
ENCODING 1096
SWIDTH 900 0
DWIDTH 35 0
BBX 29 29 3 0
BITMAP
CC0D8198
CC0D8198
30020060
30020060
CC0D8198
CC0D8198
30020060
30020060
CC0D8198
CC0D8198
30020060
FC0F81F8
CC0D8198
30020060
30020060
CC0D8198
CC0D8198
30020060
30020060
CC0D8198
CC0D8198
30020060
30020060
CCCD9998
CCCD9998
33326660
33326660
0CCD9980
0CCD9980
ENDCHAR
STARTCHAR 0449
ENCODING 1097
SWIDTH 925 0
DWIDTH 36 0
BBX 33 33 3 -4
BITMAP
CC0D819800
CC0D819800
3002006000
3002006000
CC0D819800
CC0D819800
3002006000
3002006000
CC0D819800
CC0D819800
3002006000
FC0F81F800
CC0D819800
3002006000
3002006000
CC0D819800
CC0D819800
3002006000
3002006000
CC0D819800
CC0D819800
3002006000
3002006000
CCCD999800
CCCD999800
3332666600
3332666600
0CCD999980
0CCD999980
0000000600
0000000600
0000001980
0000001980
ENDCHAR
STARTCHAR 044A
ENCODING 1098
SWIDTH 797 0
DWIDTH 31 0
BBX 25 29 3 0
BITMAP
CCC00000
CCC00000
33000000
33000000
CCC00000
CCC00000
03000000
03000000
0CC00000
0CC00000
03000000
0FCD9800
0CCD9800
03326600
03326600
0CCD9980
0CCD9980
03000600
03000600
0CC01980
0CC01980
03000600
03000600
0CCD9980
0CCD9980
03326600
03326600
00CD9800
00CD9800
ENDCHAR
STARTCHAR 044B
ENCODING 1099
SWIDTH 925 0
DWIDTH 36 0
BBX 31 29 3 0
BITMAP
CC000066
CC000066
30000018
30000018
CC000066
CC000066
30000018
30000018
CC000066
CC000066
30000018
FCCD807E
CCCD8066
33326018
33326018
CCCD9866
CCCD9866
30006018
30006018
CC019866
CC019866
30006018
30006018
CCCD9866
CCCD9866
33326018
33326018
0CCD8066
0CCD8066
ENDCHAR
STARTCHAR 044C
ENCODING 1100
SWIDTH 694 0
DWIDTH 27 0
BBX 21 29 3 0
BITMAP
CC0000
CC0000
300000
300000
CC0000
CC0000
300000
300000
CC0000
CC0000
300000
FCCD80
CCCD80
333260
333260
CCCD98
CCCD98
300060
300060
CC0198
CC0198
300060
300060
CCCD98
CCCD98
333260
333260
0CCD80
0CCD80
ENDCHAR
STARTCHAR 044D
ENCODING 1101
SWIDTH 797 0
DWIDTH 31 0
BBX 25 29 3 0
BITMAP
0CCD9800
0CCD9800
33326600
33326600
CCCD9980
CCCD9980
30000600
30000600
CC001980
CC001980
00000600
00CD9F80
00CD9980
00326600
00326600
00CD9980
00CD9980
00000600
00000600
CC001980
CC001980
30000600
30000600
CCCD9980
CCCD9980
33326600
33326600
0CCD9800
0CCD9800
ENDCHAR
STARTCHAR 044E
ENCODING 1102
SWIDTH 977 0
DWIDTH 38 0
BBX 33 29 3 0
BITMAP
CC01999800
CC01999800
3002666600
3002666600
CC0D999980
CC0D999980
3002000600
3002000600
CC0D801980
CC0D801980
3002000600
FCCF801F80
CCCD801980
3332000600
3332000600
CCCD801980
CCCD801980
3002000600
3002000600
CC0D801980
CC0D801980
3002000600
3002000600
CC0D999980
CC0D999980
3002666600
3002666600
CC01999800
CC01999800
ENDCHAR
STARTCHAR 044F
ENCODING 1103
SWIDTH 694 0
DWIDTH 27 0
BBX 21 29 3 0
BITMAP
0CCD98
0CCD98
333260
333260
CCCD98
CCCD98
300060
300060
CC0198
CC0198
300060
FC01F8
CC0198
300060
300060
CCCD98
CCCD98
333260
333260
0CCD98
0CCD98
330060
330060
CC0198
CC0198
300060
300060
CC0198
CC0198
ENDCHAR
STARTCHAR 0451
ENCODING 1105
SWIDTH 694 0
DWIDTH 27 0
BBX 21 37 3 0
BITMAP
0CCD80
0CCD80
030200
030200
0CCD80
0CCD80
000000
000000
0CCD98
0CCD98
333260
333260
CCCD98
CCCD98
300000
300000
CC0000
CC0000
300000
FCCD80
CCCD80
333200
333200
CCCD80
CCCD80
300000
300000
CC0000
CC0000
300000
300000
CCCD98
CCCD98
333260
333260
0CCD98
0CCD98
ENDCHAR
STARTCHAR 1E80
ENCODING 7808
SWIDTH 1080 0
DWIDTH 42 0
BBX 37 41 3 0
BITMAP
00CC000000
00CC000000
0032000000
0032000000
000D800000
000D800000
0002600000
0002600000
0001980000
0001980000
0000000000
0000000000
CC01980198
CC01980198
3000600060
3000600060
CC01980198
CC01980198
3000600060
3000600060
CC01980198
CC01980198
3000600060
FC01F801F8
CC01980198
3000600060
3000600060
CC01980198
CC01980198
3000600060
3000600060
CC01980198
CC01980198
3302660660
3302660660
0CCD999980
0CCD999980
0332066600
0332066600
00CC019800
00CC019800
ENDCHAR
STARTCHAR 1E81
ENCODING 7809
SWIDTH 1080 0
DWIDTH 42 0
BBX 37 41 3 0
BITMAP
00CC000000
00CC000000
0032000000
0032000000
000D800000
000D800000
0002600000
0002600000
0001980000
0001980000
0000000000
0000000000
CC01980198
CC01980198
3000600060
3000600060
CC01980198
CC01980198
3000600060
3000600060
CC01980198
CC01980198
3000600060
FC01F801F8
CC01980198
3000600060
3000600060
CC01980198
CC01980198
3000600060
3000600060
CC01980198
CC01980198
3002660060
3002660060
CCCD999998
CCCD999998
3332066660
3332066660
0CCC019980
0CCC019980
ENDCHAR
STARTCHAR 1E82
ENCODING 7810
SWIDTH 1080 0
DWIDTH 42 0
BBX 37 41 3 0
BITMAP
0000066000
0000066000
0000198000
0000198000
0000660000
0000660000
0001980000
0001980000
0002600000
0002600000
0000000000
0000000000
CC01980198
CC01980198
3000600060
3000600060
CC01980198
CC01980198
3000600060
3000600060
CC01980198
CC01980198
3000600060
FC01F801F8
CC01980198
3000600060
3000600060
CC01980198
CC01980198
3000600060
3000600060
CC01980198
CC01980198
3302660660
3302660660
0CCD999980
0CCD999980
0332066600
0332066600
00CC019800
00CC019800
ENDCHAR
STARTCHAR 1E83
ENCODING 7811
SWIDTH 1080 0
DWIDTH 42 0
BBX 37 41 3 0
BITMAP
0000066000
0000066000
0000198000
0000198000
0000660000
0000660000
0001980000
0001980000
0002600000
0002600000
0000000000
0000000000
CC01980198
CC01980198
3000600060
3000600060
CC01980198
CC01980198
3000600060
3000600060
CC01980198
CC01980198
3000600060
FC01F801F8
CC01980198
3000600060
3000600060
CC01980198
CC01980198
3000600060
3000600060
CC01980198
CC01980198
3002660060
3002660060
CCCD999998
CCCD999998
3332066660
3332066660
0CCC019980
0CCC019980
ENDCHAR
STARTCHAR 1E84
ENCODING 7812
SWIDTH 1080 0
DWIDTH 42 0
BBX 37 37 3 0
BITMAP
000D998000
000D998000
0002060000
0002060000
000D998000
000D998000
0000000000
0000000000
CC01980198
CC01980198
3000600060
3000600060
CC01980198
CC01980198
3000600060
3000600060
CC01980198
CC01980198
3000600060
FC01F801F8
CC01980198
3000600060
3000600060
CC01980198
CC01980198
3000600060
3000600060
CC01980198
CC01980198
3302660660
3302660660
0CCD999980
0CCD999980
0332066600
0332066600
00CC019800
00CC019800
ENDCHAR
STARTCHAR 1E85
ENCODING 7813
SWIDTH 1080 0
DWIDTH 42 0
BBX 37 37 3 0
BITMAP
000D998000
000D998000
0002060000
0002060000
000D998000
000D998000
0000000000
0000000000
CC01980198
CC01980198
3000600060
3000600060
CC01980198
CC01980198
3000600060
3000600060
CC01980198
CC01980198
3000600060
FC01F801F8
CC01980198
3000600060
3000600060
CC01980198
CC01980198
3000600060
3000600060
CC01980198
CC01980198
3002660060
3002660060
CCCD999998
CCCD999998
3332066660
3332066660
0CCC019980
0CCC019980
ENDCHAR
STARTCHAR 1E9E
ENCODING 7838
SWIDTH 694 0
DWIDTH 27 0
BBX 21 29 3 0
BITMAP
0CCD80
0CCD80
333260
333260
CCCD98
CCCD98
300060
300060
CC0198
CC0198
300260
FCCFE0
CCCD80
303260
303260
CCCD98
CCCD98
300060
300060
CC0198
CC0198
300060
300060
CCCD98
CCCD98
303260
303260
CCCD80
CCCD80
ENDCHAR
STARTCHAR 1EA0
ENCODING 7840
SWIDTH 694 0
DWIDTH 27 0
BBX 21 37 3 -8
BITMAP
00CC00
00CC00
033200
033200
0CCD80
0CCD80
330260
330260
CC0198
CC0198
300060
FC01F8
CC0198
300060
300060
CCCD98
CCCD98
333260
333260
CCCD98
CCCD98
300060
300060
CC0198
CC0198
300060
300060
CC0198
CC0198
000000
000000
00CC00
00CC00
003000
003000
00CC00
00CC00
ENDCHAR
STARTCHAR 1EA1
ENCODING 7841
SWIDTH 694 0
DWIDTH 27 0
BBX 21 37 3 -8
BITMAP
0CCD80
0CCD80
333260
333260
CCCD98
CCCD98
300060
300060
CC0198
CC0198
300060
FC01F8
CC0198
300060
300060
CCCD98
CCCD98
333260
333260
CCCD98
CCCD98
300060
300060
CC0198
CC0198
300060
300060
CC0198
CC0198
000000
000000
00CC00
00CC00
003000
003000
00CC00
00CC00
ENDCHAR
STARTCHAR 1EA2
ENCODING 7842
SWIDTH 694 0
DWIDTH 27 0
BBX 21 45 3 0
BITMAP
0CCC00
0CCC00
033200
033200
0CCD80
0CCD80
000200
000200
00CD80
00CD80
003200
003200
00CC00
00CC00
000000
000000
00CC00
00CC00
033200
033200
0CCD80
0CCD80
330260
330260
CC0198
CC0198
300060
FC01F8
CC0198
300060
300060
CCCD98
CCCD98
333260
333260
CCCD98
CCCD98
300060
300060
CC0198
CC0198
300060
300060
CC0198
CC0198
ENDCHAR
STARTCHAR 1EA3
ENCODING 7843
SWIDTH 694 0
DWIDTH 27 0
BBX 21 45 3 0
BITMAP
0CCC00
0CCC00
033200
033200
0CCD80
0CCD80
000200
000200
00CD80
00CD80
003200
003200
00CC00
00CC00
000000
000000
0CCD80
0CCD80
333260
333260
CCCD98
CCCD98
300060
300060
CC0198
CC0198
300060
FC01F8
CC0198
300060
300060
CCCD98
CCCD98
333260
333260
CCCD98
CCCD98
300060
300060
CC0198
CC0198
300060
300060
CC0198
CC0198
ENDCHAR
STARTCHAR 1EA4
ENCODING 7844
SWIDTH 694 0
DWIDTH 27 0
BBX 21 53 3 0
BITMAP
000260
000260
000D80
000D80
003200
003200
00CC00
00CC00
033000
033000
000000
000000
00CC00
00CC00
033200
033200
0CCD80
0CCD80
030200
030200
0CCD80
0CCD80
000000
000000
00CC00
00CC00
033200
033200
0CCD80
0CCD80
330260
330260
CC0198
CC0198
300060
FC01F8
CC0198
300060
300060
CCCD98
CCCD98
333260
333260
CCCD98
CCCD98
300060
300060
CC0198
CC0198
300060
300060
CC0198
CC0198
ENDCHAR
STARTCHAR 1EA5
ENCODING 7845
SWIDTH 694 0
DWIDTH 27 0
BBX 21 53 3 0
BITMAP
000260
000260
000D80
000D80
003200
003200
00CC00
00CC00
033000
033000
000000
000000
00CC00
00CC00
033200
033200
0CCD80
0CCD80
030200
030200
0CCD80
0CCD80
000000
000000
0CCD80
0CCD80
333260
333260
CCCD98
CCCD98
300060
300060
CC0198
CC0198
300060
FC01F8
CC0198
300060
300060
CCCD98
CCCD98
333260
333260
CCCD98
CCCD98
300060
300060
CC0198
CC0198
300060
300060
CC0198
CC0198
ENDCHAR
STARTCHAR 1EA6
ENCODING 7846
SWIDTH 694 0
DWIDTH 27 0
BBX 21 53 3 0
BITMAP
CC0000
CC0000
330000
330000
0CC000
0CC000
033000
033000
00CC00
00CC00
000000
000000
00CC00
00CC00
033200
033200
0CCD80
0CCD80
030200
030200
0CCD80
0CCD80
000000
000000
00CC00
00CC00
033200
033200
0CCD80
0CCD80
330260
330260
CC0198
CC0198
300060
FC01F8
CC0198
300060
300060
CCCD98
CCCD98
333260
333260
CCCD98
CCCD98
300060
300060
CC0198
CC0198
300060
300060
CC0198
CC0198
ENDCHAR
STARTCHAR 1EA7
ENCODING 7847
SWIDTH 694 0
DWIDTH 27 0
BBX 21 53 3 0
BITMAP
CC0000
CC0000
330000
330000
0CC000
0CC000
033000
033000
00CC00
00CC00
000000
000000
00CC00
00CC00
033200
033200
0CCD80
0CCD80
030200
030200
0CCD80
0CCD80
000000
000000
0CCD80
0CCD80
333260
333260
CCCD98
CCCD98
300060
300060
CC0198
CC0198
300060
FC01F8
CC0198
300060
300060
CCCD98
CCCD98
333260
333260
CCCD98
CCCD98
300060
300060
CC0198
CC0198
300060
300060
CC0198
CC0198
ENDCHAR
STARTCHAR 1EA8
ENCODING 7848
SWIDTH 694 0
DWIDTH 27 0
BBX 21 56 3 0
BITMAP
0CCC00
0CCC00
033200
0FFF80
0CCD80
000200
000200
00CD80
00CD80
003200
003200
00CC00
00CC00
000000
000000
00CC00
00CC00
033200
033200
0CCD80
0CCD80
030200
030200
0CCD80
0CCD80
000000
000000
00CC00
00CC00
033200
033200
0CCD80
0CCD80
330260
330260
CC0198
CC0198
300060
FC01F8
CC0198
300060
300060
CCCD98
CCCD98
333260
333260
CCCD98
CCCD98
300060
300060
CC0198
CC0198
300060
300060
CC0198
CC0198
ENDCHAR
STARTCHAR 1EA9
ENCODING 7849
SWIDTH 694 0
DWIDTH 27 0
BBX 21 56 3 0
BITMAP
0CCC00
0CCC00
033200
0FFF80
0CCD80
000200
000200
00CD80
00CD80
003200
003200
00CC00
00CC00
000000
000000
00CC00
00CC00
033200
033200
0CCD80
0CCD80
030200
030200
0CCD80
0CCD80
000000
000000
0CCD80
0CCD80
333260
333260
CCCD98
CCCD98
300060
300060
CC0198
CC0198
300060
FC01F8
CC0198
300060
300060
CCCD98
CCCD98
333260
333260
CCCD98
CCCD98
300060
300060
CC0198
CC0198
300060
300060
CC0198
CC0198
ENDCHAR
STARTCHAR 1EAA
ENCODING 7850
SWIDTH 694 0
DWIDTH 27 0
BBX 21 53 3 0
BITMAP
0CC198
0CC198
333060
333060
CCCD98
CCCD98
303260
303260
CC0D80
CC0D80
000000
000000
00CC00
00CC00
033200
033200
0CCD80
0CCD80
030200
030200
0CCD80
0CCD80
000000
000000
00CC00
00CC00
033200
033200
0CCD80
0CCD80
330260
330260
CC0198
CC0198
300060
FC01F8
CC0198
300060
300060
CCCD98
CCCD98
333260
333260
CCCD98
CCCD98
300060
300060
CC0198
CC0198
300060
300060
CC0198
CC0198
ENDCHAR
STARTCHAR 1EAB
ENCODING 7851
SWIDTH 694 0
DWIDTH 27 0
BBX 21 53 3 0
BITMAP
0CC198
0CC198
333060
333060
CCCD98
CCCD98
303260
303260
CC0D80
CC0D80
000000
000000
00CC00
00CC00
033200
033200
0CCD80
0CCD80
030200
030200
0CCD80
0CCD80
000000
000000
0CCD80
0CCD80
333260
333260
CCCD98
CCCD98
300060
300060
CC0198
CC0198
300060
FC01F8
CC0198
300060
300060
CCCD98
CCCD98
333260
333260
CCCD98
CCCD98
300060
300060
CC0198
CC0198
300060
300060
CC0198
CC0198
ENDCHAR
STARTCHAR 1EAC
ENCODING 7852
SWIDTH 694 0
DWIDTH 27 0
BBX 21 49 3 -8
BITMAP
00CC00
00CC00
033200
033200
0CCD80
0CCD80
030200
030200
0CCD80
0CCD80
000000
000000
00CC00
00CC00
033200
033200
0CCD80
0CCD80
330260
330260
CC0198
CC0198
300060
FC01F8
CC0198
300060
300060
CCCD98
CCCD98
333260
333260
CCCD98
CCCD98
300060
300060
CC0198
CC0198
300060
300060
CC0198
CC0198
000000
000000
00CC00
00CC00
003000
003000
00CC00
00CC00
ENDCHAR
STARTCHAR 1EAD
ENCODING 7853
SWIDTH 694 0
DWIDTH 27 0
BBX 21 49 3 -8
BITMAP
00CC00
00CC00
033200
033200
0CCD80
0CCD80
030200
030200
0CCD80
0CCD80
000000
000000
0CCD80
0CCD80
333260
333260
CCCD98
CCCD98
300060
300060
CC0198
CC0198
300060
FC01F8
CC0198
300060
300060
CCCD98
CCCD98
333260
333260
CCCD98
CCCD98
300060
300060
CC0198
CC0198
300060
300060
CC0198
CC0198
000000
000000
00CC00
00CC00
003000
003000
00CC00
00CC00
ENDCHAR
STARTCHAR 1EAE
ENCODING 7854
SWIDTH 694 0
DWIDTH 27 0
BBX 21 53 3 0
BITMAP
000260
000260
000D80
000D80
003200
003200
00CC00
00CC00
033000
033000
000000
000000
330260
330260
0C0180
0C0180
333260
333260
0CCD80
0CCD80
033200
033200
000000
000000
00CC00
00CC00
033200
033200
0CCD80
0CCD80
330260
330260
CC0198
CC0198
300060
FC01F8
CC0198
300060
300060
CCCD98
CCCD98
333260
333260
CCCD98
CCCD98
300060
300060
CC0198
CC0198
300060
300060
CC0198
CC0198
ENDCHAR
STARTCHAR 1EAF
ENCODING 7855
SWIDTH 694 0
DWIDTH 27 0
BBX 21 53 3 0
BITMAP
000260
000260
000D80
000D80
003200
003200
00CC00
00CC00
033000
033000
000000
000000
330260
330260
0C0180
0C0180
333260
333260
0CCD80
0CCD80
033200
033200
000000
000000
0CCD80
0CCD80
333260
333260
CCCD98
CCCD98
300060
300060
CC0198
CC0198
300060
FC01F8
CC0198
300060
300060
CCCD98
CCCD98
333260
333260
CCCD98
CCCD98
300060
300060
CC0198
CC0198
300060
300060
CC0198
CC0198
ENDCHAR
STARTCHAR 1EB0
ENCODING 7856
SWIDTH 694 0
DWIDTH 27 0
BBX 21 53 3 0
BITMAP
980000
980000
660000
660000
198000
198000
066000
066000
019800
019800
000000
000000
330260
330260
0C0180
0C0180
333260
333260
0CCD80
0CCD80
033200
033200
000000
000000
00CC00
00CC00
033200
033200
0CCD80
0CCD80
330260
330260
CC0198
CC0198
300060
FC01F8
CC0198
300060
300060
CCCD98
CCCD98
333260
333260
CCCD98
CCCD98
300060
300060
CC0198
CC0198
300060
300060
CC0198
CC0198
ENDCHAR
STARTCHAR 1EB1
ENCODING 7857
SWIDTH 694 0
DWIDTH 27 0
BBX 21 53 3 0
BITMAP
980000
980000
660000
660000
198000
198000
066000
066000
019800
019800
000000
000000
330260
330260
0C0180
0C0180
333260
333260
0CCD80
0CCD80
033200
033200
000000
000000
0CCD80
0CCD80
333260
333260
CCCD98
CCCD98
300060
300060
CC0198
CC0198
300060
FC01F8
CC0198
300060
300060
CCCD98
CCCD98
333260
333260
CCCD98
CCCD98
300060
300060
CC0198
CC0198
300060
300060
CC0198
CC0198
ENDCHAR
STARTCHAR 1EB2
ENCODING 7858
SWIDTH 694 0
DWIDTH 27 0
BBX 21 56 3 0
BITMAP
0CCC00
0CCC00
033200
0FFF80
0CCD80
000200
000200
00CD80
00CD80
003200
003200
00CC00
00CC00
000000
000000
330260
330260
0C0180
0C0180
333260
333260
0CCD80
0CCD80
033200
033200
000000
000000
00CC00
00CC00
033200
033200
0CCD80
0CCD80
330260
330260
CC0198
CC0198
300060
FC01F8
CC0198
300060
300060
CCCD98
CCCD98
333260
333260
CCCD98
CCCD98
300060
300060
CC0198
CC0198
300060
300060
CC0198
CC0198
ENDCHAR
STARTCHAR 1EB3
ENCODING 7859
SWIDTH 694 0
DWIDTH 27 0
BBX 21 56 3 0
BITMAP
0CCC00
0CCC00
033200
0FFF80
0CCD80
000200
000200
00CD80
00CD80
003200
003200
00CC00
00CC00
000000
000000
330260
330260
0C0180
0C0180
333260
333260
0CCD80
0CCD80
033200
033200
000000
000000
0CCD80
0CCD80
333260
333260
CCCD98
CCCD98
300060
300060
CC0198
CC0198
300060
FC01F8
CC0198
300060
300060
CCCD98
CCCD98
333260
333260
CCCD98
CCCD98
300060
300060
CC0198
CC0198
300060
300060
CC0198
CC0198
ENDCHAR
STARTCHAR 1EB4
ENCODING 7860
SWIDTH 694 0
DWIDTH 27 0
BBX 21 53 3 0
BITMAP
0CC198
0CC198
333060
333060
CCCD98
CCCD98
303260
303260
CC0D80
CC0D80
000000
000000
330260
330260
0C0180
0C0180
333260
333260
0CCD80
0CCD80
033200
033200
000000
000000
00CC00
00CC00
033200
033200
0CCD80
0CCD80
330260
330260
CC0198
CC0198
300060
FC01F8
CC0198
300060
300060
CCCD98
CCCD98
333260
333260
CCCD98
CCCD98
300060
300060
CC0198
CC0198
300060
300060
CC0198
CC0198
ENDCHAR
STARTCHAR 1EB5
ENCODING 7861
SWIDTH 694 0
DWIDTH 27 0
BBX 21 53 3 0
BITMAP
0CC198
0CC198
333060
333060
CCCD98
CCCD98
303260
303260
CC0D80
CC0D80
000000
000000
330260
330260
0C0180
0C0180
333260
333260
0CCD80
0CCD80
033200
033200
000000
000000
0CCD80
0CCD80
333260
333260
CCCD98
CCCD98
300060
300060
CC0198
CC0198
300060
FC01F8
CC0198
300060
300060
CCCD98
CCCD98
333260
333260
CCCD98
CCCD98
300060
300060
CC0198
CC0198
300060
300060
CC0198
CC0198
ENDCHAR
STARTCHAR 1EB6
ENCODING 7862
SWIDTH 694 0
DWIDTH 27 0
BBX 21 49 3 -8
BITMAP
330260
330260
0C0180
0C0180
333260
333260
0CCD80
0CCD80
033200
033200
000000
000000
00CC00
00CC00
033200
033200
0CCD80
0CCD80
330260
330260
CC0198
CC0198
300060
FC01F8
CC0198
300060
300060
CCCD98
CCCD98
333260
333260
CCCD98
CCCD98
300060
300060
CC0198
CC0198
300060
300060
CC0198
CC0198
000000
000000
00CC00
00CC00
003000
003000
00CC00
00CC00
ENDCHAR
STARTCHAR 1EB7
ENCODING 7863
SWIDTH 694 0
DWIDTH 27 0
BBX 21 49 3 -8
BITMAP
330260
330260
0C0180
0C0180
333260
333260
0CCD80
0CCD80
033200
033200
000000
000000
0CCD80
0CCD80
333260
333260
CCCD98
CCCD98
300060
300060
CC0198
CC0198
300060
FC01F8
CC0198
300060
300060
CCCD98
CCCD98
333260
333260
CCCD98
CCCD98
300060
300060
CC0198
CC0198
300060
300060
CC0198
CC0198
000000
000000
00CC00
00CC00
003000
003000
00CC00
00CC00
ENDCHAR
STARTCHAR 1EB8
ENCODING 7864
SWIDTH 694 0
DWIDTH 27 0
BBX 21 37 3 -8
BITMAP
00CD98
00CD98
033260
033260
0CCD98
0CCD98
330000
330000
CC0000
CC0000
300000
FCCD80
CCCD80
333200
333200
CCCD80
CCCD80
300000
300000
CC0000
CC0000
330000
330000
0CCD98
0CCD98
033260
033260
00CD98
00CD98
000000
000000
00CC00
00CC00
003000
003000
00CC00
00CC00
ENDCHAR
STARTCHAR 1EB9
ENCODING 7865
SWIDTH 694 0
DWIDTH 27 0
BBX 21 37 3 -8
BITMAP
0CCD98
0CCD98
333260
333260
CCCD98
CCCD98
300000
300000
CC0000
CC0000
300000
FCCD80
CCCD80
333200
333200
CCCD80
CCCD80
300000
300000
CC0000
CC0000
300000
300000
CCCD98
CCCD98
333260
333260
0CCD98
0CCD98
000000
000000
00CC00
00CC00
003000
003000
00CC00
00CC00
ENDCHAR
STARTCHAR 1EBA
ENCODING 7866
SWIDTH 694 0
DWIDTH 27 0
BBX 21 45 3 0
BITMAP
0CCC00
0CCC00
033200
033200
0CCD80
0CCD80
000200
000200
00CD80
00CD80
003200
003200
00CC00
00CC00
000000
000000
00CD98
00CD98
033260
033260
0CCD98
0CCD98
330000
330000
CC0000
CC0000
300000
FCCD80
CCCD80
333200
333200
CCCD80
CCCD80
300000
300000
CC0000
CC0000
330000
330000
0CCD98
0CCD98
033260
033260
00CD98
00CD98
ENDCHAR
STARTCHAR 1EBB
ENCODING 7867
SWIDTH 694 0
DWIDTH 27 0
BBX 21 45 3 0
BITMAP
0CCC00
0CCC00
033200
033200
0CCD80
0CCD80
000200
000200
00CD80
00CD80
003200
003200
00CC00
00CC00
000000
000000
0CCD98
0CCD98
333260
333260
CCCD98
CCCD98
300000
300000
CC0000
CC0000
300000
FCCD80
CCCD80
333200
333200
CCCD80
CCCD80
300000
300000
CC0000
CC0000
300000
300000
CCCD98
CCCD98
333260
333260
0CCD98
0CCD98
ENDCHAR
STARTCHAR 1EBC
ENCODING 7868
SWIDTH 694 0
DWIDTH 27 0
BBX 21 41 3 0
BITMAP
0CC198
0CC198
333060
333060
CCCD98
CCCD98
303260
303260
CC0D80
CC0D80
000000
000000
00CD98
00CD98
033260
033260
0CCD98
0CCD98
330000
330000
CC0000
CC0000
300000
FCCD80
CCCD80
333200
333200
CCCD80
CCCD80
300000
300000
CC0000
CC0000
330000
330000
0CCD98
0CCD98
033260
033260
00CD98
00CD98
ENDCHAR
STARTCHAR 1EBD
ENCODING 7869
SWIDTH 694 0
DWIDTH 27 0
BBX 21 41 3 0
BITMAP
0CC198
0CC198
333060
333060
CCCD98
CCCD98
303260
303260
CC0D80
CC0D80
000000
000000
0CCD98
0CCD98
333260
333260
CCCD98
CCCD98
300000
300000
CC0000
CC0000
300000
FCCD80
CCCD80
333200
333200
CCCD80
CCCD80
300000
300000
CC0000
CC0000
300000
300000
CCCD98
CCCD98
333260
333260
0CCD98
0CCD98
ENDCHAR
STARTCHAR 1EBE
ENCODING 7870
SWIDTH 694 0
DWIDTH 27 0
BBX 21 53 3 0
BITMAP
000260
000260
000D80
000D80
003200
003200
00CC00
00CC00
033000
033000
000000
000000
00CC00
00CC00
033200
033200
0CCD80
0CCD80
030200
030200
0CCD80
0CCD80
000000
000000
00CD98
00CD98
033260
033260
0CCD98
0CCD98
330000
330000
CC0000
CC0000
300000
FCCD80
CCCD80
333200
333200
CCCD80
CCCD80
300000
300000
CC0000
CC0000
330000
330000
0CCD98
0CCD98
033260
033260
00CD98
00CD98
ENDCHAR
STARTCHAR 1EBF
ENCODING 7871
SWIDTH 694 0
DWIDTH 27 0
BBX 21 53 3 0
BITMAP
000260
000260
000D80
000D80
003200
003200
00CC00
00CC00
033000
033000
000000
000000
00CC00
00CC00
033200
033200
0CCD80
0CCD80
030200
030200
0CCD80
0CCD80
000000
000000
0CCD98
0CCD98
333260
333260
CCCD98
CCCD98
300000
300000
CC0000
CC0000
300000
FCCD80
CCCD80
333200
333200
CCCD80
CCCD80
300000
300000
CC0000
CC0000
300000
300000
CCCD98
CCCD98
333260
333260
0CCD98
0CCD98
ENDCHAR
STARTCHAR 1EC0
ENCODING 7872
SWIDTH 694 0
DWIDTH 27 0
BBX 21 53 3 0
BITMAP
CC0000
CC0000
330000
330000
0CC000
0CC000
033000
033000
00CC00
00CC00
000000
000000
00CC00
00CC00
033200
033200
0CCD80
0CCD80
030200
030200
0CCD80
0CCD80
000000
000000
00CD98
00CD98
033260
033260
0CCD98
0CCD98
330000
330000
CC0000
CC0000
300000
FCCD80
CCCD80
333200
333200
CCCD80
CCCD80
300000
300000
CC0000
CC0000
330000
330000
0CCD98
0CCD98
033260
033260
00CD98
00CD98
ENDCHAR
STARTCHAR 1EC1
ENCODING 7873
SWIDTH 694 0
DWIDTH 27 0
BBX 21 53 3 0
BITMAP
CC0000
CC0000
330000
330000
0CC000
0CC000
033000
033000
00CC00
00CC00
000000
000000
00CC00
00CC00
033200
033200
0CCD80
0CCD80
030200
030200
0CCD80
0CCD80
000000
000000
0CCD98
0CCD98
333260
333260
CCCD98
CCCD98
300000
300000
CC0000
CC0000
300000
FCCD80
CCCD80
333200
333200
CCCD80
CCCD80
300000
300000
CC0000
CC0000
300000
300000
CCCD98
CCCD98
333260
333260
0CCD98
0CCD98
ENDCHAR
STARTCHAR 1EC2
ENCODING 7874
SWIDTH 694 0
DWIDTH 27 0
BBX 21 56 3 0
BITMAP
0CCC00
0CCC00
033200
0FFF80
0CCD80
000200
000200
00CD80
00CD80
003200
003200
00CC00
00CC00
000000
000000
00CC00
00CC00
033200
033200
0CCD80
0CCD80
030200
030200
0CCD80
0CCD80
000000
000000
00CD98
00CD98
033260
033260
0CCD98
0CCD98
330000
330000
CC0000
CC0000
300000
FCCD80
CCCD80
333200
333200
CCCD80
CCCD80
300000
300000
CC0000
CC0000
330000
330000
0CCD98
0CCD98
033260
033260
00CD98
00CD98
ENDCHAR
STARTCHAR 1EC3
ENCODING 7875
SWIDTH 694 0
DWIDTH 27 0
BBX 21 56 3 0
BITMAP
0CCC00
0CCC00
033200
0FFF80
0CCD80
000200
000200
00CD80
00CD80
003200
003200
00CC00
00CC00
000000
000000
00CC00
00CC00
033200
033200
0CCD80
0CCD80
030200
030200
0CCD80
0CCD80
000000
000000
0CCD98
0CCD98
333260
333260
CCCD98
CCCD98
300000
300000
CC0000
CC0000
300000
FCCD80
CCCD80
333200
333200
CCCD80
CCCD80
300000
300000
CC0000
CC0000
300000
300000
CCCD98
CCCD98
333260
333260
0CCD98
0CCD98
ENDCHAR
STARTCHAR 1EC4
ENCODING 7876
SWIDTH 694 0
DWIDTH 27 0
BBX 21 53 3 0
BITMAP
0CC198
0CC198
333060
333060
CCCD98
CCCD98
303260
303260
CC0D80
CC0D80
000000
000000
00CC00
00CC00
033200
033200
0CCD80
0CCD80
030200
030200
0CCD80
0CCD80
000000
000000
00CD98
00CD98
033260
033260
0CCD98
0CCD98
330000
330000
CC0000
CC0000
300000
FCCD80
CCCD80
333200
333200
CCCD80
CCCD80
300000
300000
CC0000
CC0000
330000
330000
0CCD98
0CCD98
033260
033260
00CD98
00CD98
ENDCHAR
STARTCHAR 1EC5
ENCODING 7877
SWIDTH 694 0
DWIDTH 27 0
BBX 21 53 3 0
BITMAP
0CC198
0CC198
333060
333060
CCCD98
CCCD98
303260
303260
CC0D80
CC0D80
000000
000000
00CC00
00CC00
033200
033200
0CCD80
0CCD80
030200
030200
0CCD80
0CCD80
000000
000000
0CCD98
0CCD98
333260
333260
CCCD98
CCCD98
300000
300000
CC0000
CC0000
300000
FCCD80
CCCD80
333200
333200
CCCD80
CCCD80
300000
300000
CC0000
CC0000
300000
300000
CCCD98
CCCD98
333260
333260
0CCD98
0CCD98
ENDCHAR
STARTCHAR 1EC6
ENCODING 7878
SWIDTH 694 0
DWIDTH 27 0
BBX 21 49 3 -8
BITMAP
00CC00
00CC00
033200
033200
0CCD80
0CCD80
030200
030200
0CCD80
0CCD80
000000
000000
00CD98
00CD98
033260
033260
0CCD98
0CCD98
330000
330000
CC0000
CC0000
300000
FCCD80
CCCD80
333200
333200
CCCD80
CCCD80
300000
300000
CC0000
CC0000
330000
330000
0CCD98
0CCD98
033260
033260
00CD98
00CD98
000000
000000
00CC00
00CC00
003000
003000
00CC00
00CC00
ENDCHAR
STARTCHAR 1EC7
ENCODING 7879
SWIDTH 694 0
DWIDTH 27 0
BBX 21 49 3 -8
BITMAP
00CC00
00CC00
033200
033200
0CCD80
0CCD80
030200
030200
0CCD80
0CCD80
000000
000000
0CCD98
0CCD98
333260
333260
CCCD98
CCCD98
300000
300000
CC0000
CC0000
300000
FCCD80
CCCD80
333200
333200
CCCD80
CCCD80
300000
300000
CC0000
CC0000
300000
300000
CCCD98
CCCD98
333260
333260
0CCD98
0CCD98
000000
000000
00CC00
00CC00
003000
003000
00CC00
00CC00
ENDCHAR
STARTCHAR 1EC8
ENCODING 7880
SWIDTH 488 0
DWIDTH 19 0
BBX 14 45 3 0
BITMAP
CCC0
CCC0
3330
3330
CCCC
CCCC
0030
0030
0CCC
0CCC
0330
0330
0CC0
0CC0
0000
0000
CCCC
CCCC
3330
3330
CCCC
CCCC
0300
0300
0CC0
0CC0
0300
0FC0
0CC0
0300
0300
0CC0
0CC0
0300
0300
0CC0
0CC0
0300
0300
CCCC
CCCC
3330
3330
CCCC
CCCC
ENDCHAR
STARTCHAR 1EC9
ENCODING 7881
SWIDTH 282 0
DWIDTH 11 0
BBX 14 45 -1 0
BITMAP
CCC0
CCC0
3330
3330
CCCC
CCCC
0030
0030
0CCC
0CCC
0330
0330
0CC0
0CC0
0000
0000
0CC0
0CC0
0300
0300
0CC0
0CC0
0300
0300
0CC0
0CC0
0300
0FC0
0CC0
0300
0300
0CC0
0CC0
0300
0300
0CC0
0CC0
0300
0300
0CC0
0CC0
0300
0300
0CC0
0CC0
ENDCHAR
STARTCHAR 1ECA
ENCODING 7882
SWIDTH 488 0
DWIDTH 19 0
BBX 14 37 3 -8
BITMAP
CCCC
CCCC
3330
3330
CCCC
CCCC
0300
0300
0CC0
0CC0
0300
0FC0
0CC0
0300
0300
0CC0
0CC0
0300
0300
0CC0
0CC0
0300
0300
CCCC
CCCC
3330
3330
CCCC
CCCC
0000
0000
0CC0
0CC0
0300
0300
0CC0
0CC0
ENDCHAR
STARTCHAR 1ECB
ENCODING 7883
SWIDTH 282 0
DWIDTH 11 0
BBX 6 37 3 -8
BITMAP
CC
CC
30
30
CC
CC
30
30
CC
CC
30
FC
CC
30
30
CC
CC
30
30
CC
CC
30
30
CC
CC
30
30
CC
CC
00
00
CC
CC
30
30
CC
CC
ENDCHAR
STARTCHAR 1ECC
ENCODING 7884
SWIDTH 797 0
DWIDTH 31 0
BBX 25 37 3 -8
BITMAP
00CD8000
00CD8000
03326000
03326000
0CCD9800
0CCD9800
33006600
33006600
CC001980
CC001980
30000600
FC001F80
CC001980
30000600
30000600
CC001980
CC001980
30000600
30000600
CC001980
CC001980
33006600
33006600
0CCD9800
0CCD9800
03326000
03326000
00CD8000
00CD8000
00000000
00000000
00320000
00320000
000C0000
000C0000
00320000
00320000
ENDCHAR
STARTCHAR 1ECD
ENCODING 7885
SWIDTH 694 0
DWIDTH 27 0
BBX 21 37 3 -8
BITMAP
0CCD80
0CCD80
333260
333260
CCCD98
CCCD98
300060
300060
CC0198
CC0198
300060
FC01F8
CC0198
300060
300060
CC0198
CC0198
300060
300060
CC0198
CC0198
300060
300060
CCCD98
CCCD98
333260
333260
0CCD80
0CCD80
000000
000000
00CC00
00CC00
003000
003000
00CC00
00CC00
ENDCHAR
STARTCHAR 1ECE
ENCODING 7886
SWIDTH 797 0
DWIDTH 31 0
BBX 25 45 3 0
BITMAP
03320000
03320000
00CD8000
00CD8000
03326000
03326000
00018000
00018000
00326000
00326000
000D8000
000D8000
00320000
00320000
00000000
00000000
00CD8000
00CD8000
03326000
03326000
0CCD9800
0CCD9800
33006600
33006600
CC001980
CC001980
30000600
FC001F80
CC001980
30000600
30000600
CC001980
CC001980
30000600
30000600
CC001980
CC001980
33006600
33006600
0CCD9800
0CCD9800
03326000
03326000
00CD8000
00CD8000
ENDCHAR
STARTCHAR 1ECF
ENCODING 7887
SWIDTH 694 0
DWIDTH 27 0
BBX 21 45 3 0
BITMAP
0CCC00
0CCC00
033200
033200
0CCD80
0CCD80
000200
000200
00CD80
00CD80
003200
003200
00CC00
00CC00
000000
000000
0CCD80
0CCD80
333260
333260
CCCD98
CCCD98
300060
300060
CC0198
CC0198
300060
FC01F8
CC0198
300060
300060
CC0198
CC0198
300060
300060
CC0198
CC0198
300060
300060
CCCD98
CCCD98
333260
333260
0CCD80
0CCD80
ENDCHAR
STARTCHAR 1ED0
ENCODING 7888
SWIDTH 797 0
DWIDTH 31 0
BBX 25 53 3 0
BITMAP
00019800
00019800
00026000
00026000
000D8000
000D8000
00320000
00320000
00CC0000
00CC0000
00000000
00000000
00320000
00320000
00CD8000
00CD8000
03326000
03326000
00C18000
00C18000
03326000
03326000
00000000
00000000
00CD8000
00CD8000
03326000
03326000
0CCD9800
0CCD9800
33006600
33006600
CC001980
CC001980
30000600
FC001F80
CC001980
30000600
30000600
CC001980
CC001980
30000600
30000600
CC001980
CC001980
33006600
33006600
0CCD9800
0CCD9800
03326000
03326000
00CD8000
00CD8000
ENDCHAR
STARTCHAR 1ED1
ENCODING 7889
SWIDTH 694 0
DWIDTH 27 0
BBX 21 53 3 0
BITMAP
000260
000260
000D80
000D80
003200
003200
00CC00
00CC00
033000
033000
000000
000000
00CC00
00CC00
033200
033200
0CCD80
0CCD80
030200
030200
0CCD80
0CCD80
000000
000000
0CCD80
0CCD80
333260
333260
CCCD98
CCCD98
300060
300060
CC0198
CC0198
300060
FC01F8
CC0198
300060
300060
CC0198
CC0198
300060
300060
CC0198
CC0198
300060
300060
CCCD98
CCCD98
333260
333260
0CCD80
0CCD80
ENDCHAR
STARTCHAR 1ED2
ENCODING 7890
SWIDTH 797 0
DWIDTH 31 0
BBX 25 53 3 0
BITMAP
33000000
33000000
0CC00000
0CC00000
03300000
03300000
00CC0000
00CC0000
00320000
00320000
00000000
00000000
00320000
00320000
00CD8000
00CD8000
03326000
03326000
00C18000
00C18000
03326000
03326000
00000000
00000000
00CD8000
00CD8000
03326000
03326000
0CCD9800
0CCD9800
33006600
33006600
CC001980
CC001980
30000600
FC001F80
CC001980
30000600
30000600
CC001980
CC001980
30000600
30000600
CC001980
CC001980
33006600
33006600
0CCD9800
0CCD9800
03326000
03326000
00CD8000
00CD8000
ENDCHAR
STARTCHAR 1ED3
ENCODING 7891
SWIDTH 694 0
DWIDTH 27 0
BBX 21 53 3 0
BITMAP
CC0000
CC0000
330000
330000
0CC000
0CC000
033000
033000
00CC00
00CC00
000000
000000
00CC00
00CC00
033200
033200
0CCD80
0CCD80
030200
030200
0CCD80
0CCD80
000000
000000
0CCD80
0CCD80
333260
333260
CCCD98
CCCD98
300060
300060
CC0198
CC0198
300060
FC01F8
CC0198
300060
300060
CC0198
CC0198
300060
300060
CC0198
CC0198
300060
300060
CCCD98
CCCD98
333260
333260
0CCD80
0CCD80
ENDCHAR
STARTCHAR 1ED4
ENCODING 7892
SWIDTH 797 0
DWIDTH 31 0
BBX 25 56 3 0
BITMAP
03320000
03320000
00CD8000
03FFE000
03326000
00018000
00018000
00326000
00326000
000D8000
000D8000
00320000
00320000
00000000
00000000
00320000
00320000
00CD8000
00CD8000
03326000
03326000
00C18000
00C18000
03326000
03326000
00000000
00000000
00CD8000
00CD8000
03326000
03326000
0CCD9800
0CCD9800
33006600
33006600
CC001980
CC001980
30000600
FC001F80
CC001980
30000600
30000600
CC001980
CC001980
30000600
30000600
CC001980
CC001980
33006600
33006600
0CCD9800
0CCD9800
03326000
03326000
00CD8000
00CD8000
ENDCHAR
STARTCHAR 1ED5
ENCODING 7893
SWIDTH 694 0
DWIDTH 27 0
BBX 21 56 3 0
BITMAP
0CCC00
0CCC00
033200
0FFF80
0CCD80
000200
000200
00CD80
00CD80
003200
003200
00CC00
00CC00
000000
000000
00CC00
00CC00
033200
033200
0CCD80
0CCD80
030200
030200
0CCD80
0CCD80
000000
000000
0CCD80
0CCD80
333260
333260
CCCD98
CCCD98
300060
300060
CC0198
CC0198
300060
FC01F8
CC0198
300060
300060
CC0198
CC0198
300060
300060
CC0198
CC0198
300060
300060
CCCD98
CCCD98
333260
333260
0CCD80
0CCD80
ENDCHAR
STARTCHAR 1ED6
ENCODING 7894
SWIDTH 797 0
DWIDTH 31 0
BBX 25 53 3 0
BITMAP
03306600
03306600
0CCC1800
0CCC1800
33326600
33326600
0C0D9800
0C0D9800
33026000
33026000
00000000
00000000
00320000
00320000
00CD8000
00CD8000
03326000
03326000
00C18000
00C18000
03326000
03326000
00000000
00000000
00CD8000
00CD8000
03326000
03326000
0CCD9800
0CCD9800
33006600
33006600
CC001980
CC001980
30000600
FC001F80
CC001980
30000600
30000600
CC001980
CC001980
30000600
30000600
CC001980
CC001980
33006600
33006600
0CCD9800
0CCD9800
03326000
03326000
00CD8000
00CD8000
ENDCHAR
STARTCHAR 1ED7
ENCODING 7895
SWIDTH 694 0
DWIDTH 27 0
BBX 21 53 3 0
BITMAP
0CC198
0CC198
333060
333060
CCCD98
CCCD98
303260
303260
CC0D80
CC0D80
000000
000000
00CC00
00CC00
033200
033200
0CCD80
0CCD80
030200
030200
0CCD80
0CCD80
000000
000000
0CCD80
0CCD80
333260
333260
CCCD98
CCCD98
300060
300060
CC0198
CC0198
300060
FC01F8
CC0198
300060
300060
CC0198
CC0198
300060
300060
CC0198
CC0198
300060
300060
CCCD98
CCCD98
333260
333260
0CCD80
0CCD80
ENDCHAR
STARTCHAR 1ED8
ENCODING 7896
SWIDTH 797 0
DWIDTH 31 0
BBX 25 49 3 -8
BITMAP
00320000
00320000
00CD8000
00CD8000
03326000
03326000
00C18000
00C18000
03326000
03326000
00000000
00000000
00CD8000
00CD8000
03326000
03326000
0CCD9800
0CCD9800
33006600
33006600
CC001980
CC001980
30000600
FC001F80
CC001980
30000600
30000600
CC001980
CC001980
30000600
30000600
CC001980
CC001980
33006600
33006600
0CCD9800
0CCD9800
03326000
03326000
00CD8000
00CD8000
00000000
00000000
00320000
00320000
000C0000
000C0000
00320000
00320000
ENDCHAR
STARTCHAR 1ED9
ENCODING 7897
SWIDTH 694 0
DWIDTH 27 0
BBX 21 49 3 -8
BITMAP
00CC00
00CC00
033200
033200
0CCD80
0CCD80
030200
030200
0CCD80
0CCD80
000000
000000
0CCD80
0CCD80
333260
333260
CCCD98
CCCD98
300060
300060
CC0198
CC0198
300060
FC01F8
CC0198
300060
300060
CC0198
CC0198
300060
300060
CC0198
CC0198
300060
300060
CCCD98
CCCD98
333260
333260
0CCD80
0CCD80
000000
000000
00CC00
00CC00
003000
003000
00CC00
00CC00
ENDCHAR
STARTCHAR 1EDA
ENCODING 7898
SWIDTH 925 0
DWIDTH 36 0
BBX 33 41 3 0
BITMAP
0001980000
0001980000
0002600000
0002600000
000D800000
000D800000
0032000000
0032000000
00CC001980
00CC001980
0000000600
0000000600
0CCD999980
0CCD999980
3332666600
3332666600
CCCD999800
CCCD999800
3000060000
3000060000
CC00198000
CC00198000
3000060000
FC001F8000
CC00198000
3000060000
3000060000
CC00198000
CC00198000
3000060000
3000060000
CC00198000
CC00198000
3000060000
3000060000
CCCD998000
CCCD998000
3332660000
3332660000
0CCD980000
0CCD980000
ENDCHAR
STARTCHAR 1EDB
ENCODING 7899
SWIDTH 848 0
DWIDTH 33 0
BBX 29 41 3 0
BITMAP
00026000
00026000
000D8000
000D8000
00320000
00320000
00CC0000
00CC0000
03300198
03300198
00000060
00000060
0CCD9998
0CCD9998
33326660
33326660
CCCD9980
CCCD9980
30006000
30006000
CC019800
CC019800
30006000
FC01F800
CC019800
30006000
30006000
CC019800
CC019800
30006000
30006000
CC019800
CC019800
30006000
30006000
CCCD9800
CCCD9800
33326000
33326000
0CCD8000
0CCD8000
ENDCHAR
STARTCHAR 1EDC
ENCODING 7900
SWIDTH 925 0
DWIDTH 36 0
BBX 33 41 3 0
BITMAP
3300000000
3300000000
0CC0000000
0CC0000000
0330000000
0330000000
00CC000000
00CC000000
0032001980
0032001980
0000000600
0000000600
0CCD999980
0CCD999980
3332666600
3332666600
CCCD999800
CCCD999800
3000060000
3000060000
CC00198000
CC00198000
3000060000
FC001F8000
CC00198000
3000060000
3000060000
CC00198000
CC00198000
3000060000
3000060000
CC00198000
CC00198000
3000060000
3000060000
CCCD998000
CCCD998000
3332660000
3332660000
0CCD980000
0CCD980000
ENDCHAR
STARTCHAR 1EDD
ENCODING 7901
SWIDTH 848 0
DWIDTH 33 0
BBX 29 41 3 0
BITMAP
CC000000
CC000000
33000000
33000000
0CC00000
0CC00000
03300000
03300000
00CC0198
00CC0198
00000060
00000060
0CCD9998
0CCD9998
33326660
33326660
CCCD9980
CCCD9980
30006000
30006000
CC019800
CC019800
30006000
FC01F800
CC019800
30006000
30006000
CC019800
CC019800
30006000
30006000
CC019800
CC019800
30006000
30006000
CCCD9800
CCCD9800
33326000
33326000
0CCD8000
0CCD8000
ENDCHAR
STARTCHAR 1EDE
ENCODING 7902
SWIDTH 925 0
DWIDTH 36 0
BBX 33 45 3 0
BITMAP
0332000000
0332000000
00CD800000
00CD800000
0332600000
0332600000
0001800000
0001800000
0032600000
0032600000
000D800000
000D800000
0032001980
0032001980
0000000600
0000000600
0CCD999980
0CCD999980
3332666600
3332666600
CCCD999800
CCCD999800
3000060000
3000060000
CC00198000
CC00198000
3000060000
FC001F8000
CC00198000
3000060000
3000060000
CC00198000
CC00198000
3000060000
3000060000
CC00198000
CC00198000
3000060000
3000060000
CCCD998000
CCCD998000
3332660000
3332660000
0CCD980000
0CCD980000
ENDCHAR
STARTCHAR 1EDF
ENCODING 7903
SWIDTH 848 0
DWIDTH 33 0
BBX 29 45 3 0
BITMAP
0CCC0000
0CCC0000
03320000
03320000
0CCD8000
0CCD8000
00020000
00020000
00CD8000
00CD8000
00320000
00320000
00CC0198
00CC0198
00000060
00000060
0CCD9998
0CCD9998
33326660
33326660
CCCD9980
CCCD9980
30006000
30006000
CC019800
CC019800
30006000
FC01F800
CC019800
30006000
30006000
CC019800
CC019800
30006000
30006000
CC019800
CC019800
30006000
30006000
CCCD9800
CCCD9800
33326000
33326000
0CCD8000
0CCD8000
ENDCHAR
STARTCHAR 1EE0
ENCODING 7904
SWIDTH 925 0
DWIDTH 36 0
BBX 33 41 3 0
BITMAP
0330660000
0330660000
0CCC180000
0CCC180000
3332660000
3332660000
0C0D980000
0C0D980000
3302601980
3302601980
0000000600
0000000600
0CCD999980
0CCD999980
3332666600
3332666600
CCCD999800
CCCD999800
3000060000
3000060000
CC00198000
CC00198000
3000060000
FC001F8000
CC00198000
3000060000
3000060000
CC00198000
CC00198000
3000060000
3000060000
CC00198000
CC00198000
3000060000
3000060000
CCCD998000
CCCD998000
3332660000
3332660000
0CCD980000
0CCD980000
ENDCHAR
STARTCHAR 1EE1
ENCODING 7905
SWIDTH 848 0
DWIDTH 33 0
BBX 29 41 3 0
BITMAP
0CC19800
0CC19800
33306000
33306000
CCCD9800
CCCD9800
30326000
30326000
CC0D8198
CC0D8198
00000060
00000060
0CCD9998
0CCD9998
33326660
33326660
CCCD9980
CCCD9980
30006000
30006000
CC019800
CC019800
30006000
FC01F800
CC019800
30006000
30006000
CC019800
CC019800
30006000
30006000
CC019800
CC019800
30006000
30006000
CCCD9800
CCCD9800
33326000
33326000
0CCD8000
0CCD8000
ENDCHAR
STARTCHAR 1EE2
ENCODING 7906
SWIDTH 925 0
DWIDTH 36 0
BBX 33 41 3 -8
BITMAP
0000001980
0000001980
0000000600
0000000600
0CCD999980
0CCD999980
3332666600
3332666600
CCCD999800
CCCD999800
3000060000
3000060000
CC00198000
CC00198000
3000060000
FC001F8000
CC00198000
3000060000
3000060000
CC00198000
CC00198000
3000060000
3000060000
CC00198000
CC00198000
3000060000
3000060000
CCCD998000
CCCD998000
3332660000
3332660000
0CCD980000
0CCD980000
0000000000
0000000000
0032000000
0032000000
000C000000
000C000000
0032000000
0032000000
ENDCHAR
STARTCHAR 1EE3
ENCODING 7907
SWIDTH 848 0
DWIDTH 33 0
BBX 29 41 3 -8
BITMAP
00000198
00000198
00000060
00000060
0CCD9998
0CCD9998
33326660
33326660
CCCD9980
CCCD9980
30006000
30006000
CC019800
CC019800
30006000
FC01F800
CC019800
30006000
30006000
CC019800
CC019800
30006000
30006000
CC019800
CC019800
30006000
30006000
CCCD9800
CCCD9800
33326000
33326000
0CCD8000
0CCD8000
00000000
00000000
00CC0000
00CC0000
00300000
00300000
00CC0000
00CC0000
ENDCHAR
STARTCHAR 1EE4
ENCODING 7908
SWIDTH 797 0
DWIDTH 31 0
BBX 25 37 3 -8
BITMAP
CC001980
CC001980
30000600
30000600
CC001980
CC001980
30000600
30000600
CC001980
CC001980
30000600
FC001F80
CC001980
30000600
30000600
CC001980
CC001980
30000600
30000600
CC001980
CC001980
33006600
33006600
0CCD9800
0CCD9800
03326000
03326000
00CD8000
00CD8000
00000000
00000000
00320000
00320000
000C0000
000C0000
00320000
00320000
ENDCHAR
STARTCHAR 1EE5
ENCODING 7909
SWIDTH 694 0
DWIDTH 27 0
BBX 21 37 3 -8
BITMAP
CC0198
CC0198
300060
300060
CC0198
CC0198
300060
300060
CC0198
CC0198
300060
FC01F8
CC0198
300060
300060
CC0198
CC0198
300060
300060
CC0198
CC0198
300060
300060
CCCD98
CCCD98
333260
333260
0CCD80
0CCD80
000000
000000
00CC00
00CC00
003000
003000
00CC00
00CC00
ENDCHAR
STARTCHAR 1EE6
ENCODING 7910
SWIDTH 797 0
DWIDTH 31 0
BBX 25 45 3 0
BITMAP
03320000
03320000
00CD8000
00CD8000
03326000
03326000
00018000
00018000
00326000
00326000
000D8000
000D8000
00320000
00320000
00000000
00000000
CC001980
CC001980
30000600
30000600
CC001980
CC001980
30000600
30000600
CC001980
CC001980
30000600
FC001F80
CC001980
30000600
30000600
CC001980
CC001980
30000600
30000600
CC001980
CC001980
33006600
33006600
0CCD9800
0CCD9800
03326000
03326000
00CD8000
00CD8000
ENDCHAR
STARTCHAR 1EE7
ENCODING 7911
SWIDTH 694 0
DWIDTH 27 0
BBX 21 45 3 0
BITMAP
0CCC00
0CCC00
033200
033200
0CCD80
0CCD80
000200
000200
00CD80
00CD80
003200
003200
00CC00
00CC00
000000
000000
CC0198
CC0198
300060
300060
CC0198
CC0198
300060
300060
CC0198
CC0198
300060
FC01F8
CC0198
300060
300060
CC0198
CC0198
300060
300060
CC0198
CC0198
300060
300060
CCCD98
CCCD98
333260
333260
0CCD80
0CCD80
ENDCHAR
STARTCHAR 1EE8
ENCODING 7912
SWIDTH 925 0
DWIDTH 36 0
BBX 33 41 3 0
BITMAP
0001980000
0001980000
0002600000
0002600000
000D800000
000D800000
0032000000
0032000000
00CC001980
00CC001980
0000000600
0000000600
CC00199980
CC00199980
3000066600
3000066600
CC00199800
CC00199800
3000060000
3000060000
CC00198000
CC00198000
3000060000
FC001F8000
CC00198000
3000060000
3000060000
CC00198000
CC00198000
3000060000
3000060000
CC00198000
CC00198000
3300660000
3300660000
0CCD980000
0CCD980000
0332600000
0332600000
00CD800000
00CD800000
ENDCHAR
STARTCHAR 1EE9
ENCODING 7913
SWIDTH 848 0
DWIDTH 33 0
BBX 29 41 3 0
BITMAP
00026000
00026000
000D8000
000D8000
00320000
00320000
00CC0000
00CC0000
03300198
03300198
00000060
00000060
CC019998
CC019998
30006660
30006660
CC019980
CC019980
30006000
30006000
CC019800
CC019800
30006000
FC01F800
CC019800
30006000
30006000
CC019800
CC019800
30006000
30006000
CC019800
CC019800
30006000
30006000
CCCD9800
CCCD9800
33326000
33326000
0CCD8000
0CCD8000
ENDCHAR
STARTCHAR 1EEA
ENCODING 7914
SWIDTH 925 0
DWIDTH 36 0
BBX 33 41 3 0
BITMAP
3300000000
3300000000
0CC0000000
0CC0000000
0330000000
0330000000
00CC000000
00CC000000
0032001980
0032001980
0000000600
0000000600
CC00199980
CC00199980
3000066600
3000066600
CC00199800
CC00199800
3000060000
3000060000
CC00198000
CC00198000
3000060000
FC001F8000
CC00198000
3000060000
3000060000
CC00198000
CC00198000
3000060000
3000060000
CC00198000
CC00198000
3300660000
3300660000
0CCD980000
0CCD980000
0332600000
0332600000
00CD800000
00CD800000
ENDCHAR
STARTCHAR 1EEB
ENCODING 7915
SWIDTH 848 0
DWIDTH 33 0
BBX 29 41 3 0
BITMAP
CC000000
CC000000
33000000
33000000
0CC00000
0CC00000
03300000
03300000
00CC0198
00CC0198
00000060
00000060
CC019998
CC019998
30006660
30006660
CC019980
CC019980
30006000
30006000
CC019800
CC019800
30006000
FC01F800
CC019800
30006000
30006000
CC019800
CC019800
30006000
30006000
CC019800
CC019800
30006000
30006000
CCCD9800
CCCD9800
33326000
33326000
0CCD8000
0CCD8000
ENDCHAR
STARTCHAR 1EEC
ENCODING 7916
SWIDTH 925 0
DWIDTH 36 0
BBX 33 45 3 0
BITMAP
0332000000
0332000000
00CD800000
00CD800000
0332600000
0332600000
0001800000
0001800000
0032600000
0032600000
000D800000
000D800000
0032001980
0032001980
0000000600
0000000600
CC00199980
CC00199980
3000066600
3000066600
CC00199800
CC00199800
3000060000
3000060000
CC00198000
CC00198000
3000060000
FC001F8000
CC00198000
3000060000
3000060000
CC00198000
CC00198000
3000060000
3000060000
CC00198000
CC00198000
3300660000
3300660000
0CCD980000
0CCD980000
0332600000
0332600000
00CD800000
00CD800000
ENDCHAR
STARTCHAR 1EED
ENCODING 7917
SWIDTH 848 0
DWIDTH 33 0
BBX 29 45 3 0
BITMAP
0CCC0000
0CCC0000
03320000
03320000
0CCD8000
0CCD8000
00020000
00020000
00CD8000
00CD8000
00320000
00320000
00CC0198
00CC0198
00000060
00000060
CC019998
CC019998
30006660
30006660
CC019980
CC019980
30006000
30006000
CC019800
CC019800
30006000
FC01F800
CC019800
30006000
30006000
CC019800
CC019800
30006000
30006000
CC019800
CC019800
30006000
30006000
CCCD9800
CCCD9800
33326000
33326000
0CCD8000
0CCD8000
ENDCHAR
STARTCHAR 1EEE
ENCODING 7918
SWIDTH 925 0
DWIDTH 36 0
BBX 33 41 3 0
BITMAP
0330660000
0330660000
0CCC180000
0CCC180000
3332660000
3332660000
0C0D980000
0C0D980000
3302601980
3302601980
0000000600
0000000600
CC00199980
CC00199980
3000066600
3000066600
CC00199800
CC00199800
3000060000
3000060000
CC00198000
CC00198000
3000060000
FC001F8000
CC00198000
3000060000
3000060000
CC00198000
CC00198000
3000060000
3000060000
CC00198000
CC00198000
3300660000
3300660000
0CCD980000
0CCD980000
0332600000
0332600000
00CD800000
00CD800000
ENDCHAR
STARTCHAR 1EEF
ENCODING 7919
SWIDTH 848 0
DWIDTH 33 0
BBX 29 41 3 0
BITMAP
0CC19800
0CC19800
33306000
33306000
CCCD9800
CCCD9800
30326000
30326000
CC0D8198
CC0D8198
00000060
00000060
CC019998
CC019998
30006660
30006660
CC019980
CC019980
30006000
30006000
CC019800
CC019800
30006000
FC01F800
CC019800
30006000
30006000
CC019800
CC019800
30006000
30006000
CC019800
CC019800
30006000
30006000
CCCD9800
CCCD9800
33326000
33326000
0CCD8000
0CCD8000
ENDCHAR
STARTCHAR 1EF0
ENCODING 7920
SWIDTH 925 0
DWIDTH 36 0
BBX 33 41 3 -8
BITMAP
0000001980
0000001980
0000000600
0000000600
CC00199980
CC00199980
3000066600
3000066600
CC00199800
CC00199800
3000060000
3000060000
CC00198000
CC00198000
3000060000
FC001F8000
CC00198000
3000060000
3000060000
CC00198000
CC00198000
3000060000
3000060000
CC00198000
CC00198000
3300660000
3300660000
0CCD980000
0CCD980000
0332600000
0332600000
00CD800000
00CD800000
0000000000
0000000000
0032000000
0032000000
000C000000
000C000000
0032000000
0032000000
ENDCHAR
STARTCHAR 1EF1
ENCODING 7921
SWIDTH 848 0
DWIDTH 33 0
BBX 29 41 3 -8
BITMAP
00000198
00000198
00000060
00000060
CC019998
CC019998
30006660
30006660
CC019980
CC019980
30006000
30006000
CC019800
CC019800
30006000
FC01F800
CC019800
30006000
30006000
CC019800
CC019800
30006000
30006000
CC019800
CC019800
30006000
30006000
CCCD9800
CCCD9800
33326000
33326000
0CCD8000
0CCD8000
00000000
00000000
00CC0000
00CC0000
00300000
00300000
00CC0000
00CC0000
ENDCHAR
STARTCHAR 1EF2
ENCODING 7922
SWIDTH 694 0
DWIDTH 27 0
BBX 21 41 3 0
BITMAP
CC0000
CC0000
330000
330000
0CC000
0CC000
033000
033000
00CC00
00CC00
000000
000000
CC0198
CC0198
300060
300060
CC0198
CC0198
300060
300060
CC0198
CC0198
300060
FC01F8
CC0198
330260
330260
0CCD80
0CCD80
033200
033200
00CC00
00CC00
003000
003000
00CC00
00CC00
003000
003000
00CC00
00CC00
ENDCHAR
STARTCHAR 1EF3
ENCODING 7923
SWIDTH 694 0
DWIDTH 27 0
BBX 21 41 3 0
BITMAP
CC0000
CC0000
330000
330000
0CC000
0CC000
033000
033000
00CC00
00CC00
000000
000000
CC0198
CC0198
300060
300060
CC0198
CC0198
300060
300060
CC0198
CC0198
300060
FC01F8
CC0198
300060
300060
CCCD98
CCCD98
333260
333260
0CCD80
0CCD80
003000
003000
00CC00
00CC00
003000
003000
00CC00
00CC00
ENDCHAR
STARTCHAR 1EF4
ENCODING 7924
SWIDTH 694 0
DWIDTH 27 0
BBX 21 37 3 -8
BITMAP
CC0198
CC0198
300060
300060
CC0198
CC0198
300060
300060
CC0198
CC0198
300060
FC01F8
CC0198
330260
330260
0CCD80
0CCD80
033200
033200
00CC00
00CC00
003000
003000
00CC00
00CC00
003000
003000
00CC00
00CC00
000000
000000
00CC00
00CC00
003000
003000
00CC00
00CC00
ENDCHAR
STARTCHAR 1EF5
ENCODING 7925
SWIDTH 694 0
DWIDTH 27 0
BBX 21 37 3 -8
BITMAP
CC0198
CC0198
300060
300060
CC0198
CC0198
300060
300060
CC0198
CC0198
300060
FC01F8
CC0198
300060
300060
CCCD98
CCCD98
333260
333260
0CCD80
0CCD80
003000
003000
00CC00
00CC00
003000
003000
00CC00
00CC00
000000
000000
00CC00
00CC00
003000
003000
00CC00
00CC00
ENDCHAR
STARTCHAR 1EF6
ENCODING 7926
SWIDTH 694 0
DWIDTH 27 0
BBX 21 45 3 0
BITMAP
0CCC00
0CCC00
033200
033200
0CCD80
0CCD80
000200
000200
00CD80
00CD80
003200
003200
00CC00
00CC00
000000
000000
CC0198
CC0198
300060
300060
CC0198
CC0198
300060
300060
CC0198
CC0198
300060
FC01F8
CC0198
330260
330260
0CCD80
0CCD80
033200
033200
00CC00
00CC00
003000
003000
00CC00
00CC00
003000
003000
00CC00
00CC00
ENDCHAR
STARTCHAR 1EF7
ENCODING 7927
SWIDTH 694 0
DWIDTH 27 0
BBX 21 45 3 0
BITMAP
0CCC00
0CCC00
033200
033200
0CCD80
0CCD80
000200
000200
00CD80
00CD80
003200
003200
00CC00
00CC00
000000
000000
CC0198
CC0198
300060
300060
CC0198
CC0198
300060
300060
CC0198
CC0198
300060
FC01F8
CC0198
300060
300060
CCCD98
CCCD98
333260
333260
0CCD80
0CCD80
003000
003000
00CC00
00CC00
003000
003000
00CC00
00CC00
ENDCHAR
STARTCHAR 1EF8
ENCODING 7928
SWIDTH 694 0
DWIDTH 27 0
BBX 21 41 3 0
BITMAP
0CC198
0CC198
333060
333060
CCCD98
CCCD98
303260
303260
CC0D80
CC0D80
000000
000000
CC0198
CC0198
300060
300060
CC0198
CC0198
300060
300060
CC0198
CC0198
300060
FC01F8
CC0198
330260
330260
0CCD80
0CCD80
033200
033200
00CC00
00CC00
003000
003000
00CC00
00CC00
003000
003000
00CC00
00CC00
ENDCHAR
STARTCHAR 1EF9
ENCODING 7929
SWIDTH 694 0
DWIDTH 27 0
BBX 21 41 3 0
BITMAP
0CC198
0CC198
333060
333060
CCCD98
CCCD98
303260
303260
CC0D80
CC0D80
000000
000000
CC0198
CC0198
300060
300060
CC0198
CC0198
300060
300060
CC0198
CC0198
300060
FC01F8
CC0198
300060
300060
CCCD98
CCCD98
333260
333260
0CCD80
0CCD80
003000
003000
00CC00
00CC00
003000
003000
00CC00
00CC00
ENDCHAR
STARTCHAR 2013
ENCODING 8211
SWIDTH 694 0
DWIDTH 27 0
BBX 25 6 1 12
BITMAP
CCCC9980
CCCC9980
33336600
33336600
CCCC9980
CCCC9980
ENDCHAR
STARTCHAR 2014
ENCODING 8212
SWIDTH 977 0
DWIDTH 38 0
BBX 37 6 1 12
BITMAP
CCCC999998
CCCC999998
3333666660
3333666660
CCCC999998
CCCC999998
ENDCHAR
STARTCHAR 2018
ENCODING 8216
SWIDTH 180 0
DWIDTH 7 0
BBX 6 10 1 23
BITMAP
0C
0C
30
30
CC
CC
30
30
CC
CC
ENDCHAR
STARTCHAR 2019
ENCODING 8217
SWIDTH 180 0
DWIDTH 7 0
BBX 6 10 1 23
BITMAP
CC
CC
30
30
CC
CC
30
30
C0
C0
ENDCHAR
STARTCHAR 201A
ENCODING 8218
SWIDTH 180 0
DWIDTH 7 0
BBX 6 10 1 -4
BITMAP
CC
CC
30
30
CC
CC
30
30
C0
C0
ENDCHAR
STARTCHAR 201C
ENCODING 8220
SWIDTH 437 0
DWIDTH 17 0
BBX 16 10 1 23
BITMAP
0C03
0C03
300C
300C
CC33
CC33
300C
300C
CC33
CC33
ENDCHAR
STARTCHAR 201D
ENCODING 8221
SWIDTH 437 0
DWIDTH 17 0
BBX 16 10 1 23
BITMAP
CC33
CC33
300C
300C
CC33
CC33
300C
300C
C030
C030
ENDCHAR
STARTCHAR 201E
ENCODING 8222
SWIDTH 437 0
DWIDTH 17 0
BBX 16 10 1 -4
BITMAP
CC33
CC33
300C
300C
CC33
CC33
300C
300C
C030
C030
ENDCHAR
STARTCHAR 2020
ENCODING 8224
SWIDTH 488 0
DWIDTH 19 0
BBX 14 29 3 0
BITMAP
0CC0
0CC0
0300
0300
CCCC
CCCC
3330
3330
CCCC
CCCC
0300
0FC0
0CC0
0300
0300
0CC0
0CC0
0300
0300
0CC0
0CC0
0300
0300
0CC0
0CC0
0300
0300
0CC0
0CC0
ENDCHAR
STARTCHAR 2021
ENCODING 8225
SWIDTH 488 0
DWIDTH 19 0
BBX 14 29 3 0
BITMAP
0CC0
0CC0
0300
0300
CCCC
CCCC
3330
3330
CCCC
CCCC
0300
0FC0
0CC0
0300
0300
CCCC
CCCC
3330
3330
CCCC
CCCC
0300
0300
0CC0
0CC0
0300
0300
0CC0
0CC0
ENDCHAR
STARTCHAR 2022
ENCODING 8226
SWIDTH 385 0
DWIDTH 15 0
BBX 14 13 1 8
BITMAP
0CC0
0CC0
3330
FFFC
CCCC
3330
3330
CCCC
CCCC
3330
3330
0CC0
0CC0
ENDCHAR
STARTCHAR 2026
ENCODING 8230
SWIDTH 591 0
DWIDTH 23 0
BBX 21 6 1 0
BITMAP
CCCC98
CCCC98
303060
303060
CCCC98
CCCC98
ENDCHAR
STARTCHAR 2030
ENCODING 8240
SWIDTH 1800 0
DWIDTH 70 0
BBX 64 29 3 0
BITMAP
0CCC019800000000
0CCC019800000000
3332006000000000
3332006000000000
CCCD819800000000
CCCD819800000000
3002066000000000
3002066000000000
CC0D818000000000
CC0D818000000000
3002066000000000
FCCF9FE199803330
CCCD998199803330
3332060666604CCC
3332060666604CCC
0CCC19999999B333
0CCC19999999B333
000066060060400C
000066060060400C
000018198199B033
000018198199B033
000066060060400C
000066060060400C
000198199999B333
000198199999B333
0000600666604CCC
0000600666604CCC
0001980199803330
0001980199803330
ENDCHAR
STARTCHAR 2039
ENCODING 8249
SWIDTH 540 0
DWIDTH 21 0
BBX 16 21 1 4
BITMAP
0033
0033
00CC
00CC
0330
0330
0CC0
3FC0
3300
CC00
CC00
3300
3300
0CC0
0CC0
0330
0330
00CC
00CC
0033
0033
ENDCHAR
STARTCHAR 203A
ENCODING 8250
SWIDTH 540 0
DWIDTH 21 0
BBX 15 21 5 4
BITMAP
CC00
CC00
3300
3300
0CC0
0CC0
0330
03F8
00C8
0036
0036
00C8
00C8
0330
0330
0CC0
0CC0
3300
3300
CC00
CC00
ENDCHAR
STARTCHAR 2044
ENCODING 8260
SWIDTH 385 0
DWIDTH 15 0
BBX 14 29 1 0
BITMAP
00CC
00CC
0030
0030
00CC
00CC
0330
0330
00C0
00C0
0330
0FF0
0CC0
0300
0300
0CC0
0CC0
3300
3300
0C00
0C00
3300
3300
CC00
CC00
3000
3000
CC00
CC00
ENDCHAR
STARTCHAR 20AC
ENCODING 8364
SWIDTH 797 0
DWIDTH 31 0
BBX 25 41 3 -4
BITMAP
000D9980
000D9980
00326600
00326600
00CD9980
00CD9980
03300000
03300000
0CC00000
0CC00000
03000000
03000000
CCCD9800
CCCD9800
33326000
33326000
CCCD9800
CCCD9800
03000000
0FC00000
0CC00000
03000000
03000000
CCCD9800
CCCD9800
33326000
33326000
CCCD9800
CCCD9800
03000000
03000000
0CC00000
0CC00000
03300000
03300000
00CD9980
00CD9980
00326600
00326600
000D9980
000D9980
ENDCHAR
STARTCHAR 2212
ENCODING 8722
SWIDTH 694 0
DWIDTH 27 0
BBX 21 6 3 12
BITMAP
CCCD98
CCCD98
333260
333260
CCCD98
CCCD98
ENDCHAR
STARTCHAR E000
ENCODING 57344
SWIDTH 694 0
DWIDTH 27 0
BBX 21 29 3 0
BITMAP
CCCD98
CCCD98
333260
333260
CCCD98
CCCD98
300060
300060
CC0198
CC0198
300060
FC01F8
CC0198
300060
300060
CCCD98
CCCD98
333260
333260
CCCD98
CCCD98
300060
300060
CC0198
CC0198
300060
300060
CC0198
CC0198
ENDCHAR
STARTCHAR E017
ENCODING 57367
SWIDTH 1080 0
DWIDTH 42 0
BBX 37 29 3 0
BITMAP
CCCD999998
CCCD999998
3332666660
3332666660
CCCD999998
CCCD999998
3000600000
3000600000
CC01980000
CC01980000
3000600000
FC01F99980
CC01999980
3000666600
3000666600
CCCD999980
CCCD999980
3332600000
3332600000
CCCD980000
CCCD980000
3000600000
3000600000
CC01999998
CC01999998
3000666660
3000666660
CC01999998
CC01999998
ENDCHAR
STARTCHAR E018
ENCODING 57368
SWIDTH 694 0
DWIDTH 27 0
BBX 21 29 3 0
BITMAP
CCCD98
CCCD98
333260
333260
CCCD98
CCCD98
300060
300060
CC0198
CC0198
300260
FCCFE0
CCCD80
333200
333200
CCCD80
CCCD80
300260
300260
CC0198
CC0198
300060
300060
CCCD98
CCCD98
333260
333260
CCCD98
CCCD98
ENDCHAR
STARTCHAR E019
ENCODING 57369
SWIDTH 797 0
DWIDTH 31 0
BBX 25 29 3 0
BITMAP
CCCD9980
CCCD9980
33326600
33326600
CCCD9980
CCCD9980
30000600
30000600
CC001980
CC001980
30000600
FC001F80
CC001980
30000000
30000000
CC000000
CC000000
30000000
30000000
CC001980
CC001980
30000600
30000600
CCCD9980
CCCD9980
33326600
33326600
CCCD9980
CCCD9980
ENDCHAR
STARTCHAR E01E
ENCODING 57374
SWIDTH 797 0
DWIDTH 31 0
BBX 25 29 3 0
BITMAP
CCCD9800
CCCD9800
33326600
33326600
CCCD9980
CCCD9980
30000600
30000600
CC001980
CC001980
30000600
FC001F80
CC001980
30000600
30000600
CC001980
CC001980
30000600
30000600
CC001980
CC001980
30000600
30000600
CCCD9980
CCCD9980
33326600
33326600
CCCD9800
CCCD9800
ENDCHAR
STARTCHAR E01F
ENCODING 57375
SWIDTH 848 0
DWIDTH 33 0
BBX 29 29 1 0
BITMAP
0CCC9980
0CCC9980
03336660
03336660
0CCC9998
0CCC9998
03000060
03000060
0CC00198
0CC00198
03000060
CFCC01F8
CCCC0198
33300060
33300060
CCCC0198
CCCC0198
03000060
03000060
0CC00198
0CC00198
03000060
03000060
0CCC9998
0CCC9998
03336660
03336660
0CCC9980
0CCC9980
ENDCHAR
STARTCHAR E021
ENCODING 57377
SWIDTH 848 0
DWIDTH 33 0
BBX 29 29 1 0
BITMAP
0CCC9980
0CCC9980
03336660
03336660
0CCC9998
0CCC9998
03000060
03000060
0CC00198
0CC00198
03000060
CFCC01F8
CCCC0198
33300060
33300060
CCCC0198
CCCC0198
03000060
03000060
0CC00198
0CC00198
03000060
03000060
0CCC9998
0CCC9998
03336660
03336660
0CCC9980
0CCC9980
ENDCHAR
STARTCHAR E022
ENCODING 57378
SWIDTH 694 0
DWIDTH 27 0
BBX 21 29 3 0
BITMAP
CCCD98
CCCD98
333260
333260
CCCD98
CCCD98
300000
300000
CC0000
CC0000
300000
FCCD80
CCCD80
333200
333200
CCCD80
CCCD80
300000
300000
CC0000
CC0000
300000
300000
CCCD98
CCCD98
333260
333260
CCCD98
CCCD98
ENDCHAR
STARTCHAR E033
ENCODING 57395
SWIDTH 694 0
DWIDTH 27 0
BBX 21 29 3 0
BITMAP
CCCD98
CCCD98
333260
333260
CCCD98
CCCD98
300000
300000
CC0000
CC0000
300000
FCCD80
CCCD80
333200
333200
CCCD80
CCCD80
300000
300000
CC0000
CC0000
300000
300000
CC0000
CC0000
300000
300000
CC0000
CC0000
ENDCHAR
STARTCHAR E034
ENCODING 57396
SWIDTH 797 0
DWIDTH 31 0
BBX 25 29 3 0
BITMAP
CCCD9980
CCCD9980
33326600
33326600
CCCD9980
CCCD9980
30000000
30000000
CC000000
CC000000
30000000
FC0D9980
CC0D9980
30026600
30026600
CC0D9980
CC0D9980
30000600
30000600
CC001980
CC001980
30000600
30000600
CCCD9980
CCCD9980
33326600
33326600
CCCD9980
CCCD9980
ENDCHAR
STARTCHAR E038
ENCODING 57400
SWIDTH 591 0
DWIDTH 23 0
BBX 17 29 3 0
BITMAP
CCCD80
CCCD80
333200
333200
CCCD80
CCCD80
000200
000200
000D80
000D80
000200
000F80
000D80
000200
000200
CC0D80
CC0D80
300200
300200
CC0D80
CC0D80
300200
300200
CCCD80
CCCD80
333200
333200
CCCC00
CCCC00
ENDCHAR
STARTCHAR E039
ENCODING 57401
SWIDTH 694 0
DWIDTH 27 0
BBX 21 29 3 0
BITMAP
CC0198
CC0198
300060
300060
CC0198
CC0198
300260
300260
CC0D80
CC0D80
303200
FCFF98
CCCD98
333260
333260
CCCD98
CCCD98
300060
300060
CC0198
CC0198
300060
300060
CC0198
CC0198
300060
300060
CC0198
CC0198
ENDCHAR
STARTCHAR E03B
ENCODING 57403
SWIDTH 694 0
DWIDTH 27 0
BBX 21 29 3 0
BITMAP
CC0000
CC0000
300000
300000
CC0000
CC0000
300000
300000
CC0000
CC0000
300000
FC0000
CC0000
300000
300000
CC0000
CC0000
300000
300000
CC0000
CC0000
300000
300000
CCCD98
CCCD98
333260
333260
CCCD98
CCCD98
ENDCHAR
STARTCHAR E040
ENCODING 57408
SWIDTH 1080 0
DWIDTH 42 0
BBX 37 29 3 0
BITMAP
CCCD999998
CCCD999998
3332666660
3332666660
CCCD999998
CCCD999998
3000600060
3000600060
CC01980198
CC01980198
3000600060
FC01F801F8
CC01980198
3000600060
3000600060
CC01980198
CC01980198
3000600060
3000600060
CC01980198
CC01980198
3000600060
3000600060
CC01980198
CC01980198
3000600060
3000600060
CC01980198
CC01980198
ENDCHAR
STARTCHAR E041
ENCODING 57409
SWIDTH 797 0
DWIDTH 31 0
BBX 25 29 3 0
BITMAP
CCCD9980
CCCD9980
33326600
33326600
CCCD9980
CCCD9980
30000600
30000600
CC001980
CC001980
30000600
FC001F80
CC001980
30000600
30000600
CC001980
CC001980
30000600
30000600
CC001980
CC001980
30000600
30000600
CC001980
CC001980
30000600
30000600
CC001980
CC001980
ENDCHAR
STARTCHAR E045
ENCODING 57413
SWIDTH 797 0
DWIDTH 31 0
BBX 25 37 3 -8
BITMAP
CCCD9980
CCCD9980
33326600
33326600
CCCD9980
CCCD9980
30000600
30000600
CC001980
CC001980
30000600
FC001F80
CC001980
30000600
30000600
CC001980
CC001980
30000600
30000600
CC001980
CC001980
30000600
30000600
CC001980
CC001980
30000600
30000600
CC001980
CC001980
00000600
00000600
00019980
00019980
00006600
00006600
00019800
00019800
ENDCHAR
STARTCHAR E047
ENCODING 57415
SWIDTH 797 0
DWIDTH 31 0
BBX 25 29 3 0
BITMAP
CCCD9980
CCCD9980
33326600
33326600
CCCD9980
CCCD9980
30000600
30000600
CC001980
CC001980
30000600
FC001F80
CC001980
30000600
30000600
CC001980
CC001980
30000600
30000600
CC001980
CC001980
30000600
30000600
CCCD9980
CCCD9980
33326600
33326600
CCCD9980
CCCD9980
ENDCHAR
STARTCHAR E054
ENCODING 57428
SWIDTH 925 0
DWIDTH 36 0
BBX 33 33 3 0
BITMAP
0000001980
0000001980
0000000600
0000000600
CCCD999980
CCCD999980
3332666600
3332666600
CCCD999800
CCCD999800
3000060000
3000060000
CC00198000
CC00198000
3000060000
FC001F8000
CC00198000
3000060000
3000060000
CC00198000
CC00198000
3000060000
3000060000
CC00198000
CC00198000
3000060000
3000060000
CCCD998000
CCCD998000
3332660000
3332660000
CCCD998000
CCCD998000
ENDCHAR
STARTCHAR E05E
ENCODING 57438
SWIDTH 1182 0
DWIDTH 46 0
BBX 41 29 3 0
BITMAP
CCCD99999980
CCCD99999980
333266666600
333266666600
CCCD99999980
CCCD99999980
300006000000
300006000000
CC0019800000
CC0019800000
300006000000
FC001F999800
CC0019999800
300006666000
300006666000
CC0019999800
CC0019999800
300006000000
300006000000
CC0019800000
CC0019800000
300006000000
300006000000
CCCD99999980
CCCD99999980
333266666600
333266666600
CCCD99999980
CCCD99999980
ENDCHAR
STARTCHAR E05F
ENCODING 57439
SWIDTH 694 0
DWIDTH 27 0
BBX 21 29 3 0
BITMAP
CCCD98
CCCD98
333260
333260
CCCD98
CCCD98
300060
300060
CC0198
CC0198
300060
FC01F8
CC0198
300060
300060
CC0198
CC0198
300060
300060
CCCD98
CCCD98
333260
333260
CCCD98
CCCD98
300000
300000
CC0000
CC0000
ENDCHAR
STARTCHAR E060
ENCODING 57440
SWIDTH 694 0
DWIDTH 27 0
BBX 21 29 3 0
BITMAP
CC0000
CC0000
300000
300000
CCCD98
CCCD98
333260
333260
CCCD98
CCCD98
300060
FC01F8
CC0198
300060
300060
CC0198
CC0198
300060
300060
CCCD98
CCCD98
333260
333260
CCCD98
CCCD98
300000
300000
CC0000
CC0000
ENDCHAR
STARTCHAR E061
ENCODING 57441
SWIDTH 797 0
DWIDTH 31 0
BBX 25 33 3 -4
BITMAP
CCCD9980
CCCD9980
33326600
33326600
CCCD9980
CCCD9980
30000600
30000600
CC001980
CC001980
30000600
FC001F80
CC001980
30000600
30000600
CC001980
CC001980
30000600
30000600
CC0D9980
CC0D9980
30020600
30020600
CCCD9980
CCCD9980
33326600
33326600
CCCD9980
CCCD9980
00020000
00020000
000D8000
000D8000
ENDCHAR
STARTCHAR E062
ENCODING 57442
SWIDTH 694 0
DWIDTH 27 0
BBX 21 29 3 0
BITMAP
CCCD98
CCCD98
333260
333260
CCCD98
CCCD98
300060
300060
CC0198
CC0198
300060
FC01F8
CC0198
300060
300060
CC0198
CC0198
300060
300060
CCCD98
CCCD98
333260
333260
CCCD80
CCCD80
300260
300260
CC0198
CC0198
ENDCHAR
STARTCHAR E066
ENCODING 57446
SWIDTH 694 0
DWIDTH 27 0
BBX 21 29 3 0
BITMAP
CCCD98
CCCD98
333260
333260
CCCD98
CCCD98
300060
300060
CC0198
CC0198
300000
FCCD80
CCCD80
333260
333260
0CCD98
0CCD98
000060
000060
CC0198
CC0198
300060
300060
CCCD98
CCCD98
333260
333260
CCCD98
CCCD98
ENDCHAR
STARTCHAR E06C
ENCODING 57452
SWIDTH 797 0
DWIDTH 31 0
BBX 25 29 3 0
BITMAP
CC001980
CC001980
30000600
30000600
CC001980
CC001980
30000600
30000600
CC001980
CC001980
30000600
FC001F80
CC001980
30000600
30000600
CC001980
CC001980
30000600
30000600
CC001980
CC001980
30000600
30000600
CCCD9980
CCCD9980
33326600
33326600
CCCD9980
CCCD9980
ENDCHAR
STARTCHAR E078
ENCODING 57464
SWIDTH 925 0
DWIDTH 36 0
BBX 33 33 3 0
BITMAP
0000001980
0000001980
0000000600
0000000600
CC00199980
CC00199980
3000066600
3000066600
CC00199800
CC00199800
3000060000
3000060000
CC00198000
CC00198000
3000060000
FC001F8000
CC00198000
3000060000
3000060000
CC00198000
CC00198000
3000060000
3000060000
CC00198000
CC00198000
3000060000
3000060000
CCCD998000
CCCD998000
3332660000
3332660000
CCCD998000
CCCD998000
ENDCHAR
STARTCHAR E083
ENCODING 57475
SWIDTH 1080 0
DWIDTH 42 0
BBX 37 29 3 0
BITMAP
CC01980198
CC01980198
3000600060
3000600060
CC01980198
CC01980198
3000600060
3000600060
CC01980198
CC01980198
3000600060
FC01F801F8
CC01980198
3000600060
3000600060
CC01980198
CC01980198
3000600060
3000600060
CC01980198
CC01980198
3000600060
3000600060
CCCD999998
CCCD999998
3332666660
3332666660
CCCD999998
CCCD999998
ENDCHAR
STARTCHAR E088
ENCODING 57480
SWIDTH 797 0
DWIDTH 31 0
BBX 25 29 3 0
BITMAP
CC001980
CC001980
30000600
30000600
CC001980
CC001980
30000600
30000600
CC001980
CC001980
33006600
3FCDFE00
0CCD9800
03326000
03326000
0CCD9800
0CCD9800
33006600
33006600
CC001980
CC001980
30000600
30000600
CC001980
CC001980
30000600
30000600
CC001980
CC001980
ENDCHAR
STARTCHAR E089
ENCODING 57481
SWIDTH 694 0
DWIDTH 27 0
BBX 21 29 3 0
BITMAP
CC0198
CC0198
300060
300060
CC0198
CC0198
300060
300060
CC0198
CC0198
300060
FC01F8
CC0198
300060
300060
CCCD98
CCCD98
333260
333260
CCCD98
CCCD98
003000
003000
00CC00
00CC00
003000
003000
00CC00
00CC00
ENDCHAR
STARTCHAR E091
ENCODING 57489
SWIDTH 694 0
DWIDTH 27 0
BBX 21 29 3 0
BITMAP
CCCD98
CCCD98
333260
333260
CCCD98
CCCD98
000060
000060
000198
000198
000060
CCCDF8
CCCD98
333260
333260
CCCD98
CCCD98
300000
300000
CC0000
CC0000
300000
300000
CCCD98
CCCD98
333260
333260
CCCD98
CCCD98
ENDCHAR
STARTCHAR E095
ENCODING 57493
SWIDTH 797 0
DWIDTH 31 0
BBX 25 29 3 0
BITMAP
0CCD9800
0CCD9800
33326600
33326600
CCCD9980
CCCD9980
30000600
30000600
CC001980
CC001980
00000600
0CCD9F80
0CCD9980
33326600
33326600
CCCD9980
CCCD9980
30000600
30000600
CC001980
CC001980
30000600
30000600
CCCD9980
CCCD9980
33326600
33326600
0CCD9800
0CCD9800
ENDCHAR
STARTCHAR E0AC
ENCODING 57516
SWIDTH 1285 0
DWIDTH 50 0
BBX 45 29 3 0
BITMAP
0CCD99999980
0CCD99999980
333266666660
333266666660
CCCD99999998
CCCD99999998
300006000060
300006000060
CC0019800198
CC0019800198
000006000060
0CCD9F9999F8
0CCD99999998
333266666660
333266666660
CCCD99999998
CCCD99999998
300006000000
300006000000
CC0019800000
CC0019800000
300006000000
300006000000
CCCD99999998
CCCD99999998
333266666660
333266666660
0CCD99999998
0CCD99999998
ENDCHAR
STARTCHAR E0AD
ENCODING 57517
SWIDTH 694 0
DWIDTH 27 0
BBX 21 29 3 0
BITMAP
00CD98
00CD98
033260
033260
0CCD98
0CCD98
330000
330000
CC0000
CC0000
300000
FC0000
CC0000
300000
300000
CC0000
CC0000
300000
300000
CC0000
CC0000
330000
330000
0CCD98
0CCD98
033260
033260
00CD98
00CD98
ENDCHAR
STARTCHAR E0B2
ENCODING 57522
SWIDTH 797 0
DWIDTH 31 0
BBX 25 29 3 0
BITMAP
00CD8000
00CD8000
03326000
03326000
0CCD9800
0CCD9800
33006600
33006600
CC001980
CC001980
30000600
FCCD9F80
CCCD9980
33326600
33326600
CCCD9980
CCCD9980
30000000
30000000
CC000000
CC000000
33000000
33000000
0CCD9980
0CCD9980
03326600
03326600
00CD9980
00CD9980
ENDCHAR
STARTCHAR E0C3
ENCODING 57539
SWIDTH 591 0
DWIDTH 23 0
BBX 17 29 3 0
BITMAP
000D80
000D80
000200
000200
000D80
000D80
000200
000200
000D80
000D80
000200
000F80
000D80
000200
000200
000D80
000D80
000200
000200
000D80
000D80
003200
003200
CCCC00
CCCC00
333000
333000
CCC000
CCC000
ENDCHAR
STARTCHAR E0C4
ENCODING 57540
SWIDTH 1285 0
DWIDTH 50 0
BBX 45 29 3 0
BITMAP
00CD80199800
00CD80199800
033260666600
033260666600
0CCD99999980
0CCD99999980
330066600660
330066600660
CC0019800198
CC0019800198
300006000060
FC001F8001F8
CC0019800198
300006000060
300006000060
CC0019800198
CC0019800198
300006000060
300006000060
CC0019800198
CC0019800198
300006000060
300006000060
CC0019800198
CC0019800198
300006000060
300006000060
CC0019800198
CC0019800198
ENDCHAR
STARTCHAR E0C5
ENCODING 57541
SWIDTH 797 0
DWIDTH 31 0
BBX 25 29 3 0
BITMAP
00CD8000
00CD8000
03326000
03326000
0CCD9800
0CCD9800
33006600
33006600
CC001980
CC001980
30000600
FC001F80
CC001980
30000600
30000600
CC001980
CC001980
30000600
30000600
CC001980
CC001980
30000600
30000600
CC001980
CC001980
30000600
30000600
CC001980
CC001980
ENDCHAR
STARTCHAR E0C9
ENCODING 57545
SWIDTH 797 0
DWIDTH 31 0
BBX 25 37 3 -8
BITMAP
00CD8000
00CD8000
03326000
03326000
0CCD9800
0CCD9800
33006600
33006600
CC001980
CC001980
30000600
FC001F80
CC001980
30000600
30000600
CC001980
CC001980
30000600
30000600
CC001980
CC001980
30000600
30000600
CC001980
CC001980
30000600
30000600
CC001980
CC001980
00000600
00000600
00019980
00019980
00006600
00006600
00019800
00019800
ENDCHAR
STARTCHAR E0CB
ENCODING 57547
SWIDTH 1285 0
DWIDTH 50 0
BBX 45 29 3 0
BITMAP
00CD80199800
00CD80199800
033260666600
033260666600
0CCD99999980
0CCD99999980
330066600660
330066600660
CC0019800198
CC0019800198
300006000060
FC001F9999F8
CC0019999998
300006666660
300006666660
CC0019999998
CC0019999998
300006000000
300006000000
CC0019800000
CC0019800000
330066600000
330066600000
0CCD99999998
0CCD99999998
033260666660
033260666660
00CD80199998
00CD80199998
ENDCHAR
STARTCHAR E0CC
ENCODING 57548
SWIDTH 591 0
DWIDTH 23 0
BBX 17 29 3 0
BITMAP
00CD80
00CD80
033200
033200
0CCD80
0CCD80
330000
330000
CC0000
CC0000
300000
FC0000
CC0000
300000
300000
CC0000
CC0000
300000
300000
CC0000
CC0000
300000
300000
CC0000
CC0000
300000
300000
CC0000
CC0000
ENDCHAR
STARTCHAR E0D0
ENCODING 57552
SWIDTH 694 0
DWIDTH 27 0
BBX 21 29 3 0
BITMAP
0CCD98
0CCD98
333260
333260
CCCD98
CCCD98
300000
300000
CC0000
CC0000
300000
FCCD80
CCCD80
333260
333260
0CCD98
0CCD98
000060
000060
000198
000198
000060
000060
CCCD98
CCCD98
333260
333260
CCCD80
CCCD80
ENDCHAR
STARTCHAR E0D5
ENCODING 57557
SWIDTH 1285 0
DWIDTH 50 0
BBX 45 29 3 0
BITMAP
CC0019800198
CC0019800198
300006000060
300006000060
CC0019800198
CC0019800198
300006000060
300006000060
CC0019800198
CC0019800198
300006000060
FC001F8001F8
CC0019800198
300006000060
300006000060
CC0019800198
CC0019800198
300006000060
300006000060
CC0019800198
CC0019800198
330066600660
330066600660
0CCD99999980
0CCD99999980
033260666600
033260666600
00CD80199800
00CD80199800
ENDCHAR
STARTCHAR E0DA
ENCODING 57562
SWIDTH 694 0
DWIDTH 27 0
BBX 21 29 3 0
BITMAP
CC0198
CC0198
300060
300060
CC0198
CC0198
300060
300060
CC0198
CC0198
330060
3FCDF8
0CCD98
033260
033260
00CD98
00CD98
000060
000060
000198
000198
000060
000060
CCCD98
CCCD98
333260
333260
CCCD80
CCCD80
ENDCHAR
STARTCHAR E0E2
ENCODING 57570
SWIDTH 694 0
DWIDTH 27 0
BBX 21 29 3 0
BITMAP
000D98
000D98
003260
003260
00CD98
00CD98
033060
033060
0CC198
0CC198
330060
FF01F8
CC0198
300060
300060
CCCD98
CCCD98
333260
333260
CCCD98
CCCD98
300060
300060
CC0198
CC0198
300060
300060
CC0198
CC0198
ENDCHAR
STARTCHAR E0FA
ENCODING 57594
SWIDTH 694 0
DWIDTH 27 0
BBX 21 29 3 0
BITMAP
CCCD98
CCCD98
333260
333260
CCCD98
CCCD98
300060
300060
CC0198
CC0198
300260
FCCFF8
CCCD98
333260
333260
CCCD98
CCCD98
300060
300060
CC0198
CC0198
300260
300260
CCCD80
CCCD80
333200
333200
CCCC00
CCCC00
ENDCHAR
STARTCHAR E0FB
ENCODING 57595
SWIDTH 694 0
DWIDTH 27 0
BBX 21 29 3 0
BITMAP
000D98
000D98
003260
003260
00CD98
00CD98
033000
033000
0CC000
0CC000
330000
FF0000
CC0000
300000
300000
CC0000
CC0000
300000
300000
CC0000
CC0000
300000
300000
CCCD98
CCCD98
333260
333260
CCCD98
CCCD98
ENDCHAR
STARTCHAR E100
ENCODING 57600
SWIDTH 797 0
DWIDTH 31 0
BBX 25 29 3 0
BITMAP
CCCC0000
CCCC0000
33320000
33320000
CCCD8000
CCCD8000
30026000
30026000
CC019800
CC019800
30006600
FC007F80
CC001980
30000600
30000600
CC001980
CC001980
30000600
30000600
CC001980
CC001980
30000600
30000600
CCCD9980
CCCD9980
33326600
33326600
CCCD9980
CCCD9980
ENDCHAR
STARTCHAR E101
ENCODING 57601
SWIDTH 848 0
DWIDTH 33 0
BBX 29 29 1 0
BITMAP
0CCC8000
0CCC8000
03336000
03336000
0CCC9800
0CCC9800
03006600
03006600
0CC01980
0CC01980
03000660
CFCC07F8
CCCC0198
33300060
33300060
CCCC0198
CCCC0198
03000060
03000060
0CC00198
0CC00198
03000060
03000060
0CCC9998
0CCC9998
03336660
03336660
0CCC9998
0CCC9998
ENDCHAR
STARTCHAR E103
ENCODING 57603
SWIDTH 848 0
DWIDTH 33 0
BBX 29 29 1 0
BITMAP
0CCC8000
0CCC8000
03336000
03336000
0CCC9800
0CCC9800
03006600
03006600
0CC01980
0CC01980
03000660
CFCC07F8
CCCC0198
33300060
33300060
CCCC0198
CCCC0198
03000060
03000060
0CC00198
0CC00198
03000060
03000060
0CCC9998
0CCC9998
03336660
03336660
0CCC9998
0CCC9998
ENDCHAR
STARTCHAR E104
ENCODING 57604
SWIDTH 694 0
DWIDTH 27 0
BBX 21 29 3 0
BITMAP
CCCD98
CCCD98
333260
333260
CCCD98
CCCD98
300000
300000
CC0000
CC0000
300000
FCCD80
CCCD80
333200
333200
CCCD80
CCCD80
300000
300000
CC0000
CC0000
330000
330000
0CCD98
0CCD98
033260
033260
00CD98
00CD98
ENDCHAR
STARTCHAR E115
ENCODING 57621
SWIDTH 797 0
DWIDTH 31 0
BBX 25 29 3 0
BITMAP
00CD9980
00CD9980
03326600
03326600
0CCD9980
0CCD9980
33000000
33000000
CC000000
CC000000
30000000
FC0D9980
CC0D9980
30026600
30026600
CC0D9980
CC0D9980
30000600
30000600
CC001980
CC001980
30000600
30000600
CCCD9980
CCCD9980
33326600
33326600
CCCD9980
CCCD9980
ENDCHAR
STARTCHAR E119
ENCODING 57625
SWIDTH 694 0
DWIDTH 27 0
BBX 21 29 3 0
BITMAP
CC0000
CC0000
300000
300000
CC0000
CC0000
300000
300000
CC0000
CC0000
300000
FC0000
CC0000
300000
300000
CC0000
CC0000
300000
300000
CC0000
CC0000
330000
330000
0CCD98
0CCD98
033260
033260
00CD98
00CD98
ENDCHAR
STARTCHAR E11E
ENCODING 57630
SWIDTH 1080 0
DWIDTH 42 0
BBX 37 29 3 0
BITMAP
CCC1998000
CCC1998000
3330666000
3330666000
CCCD999800
CCCD999800
3032606600
3032606600
CC0D981980
CC0D981980
3002600660
FC03F807F8
CC01980198
3000600060
3000600060
CC01980198
CC01980198
3000600060
3000600060
CC01980198
CC01980198
3000600060
3000600060
CC01980198
CC01980198
3000600060
3000600060
CC01980198
CC01980198
ENDCHAR
STARTCHAR E11F
ENCODING 57631
SWIDTH 694 0
DWIDTH 27 0
BBX 21 29 3 0
BITMAP
CCC000
CCC000
333000
333000
CCCC00
CCCC00
303200
303200
CC0D80
CC0D80
300260
FC03F8
CC0198
300060
300060
CC0198
CC0198
300060
300060
CC0198
CC0198
300060
300060
CC0198
CC0198
300060
300060
CC0198
CC0198
ENDCHAR
STARTCHAR E123
ENCODING 57635
SWIDTH 694 0
DWIDTH 27 0
BBX 21 37 3 -8
BITMAP
CCC000
CCC000
333000
333000
CCCC00
CCCC00
303200
303200
CC0D80
CC0D80
300260
FC03F8
CC0198
300060
300060
CC0198
CC0198
300060
300060
CC0198
CC0198
300060
300060
CC0198
CC0198
300060
300060
CC0198
CC0198
000060
000060
000D98
000D98
000260
000260
000D80
000D80
ENDCHAR
STARTCHAR E125
ENCODING 57637
SWIDTH 797 0
DWIDTH 31 0
BBX 25 29 3 0
BITMAP
CCCD8000
CCCD8000
33326000
33326000
CCCD9800
CCCD9800
30006600
30006600
CC001980
CC001980
30000600
FC001F80
CC001980
30000600
30000600
CC001980
CC001980
30000600
30000600
CC001980
CC001980
33000600
33000600
0CCD9980
0CCD9980
03326600
03326600
00CD9980
00CD9980
ENDCHAR
STARTCHAR E136
ENCODING 57654
SWIDTH 694 0
DWIDTH 27 0
BBX 21 29 3 0
BITMAP
CCCD98
CCCD98
333260
333260
CCCD98
CCCD98
300060
300060
CC0198
CC0198
300060
FC01F8
CC0198
300060
300060
CC0198
CC0198
300260
300260
CCCD80
CCCD80
333200
333200
CCCC00
CCCC00
300000
300000
CC0000
CC0000
ENDCHAR
STARTCHAR E137
ENCODING 57655
SWIDTH 694 0
DWIDTH 27 0
BBX 21 29 3 0
BITMAP
CC0000
CC0000
300000
300000
CCCD98
CCCD98
333260
333260
CCCD98
CCCD98
300060
FC01F8
CC0198
300060
300060
CC0198
CC0198
300260
300260
CCCD80
CCCD80
333200
333200
CCCC00
CCCC00
300000
300000
CC0000
CC0000
ENDCHAR
STARTCHAR E138
ENCODING 57656
SWIDTH 797 0
DWIDTH 31 0
BBX 25 33 3 -4
BITMAP
CCCD8000
CCCD8000
33326000
33326000
CCCD9800
CCCD9800
30006600
30006600
CC001980
CC001980
30000600
FC001F80
CC001980
30000600
30000600
CC001980
CC001980
30000600
30000600
CC0D9980
CC0D9980
33020600
33020600
0CCD9980
0CCD9980
03326600
03326600
00CD9980
00CD9980
00020000
00020000
000D8000
000D8000
ENDCHAR
STARTCHAR E139
ENCODING 57657
SWIDTH 694 0
DWIDTH 27 0
BBX 21 29 3 0
BITMAP
CCCD98
CCCD98
333260
333260
CCCD98
CCCD98
300060
300060
CC0198
CC0198
300060
FC01F8
CC0198
300060
300060
CC0198
CC0198
300260
300260
CCCD80
CCCD80
333200
333200
CCCD80
CCCD80
300260
300260
CC0198
CC0198
ENDCHAR
STARTCHAR E13D
ENCODING 57661
SWIDTH 694 0
DWIDTH 27 0
BBX 21 29 3 0
BITMAP
00CD98
00CD98
033260
033260
0CCD98
0CCD98
330000
330000
CC0000
CC0000
300000
FCCD98
CCCD98
333260
333260
CCCD98
CCCD98
000060
000060
000198
000198
000260
000260
CCCD80
CCCD80
333200
333200
CCCC00
CCCC00
ENDCHAR
STARTCHAR E141
ENCODING 57665
SWIDTH 694 0
DWIDTH 27 0
BBX 21 29 3 0
BITMAP
CC0198
CC0198
300060
300060
CC0198
CC0198
300060
300060
CC0198
CC0198
300060
FC01F8
CC0198
300060
300060
CC0198
CC0198
300260
300260
CC0D80
CC0D80
303200
303200
CCCC00
CCCC00
333000
333000
CCC000
CCC000
ENDCHAR
STARTCHAR E142
ENCODING 57666
SWIDTH 1080 0
DWIDTH 42 0
BBX 37 29 3 0
BITMAP
CC01980198
CC01980198
3000600060
3000600060
CC01980198
CC01980198
3000600060
3000600060
CC01980198
CC01980198
3000600060
FC01F801F8
CC01980198
3000600060
3000600060
CC01980198
CC01980198
3002600660
3002600660
CC0D981980
CC0D981980
3032606600
3032606600
CCCD999800
CCCD999800
3330666000
3330666000
CCC1998000
CCC1998000
ENDCHAR
STARTCHAR E147
ENCODING 57671
SWIDTH 282 0
DWIDTH 11 0
BBX 6 37 3 0
BITMAP
CC
CC
30
30
CC
CC
00
00
CC
CC
30
30
CC
CC
30
30
CC
CC
30
FC
CC
30
30
CC
CC
30
30
CC
CC
30
30
CC
CC
30
30
CC
CC
ENDCHAR
STARTCHAR E148
ENCODING 57672
SWIDTH 694 0
DWIDTH 27 0
BBX 21 29 3 0
BITMAP
CCCD98
CCCD98
333260
333260
CCCD98
CCCD98
000060
000060
000198
000198
000060
CCCDF8
CCCD98
333260
333260
CCCD98
CCCD98
300060
300060
CC0198
CC0198
300060
300060
CCCD98
CCCD98
333260
333260
CCCD98
CCCD98
ENDCHAR
STARTCHAR E15F
ENCODING 57695
SWIDTH 1080 0
DWIDTH 42 0
BBX 37 29 3 0
BITMAP
CCCD999998
CCCD999998
3332666660
3332666660
CCCD999998
CCCD999998
0000600060
0000600060
0001980198
0001980198
0000600060
CCCDF999F8
CCCD999998
3332666660
3332666660
CCCD999998
CCCD999998
3000600000
3000600000
CC01980000
CC01980000
3000600000
3000600000
CCCD999998
CCCD999998
3332666660
3332666660
CCCD999998
CCCD999998
ENDCHAR
STARTCHAR E160
ENCODING 57696
SWIDTH 694 0
DWIDTH 27 0
BBX 21 29 3 0
BITMAP
CCCD98
CCCD98
333260
333260
CCCD98
CCCD98
300060
300060
CC0198
CC0198
300260
FCCFE0
CCCD80
333200
333200
CCCD80
CCCD80
300260
300260
CC0198
CC0198
300060
300060
CCCD98
CCCD98
333260
333260
CCCD98
CCCD98
ENDCHAR
STARTCHAR E161
ENCODING 57697
SWIDTH 694 0
DWIDTH 27 0
BBX 21 29 3 0
BITMAP
CCCD98
CCCD98
333260
333260
CCCD98
CCCD98
300060
300060
CC0198
CC0198
300060
FC01F8
CC0198
300000
300000
CC0000
CC0000
300000
300000
CC0198
CC0198
300060
300060
CCCD98
CCCD98
333260
333260
CCCD98
CCCD98
ENDCHAR
STARTCHAR E166
ENCODING 57702
SWIDTH 694 0
DWIDTH 27 0
BBX 21 29 3 0
BITMAP
CCCD98
CCCD98
333260
333260
CCCD98
CCCD98
300060
300060
CC0198
CC0198
300060
FCCDF8
CCCD98
333260
333260
CCCD98
CCCD98
300000
300000
CC0000
CC0000
300000
300000
CCCD98
CCCD98
333260
333260
CCCD98
CCCD98
ENDCHAR
STARTCHAR E177
ENCODING 57719
SWIDTH 694 0
DWIDTH 27 0
BBX 21 29 3 0
BITMAP
CCCD98
CCCD98
333260
333260
CCCD98
CCCD98
300000
300000
CC0000
CC0000
300000
FCCD80
CCCD80
333200
333200
CCCD80
CCCD80
300000
300000
CC0000
CC0000
300000
300000
CC0000
CC0000
300000
300000
CC0000
CC0000
ENDCHAR
STARTCHAR E178
ENCODING 57720
SWIDTH 694 0
DWIDTH 27 0
BBX 21 29 3 0
BITMAP
CCCD98
CCCD98
333260
333260
CCCD98
CCCD98
300000
300000
CC0000
CC0000
300000
FC0D98
CC0D98
300260
300260
CC0D98
CC0D98
300060
300060
CC0198
CC0198
300060
300060
CCCD98
CCCD98
333260
333260
CCCD98
CCCD98
ENDCHAR
STARTCHAR E17C
ENCODING 57724
SWIDTH 488 0
DWIDTH 19 0
BBX 14 29 3 0
BITMAP
00CC
00CC
0030
0030
00CC
00CC
0030
0030
00CC
00CC
0030
00FC
00CC
0030
0030
00CC
00CC
0030
0030
00CC
00CC
0030
0030
CCCC
CCCC
3330
3330
CCCC
CCCC
ENDCHAR
STARTCHAR E17D
ENCODING 57725
SWIDTH 694 0
DWIDTH 27 0
BBX 21 29 3 0
BITMAP
CC0198
CC0198
300060
300060
CC0198
CC0198
300260
300260
CC0D80
CC0D80
303200
FCFF98
CCCD98
333260
333260
CCCD98
CCCD98
300060
300060
CC0198
CC0198
300060
300060
CC0198
CC0198
300060
300060
CC0198
CC0198
ENDCHAR
STARTCHAR E17F
ENCODING 57727
SWIDTH 591 0
DWIDTH 23 0
BBX 17 29 3 0
BITMAP
CC0000
CC0000
300000
300000
CC0000
CC0000
300000
300000
CC0000
CC0000
300000
FC0000
CC0000
300000
300000
CC0000
CC0000
300000
300000
CC0000
CC0000
300000
300000
CCCD80
CCCD80
333200
333200
CCCD80
CCCD80
ENDCHAR
ENDFONT
